<svg version="1.1" id="Layer_1" xmlns="http://www.w3.org/2000/svg" xmlns:xlink="http://www.w3.org/1999/xlink" x="0px" y="0px"
	 width="100%" viewBox="0 0 400 400" enable-background="new 0 0 400 400" xml:space="preserve">
<path fill="#000000" opacity="1.000000" stroke="none" 
	d="
M401.000000,210.533142 
	C398.916931,214.167801 397.855560,217.887512 395.193878,220.780212 
	C387.105011,229.571091 372.609100,232.298340 361.669952,226.890656 
	C352.064117,222.142090 347.461731,211.274094 349.773132,198.797775 
	C351.922638,187.195572 361.483490,178.831009 373.795532,177.781204 
	C386.746979,176.676895 395.477386,182.085632 400.819916,194.705963 
	C401.000000,200.022095 401.000000,205.044189 401.000000,210.533142 
M381.303253,215.981339 
	C387.524231,210.967239 389.301666,202.310654 385.521271,195.438751 
	C382.758453,190.416565 376.692993,188.231873 371.443268,190.368118 
	C364.485992,193.199203 361.493927,201.940735 364.616272,210.313507 
	C367.039215,216.810776 372.844177,218.994400 381.303253,215.981339 
z"/>
<path fill="#000000" opacity="1.000000" stroke="none" 
	d="
M22.461166,209.473511 
	C22.057707,202.854721 20.639664,196.854767 22.426863,190.483475 
	C23.684805,185.998962 22.952848,180.895233 22.756687,176.082367 
	C22.587013,171.919464 24.292336,170.261688 28.352959,170.670349 
	C29.836462,170.819656 31.346426,170.688385 32.843323,170.725418 
	C38.592640,170.867584 39.775330,171.995224 40.250832,177.727341 
	C40.443356,180.048187 40.553822,182.381271 40.875488,184.684494 
	C41.219414,187.147141 39.680237,190.769913 43.105217,191.612869 
	C47.086197,192.592651 51.385319,192.480255 55.424236,191.289093 
	C56.899769,190.853928 56.671654,189.095627 56.717735,187.787140 
	C56.846561,184.128983 56.853058,180.464874 57.056824,176.811432 
	C57.259476,173.178055 58.897236,170.736313 62.930344,170.913300 
	C67.170319,171.099350 72.511337,169.197891 73.825127,175.712296 
	C74.511597,179.116150 75.009743,182.658417 74.859253,186.106155 
	C74.653671,190.816284 76.668533,192.402420 81.057343,192.029907 
	C82.702057,191.890305 84.402184,191.974808 86.035995,192.225113 
	C89.387024,192.738480 92.894524,193.217529 92.640579,197.953751 
	C92.371460,202.972733 88.420204,207.800385 84.474052,207.780380 
	C82.828461,207.772034 81.227448,207.382217 79.525322,207.697311 
	C76.461159,208.264496 74.787361,209.662689 74.946175,213.030228 
	C75.102715,216.349396 74.932335,219.684021 74.904564,223.011856 
	C74.899010,223.677383 75.042976,224.388962 74.858765,225.001343 
	C72.707069,232.154388 66.799309,227.994675 62.630341,228.840927 
	C59.920883,229.390915 56.720287,229.070007 56.751114,224.796356 
	C56.777512,221.136047 56.533913,217.465027 56.738941,213.817230 
	C56.947109,210.113586 55.042992,208.675003 51.766083,208.415482 
	C50.111870,208.284485 48.441261,208.373947 46.779076,208.327484 
	C42.685650,208.213074 40.608009,209.885864 40.844387,214.281189 
	C41.039944,217.917480 40.748936,221.579620 40.682831,225.230484 
	C40.664543,226.240448 40.731384,227.561951 39.811371,227.947449 
	C35.012421,229.958282 29.979540,229.204773 25.167423,228.271973 
	C21.901432,227.638885 22.991404,224.250763 22.876696,221.898438 
	C22.682358,217.913193 22.658787,213.919647 22.461166,209.473511 
z"/>
<path fill="#000000" opacity="1.000000" stroke="none" 
	d="
M165.033997,225.503510 
	C164.994247,211.404114 165.133545,197.752640 164.925430,184.106461 
	C164.858261,179.703979 166.697601,178.134308 170.777588,178.090469 
	C177.263458,178.020828 183.739792,177.646729 190.193298,178.805786 
	C197.373886,180.095413 201.781738,183.680649 203.086578,189.610199 
	C204.527130,196.156387 202.203293,201.676193 195.903809,205.642975 
	C193.277893,207.296494 192.995300,208.722000 194.742920,211.213486 
	C198.346741,216.351318 201.722458,221.649170 205.226532,226.933197 
	C197.078659,231.065567 190.649109,229.430328 186.292892,222.555161 
	C184.018967,218.966339 181.753510,215.372131 178.447906,212.077606 
	C178.447906,216.018204 178.266495,219.969604 178.500137,223.896317 
	C178.723190,227.645157 177.028763,229.252625 173.538925,228.848877 
	C170.557922,228.503983 166.580856,230.708725 165.033997,225.503510 
M184.042404,189.225159 
	C179.509430,188.428741 178.109299,190.654022 178.378159,194.836334 
	C178.588470,198.108017 179.526596,200.384323 183.380112,199.843994 
	C186.757736,199.370407 188.897308,197.658401 188.733002,193.980820 
	C188.621918,191.494339 186.937851,190.222275 184.042404,189.225159 
z"/>
<path fill="#000000" opacity="1.000000" stroke="none" 
	d="
M262.651611,205.999817 
	C262.656097,198.336182 262.882568,191.163147 262.580109,184.012497 
	C262.403107,179.828140 264.140381,178.380814 268.001770,178.238632 
	C273.825500,178.024246 279.613068,177.658386 285.436310,178.612701 
	C295.996704,180.343338 301.241913,185.666351 301.319122,195.146576 
	C301.393463,204.276352 294.756348,211.762741 285.274475,213.244263 
	C276.428162,214.626480 276.288757,214.623840 276.116974,223.637863 
	C276.048340,227.239212 274.702332,228.885254 271.137451,228.826782 
	C268.487732,228.783295 265.827576,228.906708 262.651428,227.671036 
	C262.651428,220.739746 262.651428,213.619781 262.651611,205.999817 
M278.591034,202.695587 
	C284.481354,202.207352 287.107178,199.965805 286.870850,195.627457 
	C286.661072,191.777161 283.356323,189.012589 279.361786,189.311966 
	C278.169556,189.401321 276.609497,189.459793 276.520813,190.784073 
	C276.255188,194.749771 274.605988,198.940308 278.591034,202.695587 
z"/>
<path fill="#000000" opacity="1.000000" stroke="none" 
	d="
M153.003754,180.504730 
	C153.153397,182.096283 153.214081,183.262817 153.171677,184.425598 
	C152.957672,190.292297 152.432465,190.771744 146.653778,189.704346 
	C140.991638,188.658478 135.772827,189.372208 132.440506,194.449570 
	C128.890152,199.859146 128.902985,205.976639 131.751038,211.610291 
	C134.884506,217.808517 140.983002,217.182663 146.715607,216.861115 
	C149.403275,216.710342 152.701584,214.539810 153.312241,219.829300 
	C154.175140,227.303726 154.223099,227.718033 147.982346,228.857941 
	C143.366959,229.700974 138.649689,229.798431 134.058777,228.961227 
	C122.372002,226.830017 115.954185,219.045273 115.212181,206.555069 
	C114.471634,194.089615 121.138451,182.875183 131.708069,179.644012 
	C138.701843,177.506027 145.901505,175.939148 153.003754,180.504730 
z"/>
<path fill="#000000" opacity="1.000000" stroke="none" 
	d="
M211.618500,187.347061 
	C210.574142,184.580933 208.349899,182.639664 208.691650,179.760895 
	C218.245667,176.257401 221.417175,177.474075 225.775681,185.997498 
	C227.654602,189.671890 229.082016,193.608810 232.120102,197.453094 
	C234.377686,193.235062 236.814163,189.490448 238.451294,185.424011 
	C240.604401,180.075943 243.834793,177.330017 249.789703,178.597687 
	C251.359924,178.931946 253.124557,178.110779 254.829651,179.537750 
	C254.992233,182.589462 252.710724,184.850021 251.482437,187.435364 
	C249.270203,192.091782 246.889832,196.700470 244.176895,201.079544 
	C239.759949,208.209106 237.330795,215.630875 238.154129,224.190750 
	C238.816574,231.077896 232.908600,227.853027 229.877945,228.649109 
	C227.380035,229.305252 224.310867,228.587097 224.899170,225.006546 
	C226.890549,212.886902 220.222061,203.635284 215.065536,193.851822 
	C213.978836,191.790054 212.868317,189.740845 211.618500,187.347061 
z"/>
<path fill="#000000" opacity="1.000000" stroke="none" 
	d="
M319.690491,225.588455 
	C319.660858,215.806580 319.658569,206.478867 319.650940,197.151169 
	C319.645294,190.264465 319.642212,190.264465 312.909058,190.148407 
	C306.823151,190.043503 306.654236,189.686142 306.642181,183.469299 
	C306.635651,180.094757 307.739594,178.621277 311.234039,178.657852 
	C321.209229,178.762268 331.187561,178.761322 341.162262,178.625381 
	C345.505096,178.566208 345.339020,181.336182 345.346710,184.310303 
	C345.354279,187.237686 345.678925,189.916397 341.320801,190.146484 
	C333.043274,190.583511 333.043396,190.769089 333.038116,199.211777 
	C333.033142,207.206802 333.104462,215.202362 333.022125,223.196457 
	C333.001556,225.195236 333.737823,228.474670 330.669586,228.275818 
	C327.018036,228.039185 322.331085,231.520493 319.690491,225.588455 
z"/>
</svg>