<svg xmlns="http://www.w3.org/2000/svg" version="1.0" viewBox="0 0 1875 1169"><path fill="#808040" fill-opacity=".1" stroke="#808040" stroke-opacity=".1" stroke-width="10" d="M984 251.3c0 .2 1.5 1.6 3.3 3.3l3.2 2.9-2.9-3.3c-2.8-3-3.6-3.7-3.6-2.9zm-13 3c0 .2 1.5 1.6 3.3 3.3l3.2 2.9-2.9-3.3c-2.8-3-3.6-3.7-3.6-2.9zm9 9c0 .2 1.5 1.6 3.3 3.3l3.2 2.9-2.9-3.3c-2.8-3-3.6-3.7-3.6-2.9zm-1.6 644.9-2.9 3.3 3.3-2.9c1.7-1.7 3.2-3.1 3.2-3.3 0-.8-.8-.1-3.6 2.9zm-343.1 133.5c.9.2 2.3.2 3 0 .6-.3-.1-.5-1.8-.5-1.6 0-2.2.2-1.2.5z"/><path fill="#808040" fill-opacity=".2" stroke="#808040" stroke-opacity=".2" stroke-width="10" d="M968 251.5c1.3 1.4 2.6 2.5 2.8 2.5.3 0-.5-1.1-1.8-2.5s-2.6-2.5-2.8-2.5c-.3 0 .5 1.1 1.8 2.5zm20 20c1.3 1.4 2.6 2.5 2.8 2.5.3 0-.5-1.1-1.8-2.5s-2.6-2.5-2.8-2.5c-.3 0 .5 1.1 1.8 2.5zm104.3 168.2c1.5.2 3.9.2 5.5 0 1.5-.2.2-.4-2.8-.4s-4.3.2-2.7.4z"/><path fill="#808040" fill-opacity=".3" stroke="#808040" stroke-opacity=".3" stroke-width="20" d="M632.8 117.7c1.2.2 3 .2 4 0 .9-.3-.1-.5-2.3-.4-2.2 0-3 .2-1.7.4zm38.5 0c.9.2 2.5.2 3.5 0 .9-.3.1-.5-1.8-.5-1.9 0-2.7.2-1.7.5zM336.4 257.2l-2.9 3.3 3.3-2.9c3-2.8 3.7-3.6 2.9-3.6-.2 0-1.6 1.5-3.3 3.2zm-8.4 8.3c-2.4 2.5-4.2 4.5-3.9 4.5.3 0 2.5-2 4.9-4.5 2.4-2.5 4.2-4.5 3.9-4.5-.3 0-2.5 2-4.9 4.5zm659.9 633.2-2.4 2.8 2.8-2.4c1.5-1.4 2.7-2.6 2.7-2.8 0-.8-.8-.1-3.1 2.4zM317 908.3c0 .2 1.5 1.6 3.3 3.3l3.2 2.9-2.9-3.3c-2.8-3-3.6-3.7-3.6-2.9zm651.9 9.4-2.4 2.8 2.8-2.4c1.5-1.4 2.7-2.6 2.7-2.8 0-.8-.8-.1-3.1 2.4z"/><path fill="#808040" fill-opacity=".4" stroke="#808040" stroke-opacity=".4" stroke-width="10" d="M639.8 117.7c1.2.2 3.2.2 4.5 0 1.2-.2.2-.4-2.3-.4s-3.5.2-2.2.4zm25.5 0c.9.2 2.5.2 3.5 0 .9-.3.1-.5-1.8-.5-1.9 0-2.7.2-1.7.5zM327.5 919c2.7 2.7 5.1 5 5.4 5 .3 0-1.7-2.3-4.4-5-2.7-2.8-5.1-5-5.4-5-.3 0 1.7 2.2 4.4 5z"/><path fill="#808040" fill-opacity=".5" stroke="#808040" stroke-opacity=".5" stroke-width="10" d="M647.8 117.7c1.2.2 3.2.2 4.5 0 1.2-.2.2-.4-2.3-.4s-3.5.2-2.2.4zm11.5 0c.9.2 2.5.2 3.5 0 .9-.3.1-.5-1.8-.5-1.9 0-2.7.2-1.7.5zm-6.5 10c1.2.2 3.2.2 4.5 0 1.2-.2.2-.4-2.3-.4s-3.5.2-2.2.4zm439.5 603c1.5.2 3.9.2 5.5 0 1.5-.2.2-.4-2.8-.4s-4.3.2-2.7.4zM325 901.3c0 .1 3.5 3.6 7.8 7.7l7.7 7.5-7.5-7.8c-6.9-7.1-8-8.2-8-7.4z"/><path fill="#808040" fill-opacity=".6" stroke="#808040" stroke-opacity=".6" stroke-width="10" d="m320.4 258.2-2.9 3.3 3.3-2.9c3-2.8 3.7-3.6 2.9-3.6-.2 0-1.6 1.5-3.3 3.2zM198.3 589c0 2.5.2 3.5.4 2.2.2-1.2.2-3.2 0-4.5-.2-1.2-.4-.2-.4 2.3z"/><path fill="#808040" fill-opacity=".7" stroke="#808040" stroke-opacity=".7" stroke-width="10" d="M643.3 127.7c.9.2 2.3.2 3 0 .6-.3-.1-.5-1.8-.5-1.6 0-2.2.2-1.2.5zM198.2 595.5c0 1.6.2 2.2.5 1.2.2-.9.2-2.3 0-3-.3-.6-.5.1-.5 1.8z"/><path fill="#808040" fill-opacity=".8" stroke="#808040" stroke-opacity=".8" stroke-width="10" d="M638.3 127.7c.9.2 2.3.2 3 0 .6-.3-.1-.5-1.8-.5-1.6 0-2.2.2-1.2.5zM982 250.5c1.3 1.4 2.6 2.5 2.8 2.5.3 0-.5-1.1-1.8-2.5s-2.6-2.5-2.8-2.5c-.3 0 .5 1.1 1.8 2.5zm-3.5 10.5c2.1 2.2 4.1 4 4.4 4 .3 0-1.3-1.8-3.4-4-2.1-2.2-4.1-4-4.4-4-.3 0 1.3 1.8 3.4 4zm7.9 654.2-2.9 3.3 3.3-2.9c1.7-1.7 3.2-3.1 3.2-3.3 0-.8-.8-.1-3.6 2.9zm-336.1 127.5c.9.2 2.3.2 3 0 .6-.3-.1-.5-1.8-.5-1.6 0-2.2.2-1.2.5z"/><path fill="#808040" fill-opacity=".9" stroke="#808040" stroke-opacity=".9" stroke-width="10" d="m336.4 243.2-2.9 3.3 3.3-2.9c1.7-1.7 3.2-3.1 3.2-3.3 0-.8-.8-.1-3.6 2.9zm634.1 9.8c2.1 2.2 4.1 4 4.4 4 .3 0-1.3-1.8-3.4-4-2.1-2.2-4.1-4-4.4-4-.3 0 1.3 1.8 3.4 4zm-635.6 4.7-3.4 3.8 3.8-3.4c2-1.9 3.7-3.6 3.7-3.8 0-.8-.8 0-4.1 3.4zm-7.5 7.5-2.9 3.3 3.3-2.9c3-2.8 3.7-3.6 2.9-3.6-.2 0-1.6 1.5-3.3 3.2zm-15.5 2.5-2.4 2.8 2.8-2.4c2.5-2.3 3.2-3.1 2.4-3.1-.2 0-1.4 1.2-2.8 2.7zm674.6 1.3c2.1 2.2 4.1 4 4.4 4 .3 0-1.3-1.8-3.4-4-2.1-2.2-4.1-4-4.4-4-.3 0 1.3 1.8 3.4 4zM188.3 591c0 2.5.2 3.5.4 2.2.2-1.2.2-3.2 0-4.5-.2-1.2-.4-.2-.4 2.3zm791.2 317.2-6 6.3 6.3-6c3.4-3.3 6.2-6.1 6.2-6.2 0-.8-1 .1-6.5 5.9z"/><path fill="#808040" stroke="#808040" stroke-width="10" d="M615.5 119.1c-61.8 6.3-114.7 21.1-165 46.1-49.2 24.5-86.9 51.4-124.5 88.8-81.4 80.9-129.4 186.6-137 301.5-2 30.4.7 76.5 6.6 110.5 13 75.4 46.1 149.1 93.6 208.8 57.8 72.3 132 124.6 217.4 153.1 54.3 18.1 99.7 24.9 158.4 23.8 71.3-1.4 131.5-15.8 196.4-47.2 52.2-25.2 106.6-66.6 144-109.6 15.8-18.1 17.7-20.5 29.9-37.5 25.4-35.4 49-80.5 61.8-118.2l2.8-8.3-5 .3-5 .3-5.3 14c-29.5 77.5-77 143.4-140.6 195.1-61.7 50.1-133.1 82.3-213 95.8-19.8 3.4-30.2 4.4-55.1 5.6-87.1 4.2-172.7-16.6-248.9-60.3-80.6-46.2-148.3-120.3-186.7-204-30-65.6-43.9-134.2-42-208.2 2.9-114.7 50.8-225.3 133.1-307.9 71.7-71.9 161.6-116.3 264.1-130.5 54.4-7.6 116-4.1 171 9.6 80.8 20.2 154.2 61.6 212.1 119.7 15.8 15.9 20.4 21 34.9 39.1 28 34.8 51.9 76.1 68.4 118.5 3.7 9.6 7.1 18.3 7.4 19.2.5 1.4 1.8 1.8 5.6 1.8h5l-2.8-7.8c-9.4-25.2-14.1-36.3-24.1-56.2-22.2-44.6-50.6-83.7-87.4-120.6-37-36.9-75.1-64.5-121.6-87.8-53.3-26.7-111.3-42.8-171.4-47.6-14.9-1.2-65.3-1.1-77.1.1z"/><path fill="#FFBF00" fill-opacity=".2" stroke="#FFBF00" stroke-opacity=".2" stroke-width="10" d="M1190.3 702.7c.9.2 2.5.2 3.5 0 .9-.3.1-.5-1.8-.5-1.9 0-2.7.2-1.7.5z"/><path fill="#FFBF00" fill-opacity=".5" stroke="#FFBF00" stroke-opacity=".5" stroke-width="10" d="M1392.3 601.7c1.5.2 3.7.2 5 0 1.2-.2 0-.4-2.8-.4-2.7 0-3.8.2-2.2.4z"/><path fill="#FFBF00" fill-opacity=".6" stroke="#FFBF00" stroke-opacity=".6" stroke-width="10" d="m940.9 630.7-2.4 2.8 2.8-2.4c1.5-1.4 2.7-2.6 2.7-2.8 0-.8-.8-.1-3.1 2.4z"/><path fill="#FFBF00" fill-opacity=".7" stroke="#FFBF00" stroke-opacity=".7" stroke-width="10" d="M701.3 517.7c4.8.2 12.5.2 17 0 4.5-.1.6-.3-8.8-.3-9.3 0-13 .2-8.2.3zM526.5 643l-17 .6 16.7.2c10.3.1 16.9-.2 17.3-.8.3-.6.5-.9.3-.8-.2.1-7.9.5-17.3.8zm58.8.7c4.8.2 12.5.2 17 0 4.5-.1.6-.3-8.8-.3-9.3 0-13 .2-8.2.3zm445 0c4.8.2 12.5.2 17 0 4.5-.1.6-.3-8.8-.3-9.3 0-13 .2-8.2.3zm240 0c4.8.2 12.5.2 17 0 4.5-.1.6-.3-8.8-.3-9.3 0-13 .2-8.2.3z"/><path fill="#FFBF00" fill-opacity=".8" stroke="#FFBF00" stroke-opacity=".8" stroke-width="10" d="m853.9 578.7-2.4 2.8 2.8-2.4c2.5-2.3 3.2-3.1 2.4-3.1-.2 0-1.4 1.2-2.8 2.7z"/><g fill="#FFBF00" stroke="#FFBF00" stroke-width="10"><path d="M535.5 469.1c-19.4 2.6-36.2 10.4-46.7 21.7-9.3 10.1-13.8 21.8-13.9 36.5 0 7.1.4 9.7 2.1 13.3 2.7 5.4 8.3 9 15.9 10 5.4.7 5.4.7 4.7-1.7-4.2-14.6-1.6-35.1 5.7-46 3.2-4.7 11.3-10.7 17.2-12.5 7-2.3 22.5-3.1 22.5-1.3 0 .8-7.4 35.6-16.3 77.4l-16.4 76 16 .3c8.8.1 16.2 0 16.5-.3.5-.4 16.4-73.7 28.4-130.3 4.2-19.8 4.3-20.3 6.6-19.7 1.2.3 7.8 1.5 14.5 2.6 15.4 2.7 29.1 2.3 35.4-.9 7.5-3.9 13.3-13.7 13.3-22.5 0-2.6-.3-2.9-2.2-2.3-14.1 4.1-28.6 4.6-48.8 1.5-15.4-2.3-43.9-3.3-54.5-1.8zm376-.1c-24.9 6.1-39.5 21.1-39.5 40.7 0 11.1 5.5 21 21.7 39.2 11.4 12.7 17.7 20.9 20.9 27.3 8.1 15.9 6.8 36.1-2.8 45.8-6.6 6.5-9 7.5-19.3 7.5-10.8 0-14.4-1.6-19.1-8.7-3.8-5.6-4.9-11.6-3.3-18.7 2-9.5 12.3-17.1 23.1-17.1 4.3 0 4.3.1 2.4-4.3-5.8-14.1-30.2-13.9-42.8.3-10.5 11.7-13.3 31.1-6.5 44.9 4.9 10.2 17.9 18.6 32.4 21.1 10 1.8 27.9.8 36.8-2 13.8-4.3 27.1-14 33.8-24.7 9.6-15.3 10.5-39.9 2.1-56.7-3.7-7.4-7.9-12.3-25.6-29.6-18.5-18.2-20.8-21.9-20.8-33.6 0-8.1 1.6-12.7 5.7-16.6 8.7-8.3 26.4-7.6 31.7 1.3 2.8 4.8 2.4 13.7-.9 20.5-1.5 3-3.6 6-4.6 6.7-2.6 1.6-2.4 2.4 1.4 4.7 4.2 2.6 7.1 2.5 13.4-.4 6.8-3.2 10.3-9 11.1-18.1 1-12.8-4.1-21.5-15.8-26.8-5.9-2.7-7.6-3-19-3.3-6.9-.2-14.3.1-16.5.6zm92 8.2c-7.4 2.7-13 11.3-12.3 18.9 1.2 12.3 14 20 25 15.1 6.7-2.9 10.1-8 10.6-15.6.3-5.4 0-6.6-2.7-10.8-1.6-2.6-4.4-5.4-6-6.3-4.1-2.1-10.9-2.7-14.6-1.3zm306.5 5c-7.4 1-13.6 2-13.8 2.2-.1.2-5.9 26.6-12.8 58.7-6.8 32.1-13.5 61.2-14.8 64.5-3.2 8.3-9.1 17-14 20.6-3.8 2.8-13.7 8-14.2 7.5-.2-.1 4.9-24.3 11.2-53.6 6.3-29.4 11.4-54.1 11.4-54.8 0-1.1-3.1-1.3-16.2-1.1-15.4.3-16.3.4-16.6 2.3-.2 1.1-.8 3.8-1.4 6l-1 4-1.4-4c-1.7-5-4.5-7.1-11.3-8.6-10.7-2.2-24.3 1.5-35.3 9.6-15.1 11.2-28.5 38.2-30.5 61.5-1.4 16.8-12 28.3-22.9 24.8-7.7-2.6-8-8.3-1.5-35 5.4-22.5 6.4-28.8 5.9-37.7-.7-11-4.7-17.3-13.6-21.3-5.3-2.4-16.9-2.6-23.1-.3-4.4 1.5-14.1 8.2-14.1 9.7 0 .4-.5.8-1.1.8-1.1 0-.8-3.1.8-9.8l.5-2.2h-16.6c-9.1 0-16.6.3-16.6.7 0 .5-4 19.5-8.9 42.4-9.9 46.9-9.8 46.7-19.7 51.5-6.3 3.1-11.4 2.8-14.8-.6-3.3-3.3-2.6-9.2 6.8-52.7 4.7-22.1 8.6-40.5 8.6-40.8 0-.3-7.4-.5-16.5-.5s-16.5.3-16.5.7c0 .3-3.6 17.6-8 38.4-9.7 45.8-10.3 49.6-8.9 58 1.8 11.5 8.1 18.6 18.2 20.9 9.4 2.1 23.6-1.9 32.8-9.1 2-1.6 3.9-2.9 4.2-2.9.3 0 .1 1.7-.4 3.7-1.8 7.8-2.8 7.4 15.3 7.1l16.3-.3 8.2-38.8c8.5-39.9 10.3-45.9 16.1-52 5.7-6.1 11.3-7.2 15.9-3.3 2.7 2.4 2.8 2.7 2.7 11.8-.1 7.1-1.1 13.5-4.3 27.1-6.2 26.5-6.8 35.5-2.7 44.1 4.5 9.5 17.3 15 29.6 12.6 10.5-2 18-7.2 26.8-18.5 1.6-2.1 2.5-2.6 2.8-1.7 5.2 12 12.2 18.3 22.4 20 10.8 1.9 23-1.7 30.7-9.1 1.8-1.7 3.5-2.8 3.8-2.5.7.7-2.1 11.8-3.2 12.8-.4.4-3 1.5-5.7 2.3-7.2 2.4-17.4 8.5-22.7 13.4-12.9 12-11.6 30.6 2.6 38 6.1 3.2 15.9 4.1 23.6 2.3 19.3-4.5 28.5-17.9 34.9-50.2 1.1-5.6 1.2-5.7 5.9-7.3 5.4-1.7 14.6-7.1 18.2-10.4 3.2-2.9 3.9-2.6 2.9 1.1-.4 1.8-1.1 4.5-1.4 6l-.6 2.8h16.4c16.2 0 16.4 0 16.9-2.3.4-1.2 4.2-19.2 8.7-40 4.4-20.8 8.9-39.5 9.9-41.6 3-5.8 9.5-11.9 13.5-12.6 4.8-.9 8.8 1.2 10.3 5.5 1.8 5.1.8 13.6-4.4 36.5-5.9 25.7-6.3 35.3-1.9 43.2 4.7 8.6 12 12.5 23.1 12.6 16.9.1 29-9.6 39.2-31 2.3-5.1 4.3-9.8 4.3-10.3 0-.7-1.7-1-4.1-.8-4 .3-4.3.5-7.6 6.8-4.4 8.2-7.7 11.8-12.5 13-4.5 1.3-8.5.4-11.5-2.3-4-3.6-3.5-9.2 4.2-41.2 6.4-26.8 5.7-37.6-2.9-46.1-4.7-4.7-9.8-6.5-18.3-6.5-9.8 0-14.6 1.7-22.4 8.2-2.6 2.2-4.9 3.9-5.2 3.9-.3 0 .1-2.8.9-6.3.8-3.4 3.6-16.4 6.2-29l4.9-22.7-3.1.1c-1.7.1-9.2 1-16.6 2.1zm-89.1 58.3c5.7 2.9 5.7 4.5-.4 33-7.6 35.6-8 36.7-13.2 42.5-5.1 5.7-10.3 7.7-16.1 6.3-7.2-1.7-9.9-10.3-8.2-26.6 1.2-12.3 3.1-19.8 7.7-30.7 8.9-20.9 19.9-29.9 30.2-24.5zm-18.5 118.2c-3.1 14.2-7.1 22.4-11.9 24.8-5.8 2.7-11.4-.9-11.5-7.4 0-6.6 5.9-12.6 18-18 5.8-2.7 6.2-2.6 5.4.6zM689.2 533.8c-1.8 8.6-6.4 30.3-10.2 48.2-16.1 75.9-25 118-25 118.8 0 .7 32.6-6.4 33.8-7.3.1-.1 3-13 6.4-28.8l6.1-28.6 3.9 3.4c4.4 3.7 14 6 20.6 5 15.2-2.5 22.7-6.1 31.2-15.1 13.4-14.3 20.5-34.2 21.7-60.5.9-20.3-2.4-31.7-11.4-38.5-9.5-7.3-25.8-6.5-38.8 1.7-2.6 1.6-4.9 2.8-5.1 2.6-.3-.2.2-3.6 1.1-7.6.8-4 1.5-7.7 1.5-8.2 0-.5-6.8-.9-16.2-.9h-16.3l-3.3 15.8zm50.2 8.7c6.4 3.1 8.5 12.3 6.7 30-3.4 33.7-17.2 54.5-34.6 52.2-4.8-.7-7.8-3.9-7.1-7.6 6.6-32.5 14-64.7 15.2-66.7 1.9-2.8 8.8-7.9 11.9-8.7 3.5-.8 4.6-.7 7.9.8z"/><path d="M598.6 543.7c-2.1 9.8-7.3 34.4-11.6 54.8-4.3 20.3-8.2 38.7-8.5 40.7l-.7 3.8h32.7l9.2-44.3 9.3-44.2 4.2-3.8c4.6-4 9.9-6.1 13.7-5.5 2.8.4 3.7 1.7 5.1 7.5 1.5 5.8 3.2 7.3 8.9 7.3 12.4 0 20-13.6 13.9-25-3.2-5.8-7.3-8.2-14.1-8.1-6.8 0-12.5 2.5-21 9-3.8 2.9-7 5.1-7.2 4.9-.2-.2.2-3.1 1-6.3.8-3.3 1.4-6.6 1.5-7.3 0-.9-3.9-1.2-16.3-1.2h-16.4l-3.7 17.7z"/></g></svg>