<svg version="1.1" id="Layer_1" xmlns="http://www.w3.org/2000/svg" xmlns:xlink="http://www.w3.org/1999/xlink" x="0px" y="0px"
	 width="100%" viewBox="0 0 1080 1077" enable-background="new 0 0 1080 1077" xml:space="preserve">
<path fill="#FEFEFE" opacity="1.000000" stroke="none" 
	d="
M602.000000,1078.000000 
	C401.356476,1078.000000 201.212936,1078.000000 1.034701,1078.000000 
	C1.034701,719.064636 1.034701,360.129242 1.034701,1.096937 
	C360.893738,1.096937 720.787476,1.096937 1080.840576,1.096937 
	C1080.840576,359.999939 1080.840576,718.999939 1080.840576,1078.000000 
	C921.462158,1078.000000 761.981079,1078.000000 602.000000,1078.000000 
M689.996826,883.694031 
	C690.048035,884.151123 690.099243,884.608215 689.995728,885.678284 
	C689.920410,886.092834 689.845093,886.507385 689.032166,886.922607 
	C685.283752,887.429688 686.217590,890.512451 685.205200,893.176270 
	C683.766357,894.730835 682.327515,896.285400 680.222412,897.896362 
	C678.814148,898.983154 677.405945,900.069946 675.563416,901.225647 
	C675.563416,901.225647 675.143738,901.357056 674.442932,901.155945 
	C672.948914,902.353638 671.454895,903.551270 669.306213,904.813171 
	C668.872864,904.879822 668.439575,904.946411 667.350525,904.913696 
	C666.908936,904.917175 666.467407,904.920654 665.520752,904.421814 
	C662.656250,905.580078 659.791748,906.738342 656.001404,907.950439 
	C650.029602,907.925598 644.057861,907.900696 637.917542,907.201782 
	C634.938171,906.447266 631.958801,905.692749 628.313354,904.913574 
	C627.871338,904.951111 627.429260,904.988708 626.558533,904.901611 
	C626.558533,904.901611 626.121094,904.812378 625.936646,904.166443 
	C621.848633,901.946960 617.760681,899.727539 613.007507,897.288391 
	C610.561829,894.949402 608.116089,892.610474 605.812744,889.517883 
	C605.472473,888.588379 605.164307,887.645691 604.786865,886.731567 
	C601.880310,879.692078 598.038879,872.875549 596.312683,865.559143 
	C594.701111,858.728699 595.036316,851.369812 595.022949,844.242615 
	C594.925293,792.264099 594.958069,740.285339 594.943298,688.306702 
	C594.941589,682.104736 593.945068,681.058594 587.691711,681.033508 
	C576.030029,680.986816 564.367981,681.000427 552.706177,681.029968 
	C546.877319,681.044739 546.049927,681.869446 546.049072,687.697571 
	C546.040649,745.507141 545.904358,803.317444 546.232300,861.125183 
	C546.273560,868.406128 548.092957,875.893127 550.330139,882.887451 
	C552.792603,890.585999 556.141357,898.139099 560.152222,905.156433 
	C562.878418,909.926086 567.408325,913.664856 571.663452,917.997009 
	C572.021240,918.069885 572.378967,918.142822 572.875671,918.832153 
	C573.493958,919.326355 574.112244,919.820557 574.788879,920.816162 
	C574.813354,920.982544 574.837891,921.148987 574.930969,921.959717 
	C575.628296,922.633667 576.325684,923.307678 577.550415,924.368164 
	C579.033569,925.579590 580.516663,926.791016 582.082336,928.670105 
	C582.789124,929.041687 583.495972,929.413269 584.899902,929.867493 
	C586.937073,930.906860 588.974304,931.946167 591.071106,933.685425 
	C592.113281,934.388672 593.155518,935.091919 594.949524,935.844788 
	C595.951233,935.922180 596.952942,935.999634 598.060364,936.770264 
	C599.374207,939.279053 600.916504,941.183105 604.770996,939.017273 
	C605.539062,938.950012 606.307129,938.882812 607.515076,938.977417 
	C607.515076,938.977417 607.951050,939.149475 608.055420,939.841980 
	C609.626709,942.909302 611.800110,944.082825 615.838989,942.042969 
	C617.248169,941.990173 618.657410,941.937317 620.001343,942.019531 
	C620.001343,942.019531 619.925293,942.148804 620.136414,942.860229 
	C622.448425,942.667114 624.760498,942.473999 627.990051,942.141479 
	C639.991455,942.010803 651.992859,941.880066 664.636230,941.929260 
	C665.079712,941.927612 665.523132,941.925964 666.821960,942.063477 
	C668.549561,942.053894 670.277161,942.044373 672.492188,942.572083 
	C676.043274,943.671631 678.450317,942.264099 679.987488,938.995911 
	C679.987488,938.995911 679.923950,938.867798 680.730591,939.016357 
	C681.819946,939.007141 682.909241,938.997925 684.421265,939.517700 
	C686.301025,938.379578 688.180725,937.241455 690.738098,935.791077 
	C694.157166,934.518616 697.576172,933.246155 701.361755,932.470520 
	C702.587280,931.334106 703.812744,930.197632 705.643433,928.985413 
	C706.047974,928.944763 706.452515,928.904175 707.564148,928.901855 
	C708.374756,927.932678 709.185303,926.963501 710.558716,925.710205 
	C711.714722,924.814514 712.870789,923.918823 714.730408,923.007690 
	C715.479980,922.328979 716.229492,921.650269 717.442993,920.590576 
	C717.547607,920.023743 717.652222,919.456909 717.957947,918.530457 
	C717.957947,918.530457 718.102661,918.144714 718.777161,918.065308 
	C719.547485,917.070496 720.317749,916.075684 721.000000,915.000000 
	C721.000000,915.000000 721.081238,915.087708 721.764282,915.020630 
	C723.852234,912.686646 725.940186,910.352600 728.732849,907.934937 
	C732.527405,904.853882 735.252991,901.210938 735.090088,895.384155 
	C735.726746,894.589478 736.363403,893.794739 737.649048,892.923462 
	C737.760498,891.948181 737.871948,890.972900 738.051453,889.309143 
	C738.368469,888.206726 738.685425,887.104309 739.712769,885.929260 
	C742.257385,884.854980 742.735352,883.222900 741.041382,880.235107 
	C740.977966,879.469849 740.914551,878.704529 740.970459,877.313599 
	C741.057556,876.898254 741.144653,876.482910 741.883850,875.899048 
	C744.078125,873.294067 746.312317,870.698853 744.043823,866.274048 
	C744.083862,865.542664 744.123840,864.811340 744.885864,863.841980 
	C744.912292,860.890808 744.938721,857.939636 744.966003,854.052612 
	C744.970093,797.375671 744.974121,740.698730 744.994873,683.206848 
	C744.800354,679.745483 742.266418,680.015259 739.902832,680.014893 
	C728.903931,680.013245 717.905090,680.005249 706.906189,680.012878 
	C698.085083,680.018982 696.030090,682.044800 696.028625,690.781616 
	C696.019592,745.109558 696.010437,799.437439 696.053711,853.765381 
	C696.055115,855.507019 696.621765,857.248352 696.945862,859.831421 
	C696.994019,861.234070 697.042114,862.636780 696.996216,864.770508 
	C696.965942,865.506775 696.935730,866.243103 696.432678,867.311035 
	C696.255737,867.854980 696.078857,868.398865 695.199219,869.066650 
	C692.323853,871.111267 691.220947,873.653687 692.982300,877.706177 
	C693.054749,878.171936 693.127258,878.637634 693.063782,879.048340 
	C693.063782,879.048340 692.943237,878.964844 692.284485,879.034485 
	C691.527527,880.357117 690.770569,881.679749 689.996826,883.694031 
M751.309143,423.241669 
	C751.220886,422.505737 751.132629,421.769775 751.053711,421.090149 
	C751.053711,421.090149 751.110779,421.090057 751.794312,420.794647 
	C751.983826,419.668060 752.338684,418.541534 752.339111,417.414917 
	C752.364929,355.426605 752.384521,293.438232 752.297058,231.450043 
	C752.292236,228.016388 752.251038,224.120346 750.724487,221.234070 
	C745.153442,210.700897 735.926025,205.676788 724.042786,205.626160 
	C711.378723,205.572205 698.713928,205.559738 686.050171,205.642090 
	C682.350769,205.666138 681.067139,204.752686 681.130188,200.456268 
	C681.386414,182.977386 681.201355,165.484039 680.764221,148.006409 
	C680.554321,139.612289 677.628296,137.260117 669.257996,137.250412 
	C651.927917,137.230331 634.596863,137.155731 617.268555,137.332138 
	C613.601990,137.369461 612.134766,136.428452 612.394653,132.584625 
	C612.697388,128.105911 612.523193,123.590248 612.454163,119.092178 
	C612.341858,111.775467 610.119812,109.582245 602.866272,109.577866 
	C580.703796,109.564484 558.541260,109.570091 536.378784,109.573158 
	C527.902588,109.574326 525.546631,111.944717 525.540161,120.620239 
	C525.521057,146.115417 525.530396,171.610626 525.533081,197.105820 
	C525.533997,205.644287 525.540161,205.643921 516.897400,205.613800 
	C515.897583,205.610321 514.897217,205.590363 513.898071,205.616623 
	C475.497345,206.626495 437.071014,203.855713 398.657318,207.164551 
	C382.943329,208.518066 367.015839,207.417511 351.185577,207.387024 
	C342.934387,207.371140 339.051453,211.631973 338.507538,217.188828 
	C338.055145,221.810364 338.257812,226.517410 338.452484,231.174789 
	C338.641357,235.693924 342.739105,240.328659 346.438232,240.635483 
	C352.507355,241.138885 356.489532,237.577118 356.592896,231.234375 
	C356.652710,227.562988 356.863464,225.509018 361.873108,226.114517 
	C368.419250,226.905762 375.168762,226.356522 381.801880,225.932098 
	C384.818390,225.739105 386.128326,226.399597 385.209503,229.346222 
	C384.280396,232.326004 383.087219,235.244919 381.766846,238.077271 
	C377.548706,247.125626 373.494080,256.266510 368.856445,265.098694 
	C363.733337,274.855286 359.089386,285.002930 349.822784,291.946564 
	C346.267395,294.610657 343.063599,297.843018 340.099152,301.172241 
	C336.213440,305.536133 331.313385,309.458344 331.310333,316.121887 
	C331.293915,351.948395 331.259796,387.775085 331.405548,423.600983 
	C331.414856,425.890625 332.409576,428.517365 333.762604,430.400482 
	C339.177490,437.936523 346.432068,442.134308 356.031372,441.709442 
	C360.521820,441.510681 365.061646,441.350800 369.511963,441.815765 
	C371.488464,442.022278 374.003906,443.371857 375.031067,444.991364 
	C376.905273,447.946411 377.527832,451.670197 379.245880,454.753845 
	C385.362213,465.731964 395.192505,472.731842 406.979980,475.234131 
	C418.376801,477.653534 430.280457,476.588501 440.104889,468.912384 
	C444.091919,465.797272 447.168030,461.516205 450.746490,457.741547 
	C450.746490,457.741547 450.760223,457.651489 451.430145,457.778687 
	C453.788300,453.873871 457.002747,450.220123 458.243530,445.987732 
	C459.305725,442.364410 460.684265,441.652649 463.975983,441.658661 
	C506.392303,441.736267 548.808899,441.690247 591.225159,441.770752 
	C593.452759,441.774994 595.678772,442.632355 597.987427,443.735168 
	C598.074097,444.158051 598.160767,444.580963 597.665771,445.372742 
	C597.808167,446.652100 597.628601,448.080719 598.142029,449.188019 
	C604.232605,462.322845 614.516418,470.791565 628.105286,475.237335 
	C630.169312,475.912628 632.757568,474.985596 635.967773,474.841614 
	C638.275940,474.815308 640.584045,474.789001 643.201050,475.376648 
	C645.650818,475.263977 648.317749,475.732361 650.504211,474.915222 
	C654.783997,473.315887 659.024963,471.358917 662.871521,468.906219 
	C671.394043,463.471985 677.360107,455.676331 680.247803,446.085724 
	C681.332825,442.481842 682.647095,441.647888 685.916199,441.671539 
	C699.567627,441.770294 713.229614,441.419342 726.867798,441.855865 
	C732.540283,442.037445 737.383789,440.404572 741.736023,437.474854 
	C746.454712,434.298492 750.492188,430.211243 751.309143,423.241669 
M794.065918,894.500000 
	C794.066772,908.331116 794.134277,922.162659 794.028503,935.992981 
	C793.995972,940.244507 795.719788,941.979614 800.004883,941.922180 
	C811.167664,941.772339 822.341187,941.631348 833.495178,941.977356 
	C838.562073,942.134583 840.084167,940.525391 840.046509,935.475403 
	C839.837585,907.481689 839.946289,879.485657 839.945007,851.490417 
	C839.944763,845.658081 839.738281,839.813904 840.079407,834.001770 
	C840.164124,832.557373 841.908325,830.103760 843.066345,829.994995 
	C860.410034,828.367065 875.806946,832.092773 887.852783,845.958191 
	C899.529968,859.399353 906.938721,875.285278 914.467773,891.056091 
	C921.987671,906.807739 928.545837,923.016968 935.721985,938.937195 
	C936.314758,940.252197 938.398010,941.697144 939.808655,941.717651 
	C953.969788,941.924072 968.135193,941.878601 982.299072,941.819763 
	C985.460327,941.806580 986.273804,940.600281 984.843689,937.355896 
	C980.595459,927.718018 976.731140,917.911072 972.700745,908.176880 
	C970.183533,902.097168 967.790222,895.959961 965.068237,889.972717 
	C961.066345,881.169983 956.884338,872.447205 952.663391,863.746460 
	C946.723816,851.503174 940.202698,839.584473 930.825378,829.567078 
	C926.800659,825.267700 922.259583,821.451721 917.536621,817.025879 
	C919.583862,815.726562 921.351257,814.110168 923.430969,813.362366 
	C941.250854,806.954285 952.634460,794.102417 958.633118,776.723755 
	C965.399658,757.120667 964.303711,737.270874 955.315491,718.669434 
	C947.313782,702.109619 933.174377,691.775146 915.624878,686.646423 
	C901.549011,682.532715 886.971313,681.096130 872.335999,681.168152 
	C848.700195,681.284363 825.066406,681.780823 801.431519,682.093628 
	C794.539307,682.184814 794.063049,682.627991 794.063110,689.534729 
	C794.063965,757.523132 794.065002,825.511597 794.065918,894.500000 
M333.589783,928.894714 
	C345.750488,936.281128 358.826538,941.176208 373.075409,941.975586 
	C385.196686,942.655640 397.392090,943.136902 409.499573,942.556213 
	C418.014465,942.147827 426.771088,940.802490 434.818665,938.091248 
	C445.679779,934.432190 455.872437,929.062988 465.168976,921.953003 
	C479.213623,911.211853 488.465485,896.962402 495.356262,881.249817 
	C499.161560,872.572815 501.304077,863.000427 503.025024,853.616882 
	C505.258942,841.436157 507.269592,829.072510 507.675018,816.731750 
	C508.274170,798.495178 507.037537,780.318420 503.176208,762.276489 
	C499.840454,746.690308 494.859833,732.104614 485.859009,718.864746 
	C470.319183,696.006226 448.247528,683.989258 421.481598,680.111816 
	C413.309906,678.927979 404.882629,679.571472 396.578827,679.223999 
	C376.709320,678.392456 358.295227,682.987549 340.973206,692.877686 
	C325.396057,701.771545 313.435089,714.118530 305.012421,729.656555 
	C298.009705,742.574951 292.276764,756.157227 290.604431,771.037903 
	C289.125092,784.201111 286.611755,797.347473 286.398712,810.531067 
	C286.050262,832.091003 287.186554,853.604675 293.888885,874.518982 
	C297.184448,884.802734 301.388458,894.469421 307.211884,903.472656 
	C313.878754,913.779968 322.513428,922.129517 333.589783,928.894714 
M451.500000,561.779541 
	C625.136414,561.779663 798.772766,561.779968 972.409180,561.777954 
	C974.575317,561.777954 976.866211,562.192444 978.877014,561.625916 
	C981.601624,560.858337 984.883362,559.979675 986.557678,557.994446 
	C990.404785,553.433044 990.281799,547.976318 987.649231,542.645630 
	C984.960083,537.200256 980.111023,536.267639 974.666321,536.268066 
	C685.882812,536.290894 397.099335,536.286438 108.315857,536.318909 
	C106.010010,536.319153 103.606766,536.456848 101.419693,537.105652 
	C97.485703,538.272827 93.794075,540.376404 93.360199,544.877991 
	C92.809029,550.596436 91.836029,557.010376 98.342690,560.258057 
	C101.004807,561.586792 104.463043,561.719604 107.559509,561.721497 
	C221.872986,561.789917 336.186493,561.778992 451.500000,561.779541 
M102.656723,716.990601 
	C119.989929,716.988342 137.323135,716.982178 154.656342,716.985840 
	C161.191025,716.987183 161.206009,717.009399 161.205887,723.252319 
	C161.204636,792.751892 161.201111,862.251404 161.208221,931.750977 
	C161.208420,933.579834 161.219528,935.419128 161.404587,937.235291 
	C161.742920,940.555908 163.356705,942.020386 167.005188,941.947571 
	C178.333923,941.721375 189.673065,941.717590 201.001587,941.949280 
	C204.683304,942.024597 206.222183,940.457947 206.598831,937.200012 
	C206.808258,935.388489 206.805176,933.546082 206.805466,931.717590 
	C206.814957,872.884644 206.813522,814.051697 206.812607,755.218750 
	C206.812439,744.718811 206.923798,734.217102 206.761871,723.719604 
	C206.660187,717.128052 206.575165,716.995239 213.056427,716.989685 
	C230.056305,716.975037 247.060760,716.767639 264.053284,717.121643 
	C269.114990,717.227051 271.262299,715.664612 271.877991,710.754272 
	C272.764496,703.684631 273.833557,696.614319 275.322205,689.650574 
	C276.728668,683.071167 276.345490,682.153687 269.735931,682.151184 
	C213.902954,682.130066 158.069916,682.164551 102.237076,682.076233 
	C98.430405,682.070251 96.786377,683.149170 96.890282,687.176758 
	C97.105148,695.504578 97.106102,703.845093 96.905243,712.173340 
	C96.817642,715.805664 97.898712,717.573730 102.656723,716.990601 
M345.500000,617.934998 
	C495.238068,617.934875 644.976135,617.934875 794.714172,617.934631 
	C855.371521,617.934570 916.028809,617.940430 976.686157,617.927246 
	C985.592712,617.925354 989.962158,613.271729 989.943420,603.941284 
	C989.926331,595.428528 985.443054,591.049072 976.692383,591.048401 
	C914.768860,591.043640 852.845337,591.046265 790.921814,591.046265 
	C598.618103,591.046326 406.314392,591.055725 214.010681,591.009216 
	C206.878342,591.007507 199.746307,590.236755 192.613815,590.231018 
	C185.815399,590.225525 179.017609,590.973145 172.217743,591.005249 
	C149.555054,591.112305 126.891418,591.010193 104.228661,591.109375 
	C102.184624,591.118347 100.044456,591.750244 98.120537,592.521118 
	C91.475777,595.183289 93.086243,601.094421 93.037056,606.249084 
	C92.971558,613.112183 97.556313,617.868896 104.252945,617.921936 
	C146.377136,618.255249 188.501358,618.603577 230.626221,618.818481 
	C237.420609,618.853210 244.217484,617.998413 251.014526,617.977417 
	C282.176117,617.881042 313.338135,617.934937 345.500000,617.934998 
z"/>
<path fill="#900C25" opacity="1.000000" stroke="none" 
	d="
M642.892212,474.762695 
	C640.584045,474.789001 638.275940,474.815308 635.451965,474.404724 
	C633.619873,473.646698 632.303528,473.325562 630.919312,472.776855 
	C630.649109,472.220764 630.373169,472.138214 629.602722,472.250549 
	C618.381958,471.049438 611.367798,464.036102 605.084839,456.206238 
	C602.369385,452.822205 600.500732,448.758698 598.247375,445.003845 
	C598.160767,444.580963 598.074097,444.158051 598.028687,442.993195 
	C596.526978,441.412933 594.986389,439.847137 593.440735,439.842224 
	C549.683960,439.703156 505.926697,439.705658 462.169678,439.782135 
	C460.697784,439.784698 458.401672,440.383057 457.895172,441.402161 
	C455.265411,446.693665 453.092377,452.212097 450.760223,457.651489 
	C450.760223,457.651489 450.746490,457.741547 450.355408,457.720032 
	C448.051208,459.249634 445.994873,460.655304 444.248291,462.375488 
	C432.993591,473.460175 413.823303,477.286865 399.585480,470.572784 
	C389.042816,465.601227 380.803528,457.474518 377.580414,446.327301 
	C375.641205,439.620514 372.106384,439.083221 366.847809,438.945404 
	C360.710663,438.784546 354.551636,438.633545 348.454193,437.987122 
	C340.418549,437.135223 332.927795,428.560730 332.923462,420.655609 
	C332.904846,386.840729 332.900452,353.025848 332.946960,319.211060 
	C332.949402,317.428741 332.878174,315.194702 333.842621,313.941803 
	C338.571747,307.798157 342.800476,300.837189 348.777649,296.183685 
	C358.726898,288.437775 364.844391,278.358948 370.299866,267.555176 
	C374.447266,259.341736 378.608551,251.121368 382.335358,242.714233 
	C385.032196,236.630646 387.026794,230.235764 389.749695,222.854263 
	C379.964691,222.854263 371.515839,222.859741 363.066986,222.852585 
	C355.871826,222.846497 355.871826,222.840057 354.814026,230.133621 
	C354.265442,233.916016 350.321930,238.454926 347.606140,238.018600 
	C342.862213,237.256439 341.714355,233.766922 341.770721,229.535187 
	C341.823944,225.538330 341.586395,221.524490 341.874237,217.546906 
	C342.305573,211.586441 344.123230,210.044205 350.081635,209.955460 
	C370.044250,209.658173 390.006500,209.188049 409.969971,209.126938 
	C446.438080,209.015274 482.906952,209.146988 519.375488,209.181473 
	C527.956787,209.189590 527.958557,209.197403 527.957703,200.688721 
	C527.955139,174.536331 527.926453,148.383926 527.960754,122.231583 
	C527.972900,113.004417 529.849731,111.186699 538.987427,111.183899 
	C559.309692,111.177681 579.631897,111.169296 599.954163,111.188194 
	C606.603333,111.194374 609.861145,114.488159 609.945007,121.272774 
	C609.998596,125.603020 609.670532,129.960709 610.076355,134.252884 
	C610.243225,136.018280 611.888794,137.643875 612.964722,139.645798 
	C614.426147,139.757385 615.784485,139.556213 617.598145,139.298935 
	C634.868530,139.429276 651.683716,139.621277 668.498962,139.799500 
	C675.509033,139.873810 679.021423,143.451599 679.028320,150.665817 
	C679.044312,167.499023 679.025452,184.332260 679.027588,201.165482 
	C679.028503,208.688858 679.402466,209.124268 686.853027,209.154831 
	C700.019409,209.208847 713.186523,209.248962 726.352539,209.169052 
	C740.444153,209.083527 750.658264,220.017776 750.682068,234.153854 
	C750.784058,294.653290 750.723145,355.152985 750.743103,415.652588 
	C750.743713,417.465118 750.982788,419.277557 751.110779,421.090057 
	C751.110779,421.090057 751.053711,421.090149 750.690796,421.062073 
	C748.905823,424.031006 747.483826,427.028046 745.748291,430.152893 
	C742.035645,434.106537 738.706177,438.038269 732.741333,438.352875 
	C731.800171,438.756226 731.166443,439.240265 730.094421,439.707031 
	C714.615234,439.703827 699.573792,439.789703 684.533752,439.683258 
	C680.604980,439.655457 678.155396,440.745056 677.974854,445.198334 
	C677.515442,445.871246 677.362549,446.453033 677.098877,447.297028 
	C676.935486,447.933563 676.882812,448.307953 676.506958,448.822388 
	C675.444214,450.636597 674.704712,452.310730 673.673706,454.145996 
	C666.949463,463.164154 659.059143,469.989929 647.761108,472.380920 
	C647.004639,472.599182 646.544678,472.916565 645.683350,473.215332 
	C644.485413,473.718719 643.688843,474.240723 642.892212,474.762695 
M611.027039,159.741699 
	C610.979492,174.557693 610.930969,189.373672 610.885376,204.189667 
	C610.876648,207.020065 611.635437,209.018677 615.092102,209.004791 
	C630.745422,208.941895 646.399048,208.971420 662.052612,208.992065 
	C665.379333,208.996445 666.986633,207.285950 666.993042,204.082397 
	C667.024414,188.428970 667.014160,172.775436 667.009094,157.121948 
	C667.008057,153.926788 665.530945,152.096695 662.190735,152.095657 
	C646.703735,152.090805 631.216309,152.035263 615.730103,152.145203 
	C612.938782,152.165039 610.271423,152.980057 611.652283,157.630615 
	C611.609253,158.120056 611.566223,158.609482 611.027039,159.741699 
M554.500000,340.119751 
	C560.996216,340.122070 567.496826,339.980652 573.987244,340.175262 
	C578.606628,340.313782 580.426941,338.720276 580.400879,333.793396 
	C580.219238,299.480957 580.306763,265.167084 580.298401,230.853668 
	C580.296753,224.078766 579.973938,223.779694 573.326782,223.733353 
	C551.513367,223.581299 529.697876,223.538040 507.888092,223.168182 
	C503.325684,223.090805 502.175079,224.801849 502.185944,228.977036 
	C502.277374,264.123047 502.265106,299.269531 502.180878,334.415588 
	C502.170776,338.629395 503.560669,340.294739 508.027863,340.223969 
	C523.181946,339.983734 538.342163,340.124603 554.500000,340.119751 
M642.500000,340.123474 
	C650.992493,340.130371 659.488708,339.990509 667.975708,340.209900 
	C671.862488,340.310425 673.373108,338.918457 673.364807,335.032135 
	C673.289429,299.730225 673.281555,264.428009 673.341858,229.126068 
	C673.348694,225.136917 672.010254,223.593796 667.776794,223.636566 
	C646.464417,223.851974 625.149170,223.770462 603.834900,223.811615 
	C595.493225,223.827713 595.505127,223.849640 595.501587,232.116806 
	C595.487000,265.753174 595.506653,299.389679 595.406006,333.025818 
	C595.388000,339.054413 596.069885,340.105652 602.034973,340.122620 
	C615.189880,340.160004 628.344971,340.127563 642.500000,340.123474 
M486.275574,261.500000 
	C486.275726,250.676102 486.149323,239.849976 486.339813,229.029434 
	C486.413605,224.838821 485.219940,222.847717 480.671814,223.160904 
	C476.031158,223.480453 471.337219,223.459061 466.693512,223.163803 
	C463.004822,222.929291 461.770630,224.546234 461.223083,227.910614 
	C459.915497,235.945236 458.313416,243.932312 456.802826,251.933411 
	C453.937256,267.111206 450.843964,282.249939 448.257477,297.474915 
	C446.811279,305.987610 444.644379,308.308228 435.940063,308.308319 
	C411.294952,308.308594 386.649200,308.224365 362.005676,308.421448 
	C359.470642,308.441711 356.615723,309.650482 354.481201,311.131866 
	C346.985748,316.333832 345.415161,323.920959 346.001678,332.613342 
	C346.502319,340.032684 346.150269,340.147430 353.582001,340.148987 
	C395.711823,340.157837 437.841827,340.094788 479.971130,340.246063 
	C484.764923,340.263275 486.408875,338.755280 486.372192,333.936859 
	C486.190796,310.125702 486.281311,286.312500 486.275574,261.500000 
M541.963379,159.492966 
	C541.620361,173.147354 541.478149,186.811325 540.828674,200.451111 
	C540.592041,205.419342 542.413513,207.006805 547.060486,206.958160 
	C561.553467,206.806473 576.048706,206.774551 590.542175,206.853195 
	C593.678772,206.870209 594.724121,205.451523 594.710205,202.653168 
	C594.695312,199.653870 594.678894,196.654495 594.685181,193.655197 
	C594.729370,172.493423 594.754395,151.331543 594.851196,130.169983 
	C594.867798,126.531380 594.349487,124.324677 589.639832,124.448799 
	C575.986023,124.808662 562.313049,124.818985 548.657532,124.519279 
	C544.264160,124.422859 542.672485,125.652687 542.654236,130.019699 
	C542.614502,139.512360 542.226379,149.003571 541.963379,159.492966 
M442.815552,242.360275 
	C443.564148,237.435394 444.294464,232.507645 445.068115,227.586700 
	C445.530518,224.645355 444.439484,223.179642 441.344360,223.202103 
	C432.194946,223.268539 423.006989,222.789490 413.914368,223.521194 
	C410.387360,223.804993 405.930603,225.931473 403.929901,228.691711 
	C400.815674,232.988266 399.634247,238.637115 397.284729,243.545822 
	C390.674896,257.355438 383.889679,271.081146 377.166840,284.836639 
	C375.995361,287.233582 374.790924,289.614410 373.645081,291.915558 
	C374.719879,292.589569 374.996277,292.914337 375.273773,292.915283 
	C393.735138,292.979431 412.197174,293.081573 430.656738,292.916077 
	C431.912628,292.904816 433.944000,291.056213 434.260254,289.737335 
	C435.689972,283.774780 436.680145,277.703735 437.739227,271.656128 
	C439.399811,262.174011 440.988434,252.679291 442.815552,242.360275 
M601.921326,416.374451 
	C605.366455,411.397400 607.907227,405.288910 612.436584,401.668213 
	C623.388977,392.913177 635.487488,388.617584 650.190491,393.597107 
	C662.399963,397.732086 670.688965,404.907959 676.031738,416.319977 
	C678.175598,420.899139 678.623108,427.175385 686.313049,426.994965 
	C699.136475,426.694061 711.991455,427.338104 724.795715,426.757904 
	C733.228699,426.375824 738.484497,423.267426 738.161560,412.253754 
	C737.688049,396.104401 738.037109,379.930817 738.039551,363.767578 
	C738.040894,354.919739 738.044495,354.919983 728.936890,354.920135 
	C686.112671,354.920837 643.288391,354.921967 600.464172,354.921936 
	C518.148315,354.921875 435.832397,354.920715 353.516510,354.921356 
	C344.924347,354.921417 344.928375,354.925507 344.930328,363.239227 
	C344.934448,380.735535 345.192566,398.237762 344.790344,415.724792 
	C344.655548,421.584137 348.764343,425.596436 354.051239,425.890442 
	C360.197174,426.232239 366.384186,426.141266 372.535736,425.857056 
	C374.036224,425.787689 376.140747,424.575165 376.800262,423.289490 
	C378.511780,419.952942 379.263153,416.126312 380.955231,412.776917 
	C385.421875,403.935242 392.821014,397.729858 401.821167,394.531281 
	C410.055695,391.604767 418.375977,390.103333 427.869324,393.512726 
	C440.724457,398.129425 449.778473,405.256866 454.136261,418.061218 
	C456.653473,425.457397 458.350952,426.931458 466.381317,426.931671 
	C507.206024,426.932831 548.030701,426.930817 588.855408,426.934570 
	C593.964417,426.935028 598.993469,426.922424 599.997620,420.104370 
	C600.153381,419.047089 601.150635,418.113739 601.921326,416.374451 
M425.907471,407.208435 
	C417.234741,405.226959 408.885590,405.126099 401.129364,410.535431 
	C391.880829,416.985626 386.765564,431.888519 390.909912,441.489288 
	C398.724640,459.592957 417.654755,464.172058 432.484192,454.345093 
	C441.594513,448.307983 445.083435,436.859528 443.039917,427.317993 
	C441.043671,417.997070 435.346344,411.411987 425.907471,407.208435 
M737.989014,239.546616 
	C737.989990,237.714645 738.001831,235.882584 737.989929,234.050705 
	C737.938599,226.150955 733.919556,222.079727 726.132568,222.069687 
	C715.806885,222.056396 705.481140,222.057007 695.155457,222.066849 
	C688.186768,222.073471 687.118591,223.140808 687.115845,230.188431 
	C687.105469,256.835388 687.111328,283.482361 687.111084,310.129303 
	C687.111023,318.289948 687.035767,326.451477 687.136658,334.610901 
	C687.206116,340.225647 689.894531,342.837708 695.370667,342.850006 
	C706.862122,342.875793 718.353760,342.890228 729.845093,342.844086 
	C736.326111,342.818054 737.988708,341.064392 737.989807,334.463135 
	C737.995178,303.152954 737.990173,271.842773 737.989014,239.546616 
M666.538513,424.505432 
	C665.630615,422.928040 664.654175,421.385773 663.825562,419.767761 
	C655.922852,404.335754 636.171021,398.752991 621.414734,410.330109 
	C613.114868,416.841797 607.508057,431.899780 611.503723,441.049469 
	C615.390137,449.948914 621.115173,457.185699 631.789062,459.663025 
	C642.390625,462.123535 653.304260,458.959381 660.234253,450.883881 
	C666.813354,443.217224 667.626831,434.610229 666.538513,424.505432 
z"/>
<path fill="#FF948D" opacity="1.000000" stroke="none" 
	d="
M794.065979,894.000000 
	C794.065002,825.511597 794.063965,757.523132 794.063110,689.534729 
	C794.063049,682.627991 794.539307,682.184814 801.431519,682.093628 
	C825.066406,681.780823 848.700195,681.284363 872.335999,681.168152 
	C886.971313,681.096130 901.549011,682.532715 915.624878,686.646423 
	C933.174377,691.775146 947.313782,702.109619 955.315491,718.669434 
	C964.303711,737.270874 965.399658,757.120667 958.633118,776.723755 
	C952.634460,794.102417 941.250854,806.954285 923.430969,813.362366 
	C921.351257,814.110168 919.583862,815.726562 917.536621,817.025879 
	C922.259583,821.451721 926.800659,825.267700 930.825378,829.567078 
	C940.202698,839.584473 946.723816,851.503174 952.663391,863.746460 
	C956.884338,872.447205 961.066345,881.169983 965.068237,889.972717 
	C967.790222,895.959961 970.183533,902.097168 972.700745,908.176880 
	C976.731140,917.911072 980.595459,927.718018 984.843689,937.355896 
	C986.273804,940.600281 985.460327,941.806580 982.299072,941.819763 
	C968.135193,941.878601 953.969788,941.924072 939.808655,941.717651 
	C938.398010,941.697144 936.314758,940.252197 935.721985,938.937195 
	C928.545837,923.016968 921.987671,906.807739 914.467773,891.056091 
	C906.938721,875.285278 899.529968,859.399353 887.852783,845.958191 
	C875.806946,832.092773 860.410034,828.367065 843.066345,829.994995 
	C841.908325,830.103760 840.164124,832.557373 840.079407,834.001770 
	C839.738281,839.813904 839.944763,845.658081 839.945007,851.490417 
	C839.946289,879.485657 839.837585,907.481689 840.046509,935.475403 
	C840.084167,940.525391 838.562073,942.134583 833.495178,941.977356 
	C822.341187,941.631348 811.167664,941.772339 800.004883,941.922180 
	C795.719788,941.979614 793.995972,940.244507 794.028503,935.992981 
	C794.134277,922.162659 794.066772,908.331116 794.065979,894.000000 
M839.938416,748.500000 
	C839.934143,762.659363 840.016418,776.819702 839.866516,790.977539 
	C839.827820,794.638245 841.050659,796.037781 844.773315,795.962708 
	C853.931702,795.778076 863.100403,796.060791 872.256836,795.831360 
	C882.011475,795.586914 891.385742,793.431519 899.690430,788.114075 
	C908.254761,782.630432 911.812378,774.020142 913.388062,764.392273 
	C915.377319,752.237305 912.898438,740.835022 906.125610,730.766541 
	C898.268555,719.086365 885.782227,715.316895 872.631775,714.176453 
	C863.536499,713.387634 854.315063,714.170044 845.161438,713.883789 
	C840.799072,713.747314 839.777893,715.559937 839.866211,719.515808 
	C840.074341,728.839783 839.936279,738.171448 839.938416,748.500000 
z"/>
<path fill="#FF948D" opacity="1.000000" stroke="none" 
	d="
M333.237152,928.791626 
	C322.513428,922.129517 313.878754,913.779968 307.211884,903.472656 
	C301.388458,894.469421 297.184448,884.802734 293.888885,874.518982 
	C287.186554,853.604675 286.050262,832.091003 286.398712,810.531067 
	C286.611755,797.347473 289.125092,784.201111 290.604431,771.037903 
	C292.276764,756.157227 298.009705,742.574951 305.012421,729.656555 
	C313.435089,714.118530 325.396057,701.771545 340.973206,692.877686 
	C358.295227,682.987549 376.709320,678.392456 396.578827,679.223999 
	C404.882629,679.571472 413.309906,678.927979 421.481598,680.111816 
	C448.247528,683.989258 470.319183,696.006226 485.859009,718.864746 
	C494.859833,732.104614 499.840454,746.690308 503.176208,762.276489 
	C507.037537,780.318420 508.274170,798.495178 507.675018,816.731750 
	C507.269592,829.072510 505.258942,841.436157 503.025024,853.616882 
	C501.304077,863.000427 499.161560,872.572815 495.356262,881.249817 
	C488.465485,896.962402 479.213623,911.211853 465.168976,921.953003 
	C455.872437,929.062988 445.679779,934.432190 434.818665,938.091248 
	C426.771088,940.802490 418.014465,942.147827 409.499573,942.556213 
	C397.392090,943.136902 385.196686,942.655640 373.075409,941.975586 
	C358.826538,941.176208 345.750488,936.281128 333.237152,928.791626 
M458.086273,802.510376 
	C458.119324,786.473755 455.987793,770.645142 450.751465,755.569458 
	C447.988251,747.613953 443.385834,740.034302 438.385498,733.181152 
	C431.096313,723.190918 420.582642,717.665955 408.421204,715.201416 
	C396.385284,712.762268 384.465729,713.234985 373.221558,717.968689 
	C359.295502,723.831543 350.567566,735.197449 345.660248,749.029846 
	C342.269073,758.588745 340.429291,768.725647 338.256256,778.682800 
	C334.636261,795.270020 335.655579,812.138855 336.236755,828.888672 
	C336.544983,837.772156 337.905487,846.777588 340.105621,855.392273 
	C342.294983,863.964661 345.436493,872.467407 349.427277,880.360229 
	C353.961975,889.328796 361.202271,896.255493 370.109833,901.262085 
	C380.620331,907.169739 391.970917,908.620544 403.784027,908.042603 
	C415.479492,907.470276 425.641235,903.226990 434.364380,895.512512 
	C446.514618,884.767212 451.418182,870.173462 454.812286,855.106873 
	C458.632202,838.149902 458.478455,820.803833 458.086273,802.510376 
M463.440063,920.025940 
	C468.067078,915.566528 472.694061,911.107117 477.847595,906.140259 
	C465.708557,900.923950 454.515472,897.343933 442.417786,896.923889 
	C438.317932,896.781555 435.145874,898.018005 431.928864,900.447937 
	C426.183563,904.787415 419.917786,908.364807 412.587799,909.225952 
	C407.345154,909.841858 402.051697,910.025146 398.031433,910.312134 
	C392.297028,920.262146 386.904083,929.619690 380.954315,939.943420 
	C383.992065,940.441589 385.675934,940.937256 387.365295,940.956909 
	C394.862915,941.044067 402.495453,941.868408 409.823425,940.750183 
	C417.220673,939.621460 425.629700,939.926270 431.004578,932.826172 
	C431.344421,932.377319 432.173126,932.079041 432.773132,932.081116 
	C437.579102,932.097839 441.777191,928.223511 446.873505,929.916626 
	C447.493103,930.122437 448.486359,929.602661 449.159515,929.183228 
	C453.756989,926.318726 458.315277,923.391296 463.440063,920.025940 
M460.843384,855.000366 
	C456.486908,854.598633 456.486328,857.532959 455.880432,860.714478 
	C454.986053,865.410645 453.754242,870.172180 451.778778,874.500977 
	C449.102661,880.364868 445.586884,885.845581 442.076172,892.125916 
	C443.992859,892.443909 445.663239,892.919739 447.345917,892.968201 
	C459.290741,893.312744 471.237518,893.602356 483.185486,893.798096 
	C484.240631,893.815369 485.780029,893.345947 486.285614,892.573242 
	C488.055664,889.868286 489.721619,887.035706 490.962006,884.057800 
	C492.756561,879.749634 493.713806,875.055054 495.799561,870.913818 
	C499.825623,862.920166 495.585358,855.081665 486.745087,855.013794 
	C478.420715,854.949829 470.095428,855.000061 460.843384,855.000366 
M388.457153,911.288818 
	C389.036133,911.400879 389.615082,911.512939 390.194061,911.625000 
	C390.199188,911.214294 390.204315,910.803528 390.209412,910.392822 
	C389.627655,910.490601 389.045868,910.588379 388.457153,911.288818 
z"/>
<path fill="#FF968F" opacity="1.000000" stroke="none" 
	d="
M451.000000,561.779175 
	C336.186493,561.778992 221.872986,561.789917 107.559509,561.721497 
	C104.463043,561.719604 101.004807,561.586792 98.342690,560.258057 
	C91.836029,557.010376 92.809029,550.596436 93.360199,544.877991 
	C93.794075,540.376404 97.485703,538.272827 101.419693,537.105652 
	C103.606766,536.456848 106.010010,536.319153 108.315857,536.318909 
	C397.099335,536.286438 685.882812,536.290894 974.666321,536.268066 
	C980.111023,536.267639 984.960083,537.200256 987.649231,542.645630 
	C990.281799,547.976318 990.404785,553.433044 986.557678,557.994446 
	C984.883362,559.979675 981.601624,560.858337 978.877014,561.625916 
	C976.866211,562.192444 974.575317,561.777954 972.409180,561.777954 
	C798.772766,561.779968 625.136414,561.779663 451.000000,561.779175 
z"/>
<path fill="#FF928B" opacity="1.000000" stroke="none" 
	d="
M102.179443,716.992859 
	C97.898712,717.573730 96.817642,715.805664 96.905243,712.173340 
	C97.106102,703.845093 97.105148,695.504578 96.890282,687.176758 
	C96.786377,683.149170 98.430405,682.070251 102.237076,682.076233 
	C158.069916,682.164551 213.902954,682.130066 269.735931,682.151184 
	C276.345490,682.153687 276.728668,683.071167 275.322205,689.650574 
	C273.833557,696.614319 272.764496,703.684631 271.877991,710.754272 
	C271.262299,715.664612 269.114990,717.227051 264.053284,717.121643 
	C247.060760,716.767639 230.056305,716.975037 213.056427,716.989685 
	C206.575165,716.995239 206.660187,717.128052 206.761871,723.719604 
	C206.923798,734.217102 206.812439,744.718811 206.812607,755.218750 
	C206.813522,814.051697 206.814957,872.884644 206.805466,931.717590 
	C206.805176,933.546082 206.808258,935.388489 206.598831,937.200012 
	C206.222183,940.457947 204.683304,942.024597 201.001587,941.949280 
	C189.673065,941.717590 178.333923,941.721375 167.005188,941.947571 
	C163.356705,942.020386 161.742920,940.555908 161.404587,937.235291 
	C161.219528,935.419128 161.208420,933.579834 161.208221,931.750977 
	C161.201111,862.251404 161.204636,792.751892 161.205887,723.252319 
	C161.206009,717.009399 161.191025,716.987183 154.656342,716.985840 
	C137.323135,716.982178 119.989929,716.988342 102.179443,716.992859 
z"/>
<path fill="#FF918A" opacity="1.000000" stroke="none" 
	d="
M668.006226,905.013000 
	C668.439575,904.946411 668.872864,904.879822 669.809448,905.087769 
	C674.010803,906.545471 674.552368,903.921204 675.143738,901.357056 
	C675.143738,901.357056 675.563416,901.225647 676.002991,901.428040 
	C677.924622,900.366882 679.406616,899.103394 680.888672,897.839905 
	C682.327515,896.285400 683.766357,894.730835 685.847717,893.031250 
	C687.981201,891.116821 691.457947,890.439392 689.769775,886.921936 
	C689.845093,886.507385 689.920410,886.092834 690.391479,885.326294 
	C691.541931,883.648071 692.296692,882.321899 693.055664,880.656006 
	C693.020935,879.865784 692.982056,879.415344 692.943237,878.964844 
	C692.943237,878.964844 693.063782,879.048340 693.455933,878.987183 
	C697.108582,875.517395 699.665771,871.928833 696.905457,866.979370 
	C696.935730,866.243103 696.965942,865.506775 697.394348,864.334717 
	C698.853760,860.380188 700.826965,856.864807 700.839783,853.342346 
	C701.037781,799.020813 701.043884,744.698181 700.879944,690.376404 
	C700.864624,685.299072 702.356140,683.706421 707.406189,683.886230 
	C717.391602,684.241699 727.408630,684.264038 737.391907,683.882080 
	C742.172424,683.699219 743.148438,685.340576 743.136230,689.803467 
	C742.990723,742.958923 743.031006,796.114868 743.076782,849.270630 
	C743.078430,851.180054 743.639282,853.088928 743.952393,855.365479 
	C743.942078,856.466064 743.918945,857.199158 743.540405,858.023560 
	C740.493225,863.138794 738.964111,868.326355 740.962158,874.356140 
	C741.061768,875.158447 741.146729,875.612976 741.231689,876.067566 
	C741.144653,876.482910 741.057556,876.898254 740.573486,877.702393 
	C739.100891,880.208252 737.912598,882.276611 736.973022,884.452393 
	C734.990112,889.043640 733.472290,893.867798 731.148315,898.271667 
	C728.103699,904.041138 724.464661,909.497009 721.081299,915.087769 
	C721.081238,915.087708 721.000000,915.000000 720.688232,915.035461 
	C719.618530,916.095520 718.860596,917.120117 718.102661,918.144714 
	C718.102661,918.144714 717.957947,918.530457 717.509399,918.729675 
	C715.847290,919.407837 714.446167,919.641846 713.449402,920.404297 
	C704.912476,926.934448 695.898621,932.447693 685.331665,935.181702 
	C683.344238,935.695984 681.717224,937.603333 679.923950,938.867798 
	C679.923950,938.867798 679.987488,938.995911 679.689453,938.979736 
	C678.934692,938.930176 678.477905,938.896729 677.730591,938.605652 
	C672.955566,937.422607 669.030945,938.293457 665.966614,941.924316 
	C665.523132,941.925964 665.079712,941.927612 664.312073,941.441528 
	C664.221069,937.919556 662.174072,937.983398 660.061890,937.989197 
	C650.599182,938.015198 641.135071,937.915405 631.674072,938.047791 
	C628.534424,938.091736 626.712463,937.482117 625.365295,934.076111 
	C619.753967,919.889282 609.566406,909.996094 595.678101,903.706726 
	C586.949280,899.753845 577.916992,898.093567 568.350464,897.770264 
	C564.302490,897.633423 562.002808,898.049072 560.695557,901.788818 
	C558.932922,897.719543 557.442566,893.866211 556.304688,890.043823 
	C557.814514,890.925049 558.971924,891.775330 559.634216,892.261902 
	C562.820496,891.797791 565.562195,891.420471 568.296509,890.995911 
	C575.932922,889.809937 583.592407,888.745178 591.187622,887.335571 
	C594.108154,886.793640 597.009705,885.585632 597.489258,881.846924 
	C598.719543,883.198669 599.455566,884.603088 600.515808,885.691772 
	C602.115173,887.334106 603.940918,888.755920 605.670410,890.271484 
	C608.116089,892.610474 610.561829,894.949402 613.462036,897.693726 
	C615.589294,899.419922 617.261963,900.740845 618.995117,902.399414 
	C620.156494,904.685242 621.087524,907.002075 624.357544,905.020630 
	C625.183044,904.954895 625.652100,904.883667 626.121094,904.812378 
	C626.121094,904.812378 626.558533,904.901611 626.812500,905.321533 
	C628.583679,908.899719 630.782104,910.012146 634.412354,908.055298 
	C635.909241,907.998108 636.997681,907.936951 638.086060,907.875793 
	C644.057861,907.900696 650.029602,907.925598 656.867554,907.997498 
	C658.820679,908.056274 659.907776,908.067993 661.234985,908.328918 
	C664.799316,909.491150 666.722229,907.837341 668.006226,905.013000 
z"/>
<path fill="#FFBBB8" opacity="1.000000" stroke="none" 
	d="
M345.000000,617.934937 
	C313.338135,617.934937 282.176117,617.881042 251.014526,617.977417 
	C244.217484,617.998413 237.420609,618.853210 230.626221,618.818481 
	C188.501358,618.603577 146.377136,618.255249 104.252945,617.921936 
	C97.556313,617.868896 92.971558,613.112183 93.037056,606.249084 
	C93.086243,601.094421 91.475777,595.183289 98.120537,592.521118 
	C100.044456,591.750244 102.184624,591.118347 104.228661,591.109375 
	C126.891418,591.010193 149.555054,591.112305 172.217743,591.005249 
	C179.017609,590.973145 185.815399,590.225525 192.613815,590.231018 
	C199.746307,590.236755 206.878342,591.007507 214.010681,591.009216 
	C406.314392,591.055725 598.618103,591.046326 790.921814,591.046265 
	C852.845337,591.046265 914.768860,591.043640 976.692383,591.048401 
	C985.443054,591.049072 989.926331,595.428528 989.943420,603.941284 
	C989.962158,613.271729 985.592712,617.925354 976.686157,617.927246 
	C916.028809,617.940430 855.371521,617.934570 794.714172,617.934631 
	C644.976135,617.934875 495.238068,617.934875 345.000000,617.934937 
M907.500000,614.051147 
	C931.328796,614.050537 955.159302,613.894775 978.984924,614.169983 
	C984.239136,614.230713 985.675171,611.779541 986.021973,607.442017 
	C986.901062,596.447632 985.533142,594.960205 974.534912,594.960022 
	C717.581848,594.955627 460.628723,594.950134 203.675644,594.946594 
	C170.515030,594.946167 137.354050,594.892334 104.194618,595.091553 
	C101.774216,595.106079 98.066437,596.374695 97.235535,598.135437 
	C95.752365,601.278259 94.938187,605.530823 95.816017,608.787964 
	C96.857376,612.651978 100.401299,614.193970 105.146400,614.191162 
	C372.264221,614.033264 639.382080,614.050964 907.500000,614.051147 
z"/>
<path fill="#C07782" opacity="1.000000" stroke="none" 
	d="
M751.452515,420.942352 
	C750.982788,419.277557 750.743713,417.465118 750.743103,415.652588 
	C750.723145,355.152985 750.784058,294.653290 750.682068,234.153854 
	C750.658264,220.017776 740.444153,209.083527 726.352539,209.169052 
	C713.186523,209.248962 700.019409,209.208847 686.853027,209.154831 
	C679.402466,209.124268 679.028503,208.688858 679.027588,201.165482 
	C679.025452,184.332260 679.044312,167.499023 679.028320,150.665817 
	C679.021423,143.451599 675.509033,139.873810 668.498962,139.799500 
	C651.683716,139.621277 634.868530,139.429276 617.178650,139.180740 
	C615.156555,139.190125 614.009094,139.261597 612.861694,139.333069 
	C611.888794,137.643875 610.243225,136.018280 610.076355,134.252884 
	C609.670532,129.960709 609.998596,125.603020 609.945007,121.272774 
	C609.861145,114.488159 606.603333,111.194374 599.954163,111.188194 
	C579.631897,111.169296 559.309692,111.177681 538.987427,111.183899 
	C529.849731,111.186699 527.972900,113.004417 527.960754,122.231583 
	C527.926453,148.383926 527.955139,174.536331 527.957703,200.688721 
	C527.958557,209.197403 527.956787,209.189590 519.375488,209.181473 
	C482.906952,209.146988 446.438080,209.015274 409.969971,209.126938 
	C390.006500,209.188049 370.044250,209.658173 350.081635,209.955460 
	C344.123230,210.044205 342.305573,211.586441 341.874237,217.546906 
	C341.586395,221.524490 341.823944,225.538330 341.770721,229.535187 
	C341.714355,233.766922 342.862213,237.256439 347.606140,238.018600 
	C350.321930,238.454926 354.265442,233.916016 354.814026,230.133621 
	C355.871826,222.840057 355.871826,222.846497 363.066986,222.852585 
	C371.515839,222.859741 379.964691,222.854263 389.749695,222.854263 
	C387.026794,230.235764 385.032196,236.630646 382.335358,242.714233 
	C378.608551,251.121368 374.447266,259.341736 370.299866,267.555176 
	C364.844391,278.358948 358.726898,288.437775 348.777649,296.183685 
	C342.800476,300.837189 338.571747,307.798157 333.842621,313.941803 
	C332.878174,315.194702 332.949402,317.428741 332.946960,319.211060 
	C332.900452,353.025848 332.904846,386.840729 332.923462,420.655609 
	C332.927795,428.560730 340.418549,437.135223 348.454193,437.987122 
	C354.551636,438.633545 360.710663,438.784546 366.847809,438.945404 
	C372.106384,439.083221 375.641205,439.620514 377.580414,446.327301 
	C380.803528,457.474518 389.042816,465.601227 399.585480,470.572784 
	C413.823303,477.286865 432.993591,473.460175 444.248291,462.375488 
	C445.994873,460.655304 448.051208,459.249634 450.311462,457.732117 
	C447.168030,461.516205 444.091919,465.797272 440.104889,468.912384 
	C430.280457,476.588501 418.376801,477.653534 406.979980,475.234131 
	C395.192505,472.731842 385.362213,465.731964 379.245880,454.753845 
	C377.527832,451.670197 376.905273,447.946411 375.031067,444.991364 
	C374.003906,443.371857 371.488464,442.022278 369.511963,441.815765 
	C365.061646,441.350800 360.521820,441.510681 356.031372,441.709442 
	C346.432068,442.134308 339.177490,437.936523 333.762604,430.400482 
	C332.409576,428.517365 331.414856,425.890625 331.405548,423.600983 
	C331.259796,387.775085 331.293915,351.948395 331.310333,316.121887 
	C331.313385,309.458344 336.213440,305.536133 340.099152,301.172241 
	C343.063599,297.843018 346.267395,294.610657 349.822784,291.946564 
	C359.089386,285.002930 363.733337,274.855286 368.856445,265.098694 
	C373.494080,256.266510 377.548706,247.125626 381.766846,238.077271 
	C383.087219,235.244919 384.280396,232.326004 385.209503,229.346222 
	C386.128326,226.399597 384.818390,225.739105 381.801880,225.932098 
	C375.168762,226.356522 368.419250,226.905762 361.873108,226.114517 
	C356.863464,225.509018 356.652710,227.562988 356.592896,231.234375 
	C356.489532,237.577118 352.507355,241.138885 346.438232,240.635483 
	C342.739105,240.328659 338.641357,235.693924 338.452484,231.174789 
	C338.257812,226.517410 338.055145,221.810364 338.507538,217.188828 
	C339.051453,211.631973 342.934387,207.371140 351.185577,207.387024 
	C367.015839,207.417511 382.943329,208.518066 398.657318,207.164551 
	C437.071014,203.855713 475.497345,206.626495 513.898071,205.616623 
	C514.897217,205.590363 515.897583,205.610321 516.897400,205.613800 
	C525.540161,205.643921 525.533997,205.644287 525.533081,197.105820 
	C525.530396,171.610626 525.521057,146.115417 525.540161,120.620239 
	C525.546631,111.944717 527.902588,109.574326 536.378784,109.573158 
	C558.541260,109.570091 580.703796,109.564484 602.866272,109.577866 
	C610.119812,109.582245 612.341858,111.775467 612.454163,119.092178 
	C612.523193,123.590248 612.697388,128.105911 612.394653,132.584625 
	C612.134766,136.428452 613.601990,137.369461 617.268555,137.332138 
	C634.596863,137.155731 651.927917,137.230331 669.257996,137.250412 
	C677.628296,137.260117 680.554321,139.612289 680.764221,148.006409 
	C681.201355,165.484039 681.386414,182.977386 681.130188,200.456268 
	C681.067139,204.752686 682.350769,205.666138 686.050171,205.642090 
	C698.713928,205.559738 711.378723,205.572205 724.042786,205.626160 
	C735.926025,205.676788 745.153442,210.700897 750.724487,221.234070 
	C752.251038,224.120346 752.292236,228.016388 752.297058,231.450043 
	C752.384521,293.438232 752.364929,355.426605 752.339111,417.414917 
	C752.338684,418.541534 751.983826,419.668060 751.452515,420.942352 
z"/>
<path fill="#FA8E88" opacity="1.000000" stroke="none" 
	d="
M560.967896,902.004700 
	C562.002808,898.049072 564.302490,897.633423 568.350464,897.770264 
	C577.916992,898.093567 586.949280,899.753845 595.678101,903.706726 
	C609.566406,909.996094 619.753967,919.889282 625.365295,934.076111 
	C626.712463,937.482117 628.534424,938.091736 631.674072,938.047791 
	C641.135071,937.915405 650.599182,938.015198 660.061890,937.989197 
	C662.174072,937.983398 664.221069,937.919556 663.991089,941.351562 
	C651.992859,941.880066 639.991455,942.010803 627.095703,942.092529 
	C624.109314,942.078674 622.017273,942.113770 619.925293,942.148804 
	C619.925293,942.148804 620.001343,942.019531 619.953247,941.606445 
	C616.599060,940.430481 613.292847,939.667664 609.644287,938.920898 
	C608.851562,939.007812 608.401306,939.078613 607.951050,939.149414 
	C607.951050,939.149475 607.515076,938.977417 607.214600,938.569702 
	C604.518433,936.822205 602.156982,935.416138 599.719849,934.156677 
	C594.962891,931.698486 590.129944,929.385986 585.394409,926.888245 
	C582.534058,925.379517 579.797729,923.635559 576.805542,921.767456 
	C576.024414,921.463623 575.443420,921.389526 574.862427,921.315430 
	C574.837891,921.148987 574.813354,920.982544 574.812866,920.197632 
	C574.136780,919.124573 573.436768,918.670166 572.736755,918.215698 
	C572.378967,918.142822 572.021240,918.069885 571.355103,917.604004 
	C570.355347,915.827332 569.663940,914.443665 568.976807,912.696777 
	C568.299805,911.563965 567.618469,910.794312 566.636963,909.874329 
	C564.547180,907.150940 562.757507,904.577820 560.967896,902.004700 
z"/>
<path fill="#FDCBC9" opacity="1.000000" stroke="none" 
	d="
M568.972473,913.059998 
	C569.663940,914.443665 570.355347,915.827332 571.089233,917.537842 
	C567.408325,913.664856 562.878418,909.926086 560.152222,905.156433 
	C556.141357,898.139099 552.792603,890.585999 550.330139,882.887451 
	C548.092957,875.893127 546.273560,868.406128 546.232300,861.125183 
	C545.904358,803.317444 546.040649,745.507141 546.049072,687.697571 
	C546.049927,681.869446 546.877319,681.044739 552.706177,681.029968 
	C564.367981,681.000427 576.030029,680.986816 587.691711,681.033508 
	C593.945068,681.058594 594.941589,682.104736 594.943298,688.306702 
	C594.958069,740.285339 594.925293,792.264099 595.022949,844.242615 
	C595.036316,851.369812 594.701111,858.728699 596.312683,865.559143 
	C598.038879,872.875549 601.880310,879.692078 604.786865,886.731567 
	C605.164307,887.645691 605.472473,888.588379 605.741577,889.894653 
	C603.940918,888.755920 602.115173,887.334106 600.515808,885.691772 
	C599.455566,884.603088 598.719543,883.198669 597.479370,881.473267 
	C595.623230,874.772949 592.230225,868.859436 593.836182,861.848511 
	C593.651550,861.308716 593.422729,861.100281 593.091736,860.618408 
	C593.038025,859.507446 592.998108,858.767090 592.983032,857.619507 
	C592.660278,855.476440 592.312561,853.740417 591.969604,851.608887 
	C591.955505,850.158936 591.936584,849.104492 591.956055,847.577271 
	C591.995422,794.624878 592.016968,742.145203 591.914368,689.665771 
	C591.910706,687.767029 590.686707,685.870667 589.645935,683.811584 
	C578.587280,683.460205 567.914734,683.208862 557.240784,683.127686 
	C554.824463,683.109253 552.403564,683.682068 549.586121,684.070801 
	C548.788025,685.660889 548.040894,687.162476 548.039368,688.664917 
	C547.984192,743.600281 547.965088,798.535828 548.088379,853.471008 
	C548.095581,856.648254 549.337097,859.822754 550.006409,863.450562 
	C551.421631,872.043396 552.803711,880.189819 554.306885,888.313904 
	C554.426392,888.959595 555.384094,889.450134 555.952271,890.012817 
	C557.442566,893.866211 558.932922,897.719543 560.695557,901.788818 
	C562.757507,904.577820 564.547180,907.150940 566.674866,910.196167 
	C567.666077,911.465515 568.319275,912.262756 568.972473,913.059998 
z"/>
<path fill="#FEB3AF" opacity="1.000000" stroke="none" 
	d="
M743.939514,854.998047 
	C743.639282,853.088928 743.078430,851.180054 743.076782,849.270630 
	C743.031006,796.114868 742.990723,742.958923 743.136230,689.803467 
	C743.148438,685.340576 742.172424,683.699219 737.391907,683.882080 
	C727.408630,684.264038 717.391602,684.241699 707.406189,683.886230 
	C702.356140,683.706421 700.864624,685.299072 700.879944,690.376404 
	C701.043884,744.698181 701.037781,799.020813 700.839783,853.342346 
	C700.826965,856.864807 698.853760,860.380188 697.441345,863.969116 
	C697.042114,862.636780 696.994019,861.234070 697.241211,859.148438 
	C698.028625,853.370056 698.937927,848.275513 698.948303,843.179077 
	C699.052795,791.890686 699.006042,740.602112 699.013184,689.313538 
	C699.014099,682.678101 699.613098,682.064941 706.060120,682.053406 
	C716.883972,682.034119 727.709778,681.947144 738.530090,682.143921 
	C740.690125,682.183167 742.829346,683.366150 744.978149,684.021790 
	C744.974121,740.698730 744.970093,797.375671 744.709351,854.523376 
	C744.281555,854.995422 744.110535,854.996765 743.939514,854.998047 
z"/>
<path fill="#FEE1DF" opacity="1.000000" stroke="none" 
	d="
M744.986511,683.614319 
	C742.829346,683.366150 740.690125,682.183167 738.530090,682.143921 
	C727.709778,681.947144 716.883972,682.034119 706.060120,682.053406 
	C699.613098,682.064941 699.014099,682.678101 699.013184,689.313538 
	C699.006042,740.602112 699.052795,791.890686 698.948303,843.179077 
	C698.937927,848.275513 698.028625,853.370056 697.230713,858.727661 
	C696.621765,857.248352 696.055115,855.507019 696.053711,853.765381 
	C696.010437,799.437439 696.019592,745.109558 696.028625,690.781616 
	C696.030090,682.044800 698.085083,680.018982 706.906189,680.012878 
	C717.905090,680.005249 728.903931,680.013245 739.902832,680.014893 
	C742.266418,680.015259 744.800354,679.745483 744.986511,683.614319 
z"/>
<path fill="#C07782" opacity="1.000000" stroke="none" 
	d="
M676.830139,448.682312 
	C676.882812,448.307953 676.935486,447.933563 677.357178,447.258362 
	C677.911194,446.340729 678.096252,445.723969 678.281311,445.107208 
	C678.155396,440.745056 680.604980,439.655457 684.533752,439.683258 
	C699.573792,439.789703 714.615234,439.703827 730.427734,439.768402 
	C731.815796,439.375885 732.432373,438.904724 733.048889,438.433533 
	C738.706177,438.038269 742.035645,434.106537 746.083313,430.089600 
	C748.181213,427.921936 749.630615,425.945374 751.080078,423.968811 
	C750.492188,430.211243 746.454712,434.298492 741.736023,437.474854 
	C737.383789,440.404572 732.540283,442.037445 726.867798,441.855865 
	C713.229614,441.419342 699.567627,441.770294 685.916199,441.671539 
	C682.647095,441.647888 681.332825,442.481842 680.247803,446.085724 
	C677.360107,455.676331 671.394043,463.471985 662.871521,468.906219 
	C659.024963,471.358917 654.783997,473.315887 650.504211,474.915222 
	C648.317749,475.732361 645.650818,475.263977 643.046631,475.069702 
	C643.688843,474.240723 644.485413,473.718719 645.843262,473.396057 
	C646.955566,473.223602 647.506592,472.851807 648.057556,472.480042 
	C659.059143,469.989929 666.949463,463.164154 674.028687,454.094910 
	C675.393433,452.149170 676.111755,450.415741 676.830139,448.682312 
z"/>
<path fill="#C07782" opacity="1.000000" stroke="none" 
	d="
M451.095184,457.715088 
	C453.092377,452.212097 455.265411,446.693665 457.895172,441.402161 
	C458.401672,440.383057 460.697784,439.784698 462.169678,439.782135 
	C505.926697,439.705658 549.683960,439.703156 593.440735,439.842224 
	C594.986389,439.847137 596.526978,441.412933 597.987732,442.671875 
	C595.678772,442.632355 593.452759,441.774994 591.225159,441.770752 
	C548.808899,441.690247 506.392303,441.736267 463.975983,441.658661 
	C460.684265,441.652649 459.305725,442.364410 458.243530,445.987732 
	C457.002747,450.220123 453.788300,453.873871 451.095184,457.715088 
z"/>
<path fill="#C07782" opacity="1.000000" stroke="none" 
	d="
M630.987244,473.004425 
	C632.303528,473.325562 633.619873,473.646698 635.019775,474.383728 
	C632.757568,474.985596 630.169312,475.912628 628.105286,475.237335 
	C614.516418,470.791565 604.232605,462.322845 598.142029,449.188019 
	C597.628601,448.080719 597.808167,446.652100 597.956543,445.188293 
	C600.500732,448.758698 602.369385,452.822205 605.084839,456.206238 
	C611.367798,464.036102 618.381958,471.049438 629.725098,472.412476 
	C630.471375,472.821320 630.710999,472.947632 630.987244,473.004425 
z"/>
<path fill="#FEB3AF" opacity="1.000000" stroke="none" 
	d="
M680.327271,938.942017 
	C681.717224,937.603333 683.344238,935.695984 685.331665,935.181702 
	C695.898621,932.447693 704.912476,926.934448 713.449402,920.404297 
	C714.446167,919.641846 715.847290,919.407837 717.408813,918.909485 
	C717.652222,919.456909 717.547607,920.023743 716.890869,920.810425 
	C715.568115,921.694580 714.797485,922.358887 714.026794,923.023193 
	C712.870789,923.918823 711.714722,924.814514 709.940308,925.875000 
	C708.500366,926.981140 707.678772,927.922363 706.857056,928.863647 
	C706.452515,928.904175 706.047974,928.944763 705.007568,929.023682 
	C703.246216,930.032532 702.120728,931.003113 700.995239,931.973694 
	C697.576172,933.246155 694.157166,934.518616 690.044678,935.939209 
	C687.567017,937.054504 685.782776,938.021606 683.998596,938.988708 
	C682.909241,938.997925 681.819946,939.007141 680.327271,938.942017 
z"/>
<path fill="#FEB3AF" opacity="1.000000" stroke="none" 
	d="
M721.422791,915.054199 
	C724.464661,909.497009 728.103699,904.041138 731.148315,898.271667 
	C733.472290,893.867798 734.990112,889.043640 736.973022,884.452393 
	C737.912598,882.276611 739.100891,880.208252 740.513855,878.015259 
	C740.914551,878.704529 740.977966,879.469849 740.764709,880.822632 
	C739.992859,882.940735 739.497620,884.471313 739.002441,886.001892 
	C738.685425,887.104309 738.368469,888.206726 737.758179,889.861694 
	C737.309937,891.276184 737.154968,892.138123 737.000000,893.000000 
	C736.363403,893.794739 735.726746,894.589478 734.780151,895.908691 
	C732.322937,900.295044 730.175537,904.156860 728.028076,908.018555 
	C725.940186,910.352600 723.852234,912.686646 721.422791,915.054199 
z"/>
<path fill="#FEB3AF" opacity="1.000000" stroke="none" 
	d="
M577.005676,921.997253 
	C579.797729,923.635559 582.534058,925.379517 585.394409,926.888245 
	C590.129944,929.385986 594.962891,931.698486 599.719849,934.156677 
	C602.156982,935.416138 604.518433,936.822205 606.994629,938.488770 
	C606.307129,938.882812 605.539062,938.950012 604.189026,938.735291 
	C601.722900,937.661194 599.838745,936.869141 597.954651,936.077087 
	C596.952942,935.999634 595.951233,935.922180 594.487549,935.502563 
	C593.020813,934.435425 592.016113,933.710510 591.011475,932.985535 
	C588.974304,931.946167 586.937073,930.906860 584.452881,929.531982 
	C583.337158,928.798401 582.668457,928.400391 581.999756,928.002441 
	C580.516663,926.791016 579.033569,925.579590 577.284973,923.844238 
	C577.014893,922.879333 577.010315,922.438293 577.005676,921.997253 
z"/>
<path fill="#FEB3AF" opacity="1.000000" stroke="none" 
	d="
M740.947510,874.008423 
	C738.964111,868.326355 740.493225,863.138794 743.591919,858.461548 
	C744.053894,860.565491 744.108887,862.322754 744.163818,864.079956 
	C744.123840,864.811340 744.083862,865.542664 743.760071,866.850952 
	C742.633362,869.621399 741.790405,871.814880 740.947510,874.008423 
z"/>
<path fill="#FEB3AF" opacity="1.000000" stroke="none" 
	d="
M666.394287,941.993896 
	C669.030945,938.293457 672.955566,937.422607 677.527771,938.896240 
	C675.745239,940.307922 673.875000,941.171387 672.004761,942.034790 
	C670.277161,942.044373 668.549561,942.053894 666.394287,941.993896 
z"/>
<path fill="#FEB3AF" opacity="1.000000" stroke="none" 
	d="
M696.669067,867.145203 
	C699.665771,871.928833 697.108582,875.517395 693.523926,879.014709 
	C693.127258,878.637634 693.054749,878.171936 693.252197,877.123352 
	C694.315369,874.007935 695.108643,871.475403 695.901917,868.942810 
	C696.078857,868.398865 696.255737,867.854980 696.669067,867.145203 
z"/>
<path fill="#FDCBC9" opacity="1.000000" stroke="none" 
	d="
M626.028870,904.489380 
	C625.652100,904.883667 625.183044,904.954895 624.168335,904.748962 
	C622.059875,903.668396 620.497192,902.865112 618.934570,902.061768 
	C617.261963,900.740845 615.589294,899.419922 613.794678,897.803528 
	C617.760681,899.727539 621.848633,901.946960 626.028870,904.489380 
z"/>
<path fill="#FEB3AF" opacity="1.000000" stroke="none" 
	d="
M609.986694,938.904785 
	C613.292847,939.667664 616.599060,940.430481 619.985901,941.538940 
	C618.657410,941.937317 617.248169,941.990173 615.224304,941.768616 
	C613.068604,940.631104 611.527649,939.767944 609.986694,938.904785 
z"/>
<path fill="#FEE1DF" opacity="1.000000" stroke="none" 
	d="
M728.380493,907.976807 
	C730.175537,904.156860 732.322937,900.295044 734.737305,896.218872 
	C735.252991,901.210938 732.527405,904.853882 728.380493,907.976807 
z"/>
<path fill="#FDCBC9" opacity="1.000000" stroke="none" 
	d="
M638.001831,907.538818 
	C636.997681,907.936951 635.909241,907.998108 634.213135,907.783691 
	C632.063354,906.651428 630.521423,905.794800 628.979431,904.938232 
	C631.958801,905.692749 634.938171,906.447266 638.001831,907.538818 
z"/>
<path fill="#FDCBC9" opacity="1.000000" stroke="none" 
	d="
M660.994812,908.079712 
	C659.907776,908.067993 658.820679,908.056274 657.330444,907.970581 
	C659.791748,906.738342 662.656250,905.580078 665.583679,904.958923 
	C664.096008,906.357239 662.545410,907.218506 660.994812,908.079712 
z"/>
<path fill="#FEE1DF" opacity="1.000000" stroke="none" 
	d="
M740.962097,874.356140 
	C741.790405,871.814880 742.633362,869.621399 743.765991,867.217407 
	C746.312317,870.698853 744.078125,873.294067 741.557739,875.983276 
	C741.146729,875.612976 741.061768,875.158447 740.962097,874.356140 
z"/>
<path fill="#FEB3AF" opacity="1.000000" stroke="none" 
	d="
M689.401001,886.922241 
	C691.457947,890.439392 687.981201,891.116821 686.133789,892.862793 
	C686.217590,890.512451 685.283752,887.429688 689.401001,886.922241 
z"/>
<path fill="#FEE1DF" opacity="1.000000" stroke="none" 
	d="
M672.248474,942.303467 
	C673.875000,941.171387 675.745239,940.307922 677.818298,939.153870 
	C678.477905,938.896729 678.934692,938.930176 679.727539,939.040283 
	C678.450317,942.264099 676.043274,943.671631 672.248474,942.303467 
z"/>
<path fill="#FEE1DF" opacity="1.000000" stroke="none" 
	d="
M744.524902,863.960938 
	C744.108887,862.322754 744.053894,860.565491 743.947388,858.370300 
	C743.918945,857.199158 743.942078,856.466064 743.952393,855.365479 
	C744.110535,854.996765 744.281555,854.995422 744.708862,854.991333 
	C744.938721,857.939636 744.912292,860.890808 744.524902,863.960938 
z"/>
<path fill="#B86872" opacity="1.000000" stroke="none" 
	d="
M751.194580,423.605225 
	C749.630615,425.945374 748.181213,427.921936 746.396729,429.961792 
	C747.483826,427.028046 748.905823,424.031006 750.686096,421.033905 
	C751.132629,421.769775 751.220886,422.505737 751.194580,423.605225 
z"/>
<path fill="#FEB3AF" opacity="1.000000" stroke="none" 
	d="
M628.646362,904.925903 
	C630.521423,905.794800 632.063354,906.651428 633.804565,907.779602 
	C630.782104,910.012146 628.583679,908.899719 627.026855,905.383850 
	C627.429260,904.988708 627.871338,904.951111 628.646362,904.925903 
z"/>
<path fill="#FEE1DF" opacity="1.000000" stroke="none" 
	d="
M695.550537,869.004761 
	C695.108643,871.475403 694.315369,874.007935 693.246826,876.769043 
	C691.220947,873.653687 692.323853,871.111267 695.550537,869.004761 
z"/>
<path fill="#FEE1DF" opacity="1.000000" stroke="none" 
	d="
M609.644287,938.920898 
	C611.527649,939.767944 613.068604,940.631104 614.801636,941.771179 
	C611.800110,944.082825 609.626709,942.909302 608.003235,939.495728 
	C608.401306,939.078613 608.851562,939.007812 609.644287,938.920898 
z"/>
<path fill="#FEE1DF" opacity="1.000000" stroke="none" 
	d="
M598.007507,936.423706 
	C599.838745,936.869141 601.722900,937.661194 603.802490,938.733582 
	C600.916504,941.183105 599.374207,939.279053 598.007507,936.423706 
z"/>
<path fill="#FEB3AF" opacity="1.000000" stroke="none" 
	d="
M674.793335,901.256470 
	C674.552368,903.921204 674.010803,906.545471 670.136780,905.055603 
	C671.454895,903.551270 672.948914,902.353638 674.793335,901.256470 
z"/>
<path fill="#FEB3AF" opacity="1.000000" stroke="none" 
	d="
M661.234985,908.328979 
	C662.545410,907.218506 664.096008,906.357239 665.836182,905.210083 
	C666.467407,904.920654 666.908936,904.917175 667.678345,904.963379 
	C666.722229,907.837341 664.799316,909.491150 661.234985,908.328979 
z"/>
<path fill="#FEE1DF" opacity="1.000000" stroke="none" 
	d="
M620.030884,942.504517 
	C622.017273,942.113770 624.109314,942.078674 626.636902,942.162231 
	C624.760498,942.473999 622.448425,942.667114 620.030884,942.504517 
z"/>
<path fill="#FEE1DF" opacity="1.000000" stroke="none" 
	d="
M684.209961,939.253174 
	C685.782776,938.021606 687.567017,937.054504 689.705811,936.095337 
	C688.180725,937.241455 686.301025,938.379578 684.209961,939.253174 
z"/>
<path fill="#FEB3AF" opacity="1.000000" stroke="none" 
	d="
M680.555542,897.868164 
	C679.406616,899.103394 677.924622,900.366882 676.220154,901.393616 
	C677.405945,900.069946 678.814148,898.983154 680.555542,897.868164 
z"/>
<path fill="#FEE1DF" opacity="1.000000" stroke="none" 
	d="
M739.357605,885.965576 
	C739.497620,884.471313 739.992859,882.940735 740.765015,881.207397 
	C742.735352,883.222900 742.257385,884.854980 739.357605,885.965576 
z"/>
<path fill="#FEB3AF" opacity="1.000000" stroke="none" 
	d="
M693.051514,880.995728 
	C692.296692,882.321899 691.541931,883.648071 690.468811,885.019775 
	C690.099243,884.608215 690.048035,884.151123 690.283936,883.223877 
	C691.397888,882.167786 692.224731,881.581787 693.051514,880.995728 
z"/>
<path fill="#FEE1DF" opacity="1.000000" stroke="none" 
	d="
M693.055664,880.656006 
	C692.224731,881.581787 691.397888,882.167786 690.292297,882.878052 
	C690.770569,881.679749 691.527527,880.357117 692.613892,878.999634 
	C692.982056,879.415344 693.020935,879.865784 693.055664,880.656006 
z"/>
<path fill="#FEE1DF" opacity="1.000000" stroke="none" 
	d="
M701.178467,932.222107 
	C702.120728,931.003113 703.246216,930.032532 704.704956,929.061584 
	C703.812744,930.197632 702.587280,931.334106 701.178467,932.222107 
z"/>
<path fill="#FEE1DF" opacity="1.000000" stroke="none" 
	d="
M591.041260,933.335449 
	C592.016113,933.710510 593.020813,934.435425 594.111572,935.477783 
	C593.155518,935.091919 592.113281,934.388672 591.041260,933.335449 
z"/>
<path fill="#FEB3AF" opacity="1.000000" stroke="none" 
	d="
M718.439941,918.104980 
	C718.860596,917.120117 719.618530,916.095520 720.732300,915.075867 
	C720.317749,916.075684 719.547485,917.070496 718.439941,918.104980 
z"/>
<path fill="#FEE1DF" opacity="1.000000" stroke="none" 
	d="
M707.210632,928.882751 
	C707.678772,927.922363 708.500366,926.981140 709.658936,926.017090 
	C709.185303,926.963501 708.374756,927.932678 707.210632,928.882751 
z"/>
<path fill="#FEE1DF" opacity="1.000000" stroke="none" 
	d="
M576.805542,921.767456 
	C577.010315,922.438293 577.014893,922.879333 577.021240,923.651001 
	C576.325684,923.307678 575.628296,922.633667 574.896729,921.637573 
	C575.443420,921.389526 576.024414,921.463623 576.805542,921.767456 
z"/>
<path fill="#FEE1DF" opacity="1.000000" stroke="none" 
	d="
M737.324524,892.961731 
	C737.154968,892.138123 737.309937,891.276184 737.724182,890.205933 
	C737.871948,890.972900 737.760498,891.948181 737.324524,892.961731 
z"/>
<path fill="#FEE1DF" opacity="1.000000" stroke="none" 
	d="
M714.378601,923.015442 
	C714.797485,922.358887 715.568115,921.694580 716.658936,921.000916 
	C716.229492,921.650269 715.479980,922.328979 714.378601,923.015442 
z"/>
<path fill="#FEE1DF" opacity="1.000000" stroke="none" 
	d="
M582.041016,928.336304 
	C582.668457,928.400391 583.337158,928.798401 584.104309,929.490601 
	C583.495972,929.413269 582.789124,929.041687 582.041016,928.336304 
z"/>
<path fill="#FEB3AF" opacity="1.000000" stroke="none" 
	d="
M572.806213,918.523926 
	C573.436768,918.670166 574.136780,919.124573 574.783691,919.946899 
	C574.112244,919.820557 573.493958,919.326355 572.806213,918.523926 
z"/>
<path fill="#FCF9F9" opacity="1.000000" stroke="none" 
	d="
M554.000000,340.119812 
	C538.342163,340.124603 523.181946,339.983734 508.027863,340.223969 
	C503.560669,340.294739 502.170776,338.629395 502.180878,334.415588 
	C502.265106,299.269531 502.277374,264.123047 502.185944,228.977036 
	C502.175079,224.801849 503.325684,223.090805 507.888092,223.168182 
	C529.697876,223.538040 551.513367,223.581299 573.326782,223.733353 
	C579.973938,223.779694 580.296753,224.078766 580.298401,230.853668 
	C580.306763,265.167084 580.219238,299.480957 580.400879,333.793396 
	C580.426941,338.720276 578.606628,340.313782 573.987244,340.175262 
	C567.496826,339.980652 560.996216,340.122070 554.000000,340.119812 
z"/>
<path fill="#FCF9F9" opacity="1.000000" stroke="none" 
	d="
M642.000000,340.123566 
	C628.344971,340.127563 615.189880,340.160004 602.034973,340.122620 
	C596.069885,340.105652 595.388000,339.054413 595.406006,333.025818 
	C595.506653,299.389679 595.487000,265.753174 595.501587,232.116806 
	C595.505127,223.849640 595.493225,223.827713 603.834900,223.811615 
	C625.149170,223.770462 646.464417,223.851974 667.776794,223.636566 
	C672.010254,223.593796 673.348694,225.136917 673.341858,229.126068 
	C673.281555,264.428009 673.289429,299.730225 673.364807,335.032135 
	C673.373108,338.918457 671.862488,340.310425 667.975708,340.209900 
	C659.488708,339.990509 650.992493,340.130371 642.000000,340.123566 
z"/>
<path fill="#FBF6F6" opacity="1.000000" stroke="none" 
	d="
M486.275757,262.000000 
	C486.281311,286.312500 486.190796,310.125702 486.372192,333.936859 
	C486.408875,338.755280 484.764923,340.263275 479.971130,340.246063 
	C437.841827,340.094788 395.711823,340.157837 353.582001,340.148987 
	C346.150269,340.147430 346.502319,340.032684 346.001678,332.613342 
	C345.415161,323.920959 346.985748,316.333832 354.481201,311.131866 
	C356.615723,309.650482 359.470642,308.441711 362.005676,308.421448 
	C386.649200,308.224365 411.294952,308.308594 435.940063,308.308319 
	C444.644379,308.308228 446.811279,305.987610 448.257477,297.474915 
	C450.843964,282.249939 453.937256,267.111206 456.802826,251.933411 
	C458.313416,243.932312 459.915497,235.945236 461.223083,227.910614 
	C461.770630,224.546234 463.004822,222.929291 466.693512,223.163803 
	C471.337219,223.459061 476.031158,223.480453 480.671814,223.160904 
	C485.219940,222.847717 486.413605,224.838821 486.339813,229.029434 
	C486.149323,239.849976 486.275726,250.676102 486.275757,262.000000 
z"/>
<path fill="#FBF6F6" opacity="1.000000" stroke="none" 
	d="
M541.972046,158.994171 
	C542.226379,149.003571 542.614502,139.512360 542.654236,130.019699 
	C542.672485,125.652687 544.264160,124.422859 548.657532,124.519279 
	C562.313049,124.818985 575.986023,124.808662 589.639832,124.448799 
	C594.349487,124.324677 594.867798,126.531380 594.851196,130.169983 
	C594.754395,151.331543 594.729370,172.493423 594.685181,193.655197 
	C594.678894,196.654495 594.695312,199.653870 594.710205,202.653168 
	C594.724121,205.451523 593.678772,206.870209 590.542175,206.853195 
	C576.048706,206.774551 561.553467,206.806473 547.060486,206.958160 
	C542.413513,207.006805 540.592041,205.419342 540.828674,200.451111 
	C541.478149,186.811325 541.620361,173.147354 541.972046,158.994171 
z"/>
<path fill="#FAF4F5" opacity="1.000000" stroke="none" 
	d="
M442.711548,242.775085 
	C440.988434,252.679291 439.399811,262.174011 437.739227,271.656128 
	C436.680145,277.703735 435.689972,283.774780 434.260254,289.737335 
	C433.944000,291.056213 431.912628,292.904816 430.656738,292.916077 
	C412.197174,293.081573 393.735138,292.979431 375.273773,292.915283 
	C374.996277,292.914337 374.719879,292.589569 373.645081,291.915558 
	C374.790924,289.614410 375.995361,287.233582 377.166840,284.836639 
	C383.889679,271.081146 390.674896,257.355438 397.284729,243.545822 
	C399.634247,238.637115 400.815674,232.988266 403.929901,228.691711 
	C405.930603,225.931473 410.387360,223.804993 413.914368,223.521194 
	C423.006989,222.789490 432.194946,223.268539 441.344360,223.202103 
	C444.439484,223.179642 445.530518,224.645355 445.068115,227.586700 
	C444.294464,232.507645 443.564148,237.435394 442.711548,242.775085 
z"/>
<path fill="#FCF9F9" opacity="1.000000" stroke="none" 
	d="
M611.523132,159.098923 
	C611.566223,158.609482 611.609253,158.120056 611.955933,157.082458 
	C613.926819,155.998276 615.590149,155.011200 617.261780,154.997040 
	C631.729126,154.874481 646.198364,154.986328 660.666016,154.882706 
	C664.008423,154.858780 665.436829,155.878998 665.397583,159.461990 
	C665.244324,173.429733 665.254517,187.400864 665.386536,201.369003 
	C665.418701,204.777893 664.306702,206.155380 660.811768,206.128571 
	C646.344238,206.017639 631.874878,206.013245 617.407349,206.121338 
	C613.780640,206.148407 612.429688,204.878769 612.479370,201.143845 
	C612.642883,188.839890 612.544373,176.531647 612.444580,164.225906 
	C612.430725,162.514526 611.844421,160.807800 611.523132,159.098923 
z"/>
<path fill="#AA4657" opacity="1.000000" stroke="none" 
	d="
M601.840088,416.748779 
	C601.150635,418.113739 600.153381,419.047089 599.997620,420.104370 
	C598.993469,426.922424 593.964417,426.935028 588.855408,426.934570 
	C548.030701,426.930817 507.206024,426.932831 466.381317,426.931671 
	C458.350952,426.931458 456.653473,425.457397 454.136261,418.061218 
	C449.778473,405.256866 440.724457,398.129425 427.869324,393.512726 
	C418.375977,390.103333 410.055695,391.604767 401.821167,394.531281 
	C392.821014,397.729858 385.421875,403.935242 380.955231,412.776917 
	C379.263153,416.126312 378.511780,419.952942 376.800262,423.289490 
	C376.140747,424.575165 374.036224,425.787689 372.535736,425.857056 
	C366.384186,426.141266 360.197174,426.232239 354.051239,425.890442 
	C348.764343,425.596436 344.655548,421.584137 344.790344,415.724792 
	C345.192566,398.237762 344.934448,380.735535 344.930328,363.239227 
	C344.928375,354.925507 344.924347,354.921417 353.516510,354.921356 
	C435.832397,354.920715 518.148315,354.921875 600.464172,354.921936 
	C643.288391,354.921967 686.112671,354.920837 728.936890,354.920135 
	C738.044495,354.919983 738.040894,354.919739 738.039551,363.767578 
	C738.037109,379.930817 737.688049,396.104401 738.161560,412.253754 
	C738.484497,423.267426 733.228699,426.375824 724.795715,426.757904 
	C711.991455,427.338104 699.136475,426.694061 686.313049,426.994965 
	C678.623108,427.175385 678.175598,420.899139 676.031738,416.319977 
	C670.688965,404.907959 662.399963,397.732086 650.190491,393.597107 
	C635.487488,388.617584 623.388977,392.913177 612.436584,401.668213 
	C607.907227,405.288910 605.366455,411.397400 601.840088,416.748779 
M655.500122,356.424713 
	C555.024536,356.422577 454.548920,356.420013 354.073303,356.422089 
	C352.574554,356.422119 350.892578,356.066742 349.629822,356.628052 
	C348.427246,357.162567 346.836182,358.675110 346.827759,359.768524 
	C346.684418,378.428955 346.675446,397.091827 346.845184,415.752289 
	C346.891113,420.799683 350.083954,423.833405 354.952148,423.985626 
	C359.946198,424.141815 364.986267,424.389771 369.929016,423.867249 
	C371.953430,423.653229 374.315643,421.909241 375.556519,420.170624 
	C377.213623,417.848877 377.843994,414.815918 379.062927,412.156036 
	C384.522003,400.243439 394.588593,393.574219 406.570251,390.446533 
	C427.841919,384.893707 450.864655,398.071564 457.567261,419.164276 
	C458.864777,423.247498 460.604187,424.187103 464.529724,424.175018 
	C506.019318,424.047455 547.509460,424.095520 588.999451,424.093079 
	C590.665588,424.092957 592.450317,424.438812 593.962158,423.950226 
	C595.282532,423.523438 596.744202,422.370209 597.356323,421.144775 
	C598.889160,418.076111 599.586853,414.556305 601.308350,411.621582 
	C608.899719,398.680023 620.013123,390.985260 635.203247,389.580627 
	C645.568604,388.622162 654.955017,391.321381 663.453369,397.103607 
	C671.387817,402.502228 676.949341,409.944305 679.617920,419.087067 
	C680.734680,422.913452 682.188965,424.210480 686.025208,424.158844 
	C698.853149,423.986023 711.684814,424.097992 724.515076,424.091492 
	C733.352600,424.087036 734.679688,422.794952 734.692322,414.010406 
	C734.716980,396.847931 734.406860,379.676941 734.892578,362.528076 
	C735.037292,357.420288 733.727234,356.295074 728.981934,356.331390 
	C704.822510,356.516296 680.660950,356.421082 655.500122,356.424713 
z"/>
<path fill="#FBF6F6" opacity="1.000000" stroke="none" 
	d="
M426.296204,407.311066 
	C435.346344,411.411987 441.043671,417.997070 443.039917,427.317993 
	C445.083435,436.859528 441.594513,448.307983 432.484192,454.345093 
	C417.654755,464.172058 398.724640,459.592957 390.909912,441.489288 
	C386.765564,431.888519 391.880829,416.985626 401.129364,410.535431 
	C408.885590,405.126099 417.234741,405.226959 426.296204,407.311066 
z"/>
<path fill="#B35866" opacity="1.000000" stroke="none" 
	d="
M737.988953,240.039612 
	C737.990173,271.842773 737.995178,303.152954 737.989807,334.463135 
	C737.988708,341.064392 736.326111,342.818054 729.845093,342.844086 
	C718.353760,342.890228 706.862122,342.875793 695.370667,342.850006 
	C689.894531,342.837708 687.206116,340.225647 687.136658,334.610901 
	C687.035767,326.451477 687.111023,318.289948 687.111084,310.129303 
	C687.111328,283.482361 687.105469,256.835388 687.115845,230.188431 
	C687.118591,223.140808 688.186768,222.073471 695.155457,222.066849 
	C705.481140,222.057007 715.806885,222.056396 726.132568,222.069687 
	C733.919556,222.079727 737.938599,226.150955 737.989929,234.050705 
	C738.001831,235.882584 737.989990,237.714645 737.988953,240.039612 
M734.538208,285.500061 
	C734.537964,268.016266 734.567871,250.532410 734.521729,233.048737 
	C734.504578,226.545822 731.932983,223.976898 725.449585,223.932571 
	C716.291870,223.869965 707.133362,223.923019 697.975220,223.915054 
	C690.351929,223.908432 690.364136,223.901077 690.352722,231.429337 
	C690.300293,265.894623 690.283081,300.360107 690.121765,334.824890 
	C690.104431,338.535095 691.681885,339.300537 694.955383,339.262604 
	C706.276733,339.131378 717.603394,339.061005 728.921814,339.282898 
	C733.321838,339.369171 734.689819,337.800964 734.630676,333.455414 
	C734.417786,317.806122 734.542175,302.152252 734.538208,285.500061 
z"/>
<path fill="#B35866" opacity="1.000000" stroke="none" 
	d="
M611.275085,159.420319 
	C611.844421,160.807800 612.430725,162.514526 612.444580,164.225906 
	C612.544373,176.531647 612.642883,188.839890 612.479370,201.143845 
	C612.429688,204.878769 613.780640,206.148407 617.407349,206.121338 
	C631.874878,206.013245 646.344238,206.017639 660.811768,206.128571 
	C664.306702,206.155380 665.418701,204.777893 665.386536,201.369003 
	C665.254517,187.400864 665.244324,173.429733 665.397583,159.461990 
	C665.436829,155.878998 664.008423,154.858780 660.666016,154.882706 
	C646.198364,154.986328 631.729126,154.874481 617.261780,154.997040 
	C615.590149,155.011200 613.926819,155.998276 611.886292,156.719055 
	C610.271423,152.980057 612.938782,152.165039 615.730103,152.145203 
	C631.216309,152.035263 646.703735,152.090805 662.190735,152.095657 
	C665.530945,152.096695 667.008057,153.926788 667.009094,157.121948 
	C667.014160,172.775436 667.024414,188.428970 666.993042,204.082397 
	C666.986633,207.285950 665.379333,208.996445 662.052612,208.992065 
	C646.399048,208.971420 630.745422,208.941895 615.092102,209.004791 
	C611.635437,209.018677 610.876648,207.020065 610.885376,204.189667 
	C610.930969,189.373672 610.979492,174.557693 611.275085,159.420319 
z"/>
<path fill="#B86872" opacity="1.000000" stroke="none" 
	d="
M666.647644,424.911469 
	C667.626831,434.610229 666.813354,443.217224 660.234253,450.883881 
	C653.304260,458.959381 642.390625,462.123535 631.789062,459.663025 
	C621.115173,457.185699 615.390137,449.948914 611.503723,441.049469 
	C607.508057,431.899780 613.114868,416.841797 621.414734,410.330109 
	C636.171021,398.752991 655.922852,404.335754 663.825562,419.767761 
	C664.654175,421.385773 665.630615,422.928040 666.647644,424.911469 
M615.466431,443.743958 
	C622.128235,457.488647 635.698303,461.214142 648.154846,456.817719 
	C659.266052,452.896179 664.714722,443.984528 664.315186,431.622528 
	C663.920044,419.396881 657.949280,413.002594 648.647522,408.262451 
	C641.573364,404.657532 627.651245,407.253510 621.920898,412.802002 
	C613.078979,421.363373 609.951294,431.274780 615.466431,443.743958 
z"/>
<path fill="#B86872" opacity="1.000000" stroke="none" 
	d="
M676.506958,448.822388 
	C676.111755,450.415741 675.393433,452.149170 674.320129,453.933716 
	C674.704712,452.310730 675.444214,450.636597 676.506958,448.822388 
z"/>
<path fill="#A23445" opacity="1.000000" stroke="none" 
	d="
M612.964722,139.645813 
	C614.009094,139.261597 615.156555,139.190125 616.723389,139.236847 
	C615.784485,139.556213 614.426147,139.757385 612.964722,139.645813 
z"/>
<path fill="#B86872" opacity="1.000000" stroke="none" 
	d="
M647.761108,472.380920 
	C647.506592,472.851807 646.955566,473.223602 646.244629,473.414673 
	C646.544678,472.916565 647.004639,472.599182 647.761108,472.380920 
z"/>
<path fill="#B86872" opacity="1.000000" stroke="none" 
	d="
M677.974854,445.198334 
	C678.096252,445.723969 677.911194,446.340729 677.467896,446.996155 
	C677.362549,446.453033 677.515442,445.871246 677.974854,445.198334 
z"/>
<path fill="#B86872" opacity="1.000000" stroke="none" 
	d="
M732.741333,438.352875 
	C732.432373,438.904724 731.815796,439.375885 730.865967,439.785675 
	C731.166443,439.240265 731.800171,438.756226 732.741333,438.352875 
z"/>
<path fill="#B86872" opacity="1.000000" stroke="none" 
	d="
M630.919312,472.776855 
	C630.710999,472.947632 630.471375,472.821320 630.146057,472.463562 
	C630.373169,472.138214 630.649109,472.220764 630.919312,472.776855 
z"/>
<path fill="#FFFCFC" opacity="1.000000" stroke="none" 
	d="
M839.938354,748.000000 
	C839.936279,738.171448 840.074341,728.839783 839.866211,719.515808 
	C839.777893,715.559937 840.799072,713.747314 845.161438,713.883789 
	C854.315063,714.170044 863.536499,713.387634 872.631775,714.176453 
	C885.782227,715.316895 898.268555,719.086365 906.125610,730.766541 
	C912.898438,740.835022 915.377319,752.237305 913.388062,764.392273 
	C911.812378,774.020142 908.254761,782.630432 899.690430,788.114075 
	C891.385742,793.431519 882.011475,795.586914 872.256836,795.831360 
	C863.100403,796.060791 853.931702,795.778076 844.773315,795.962708 
	C841.050659,796.037781 839.827820,794.638245 839.866516,790.977539 
	C840.016418,776.819702 839.934143,762.659363 839.938354,748.000000 
z"/>
<path fill="#FEFCFC" opacity="1.000000" stroke="none" 
	d="
M458.088898,803.008545 
	C458.478455,820.803833 458.632202,838.149902 454.812286,855.106873 
	C451.418182,870.173462 446.514618,884.767212 434.364380,895.512512 
	C425.641235,903.226990 415.479492,907.470276 403.784027,908.042603 
	C391.970917,908.620544 380.620331,907.169739 370.109833,901.262085 
	C361.202271,896.255493 353.961975,889.328796 349.427277,880.360229 
	C345.436493,872.467407 342.294983,863.964661 340.105621,855.392273 
	C337.905487,846.777588 336.544983,837.772156 336.236755,828.888672 
	C335.655579,812.138855 334.636261,795.270020 338.256256,778.682800 
	C340.429291,768.725647 342.269073,758.588745 345.660248,749.029846 
	C350.567566,735.197449 359.295502,723.831543 373.221558,717.968689 
	C384.465729,713.234985 396.385284,712.762268 408.421204,715.201416 
	C420.582642,717.665955 431.096313,723.190918 438.385498,733.181152 
	C443.385834,740.034302 447.988251,747.613953 450.751465,755.569458 
	C455.987793,770.645142 458.119324,786.473755 458.088898,803.008545 
z"/>
<path fill="#FA8E88" opacity="1.000000" stroke="none" 
	d="
M463.163086,920.255005 
	C458.315277,923.391296 453.756989,926.318726 449.159515,929.183228 
	C448.486359,929.602661 447.493103,930.122437 446.873505,929.916626 
	C441.777191,928.223511 437.579102,932.097839 432.773132,932.081116 
	C432.173126,932.079041 431.344421,932.377319 431.004578,932.826172 
	C425.629700,939.926270 417.220673,939.621460 409.823425,940.750183 
	C402.495453,941.868408 394.862915,941.044067 387.365295,940.956909 
	C385.675934,940.937256 383.992065,940.441589 380.954315,939.943420 
	C386.904083,929.619690 392.297028,920.262146 398.031433,910.312134 
	C402.051697,910.025146 407.345154,909.841858 412.587799,909.225952 
	C419.917786,908.364807 426.183563,904.787415 431.928864,900.447937 
	C435.145874,898.018005 438.317932,896.781555 442.417786,896.923889 
	C454.515472,897.343933 465.708557,900.923950 477.847595,906.140259 
	C472.694061,911.107117 468.067078,915.566528 463.163086,920.255005 
z"/>
<path fill="#FA8E88" opacity="1.000000" stroke="none" 
	d="
M461.306976,855.000183 
	C470.095428,855.000061 478.420715,854.949829 486.745087,855.013794 
	C495.585358,855.081665 499.825623,862.920166 495.799561,870.913818 
	C493.713806,875.055054 492.756561,879.749634 490.962006,884.057800 
	C489.721619,887.035706 488.055664,889.868286 486.285614,892.573242 
	C485.780029,893.345947 484.240631,893.815369 483.185486,893.798096 
	C471.237518,893.602356 459.290741,893.312744 447.345917,892.968201 
	C445.663239,892.919739 443.992859,892.443909 442.076172,892.125916 
	C445.586884,885.845581 449.102661,880.364868 451.778778,874.500977 
	C453.754242,870.172180 454.986053,865.410645 455.880432,860.714478 
	C456.486328,857.532959 456.486908,854.598633 461.306976,855.000183 
z"/>
<path fill="#FA8E88" opacity="1.000000" stroke="none" 
	d="
M388.460632,910.987549 
	C389.045868,910.588379 389.627655,910.490601 390.209412,910.392822 
	C390.204315,910.803528 390.199188,911.214294 390.194061,911.625000 
	C389.615082,911.512939 389.036133,911.400879 388.460632,910.987549 
z"/>
<path fill="#FA8E88" opacity="1.000000" stroke="none" 
	d="
M556.304688,890.043823 
	C555.384094,889.450134 554.426392,888.959595 554.306885,888.313904 
	C552.803711,880.189819 551.421631,872.043396 550.295410,863.175781 
	C550.711426,859.967346 550.840637,857.485779 551.349060,855.007935 
	C552.509766,855.234680 553.376526,855.309448 554.060059,855.702698 
	C567.144348,863.229492 581.807983,858.288025 587.369385,844.546204 
	C587.788818,843.509888 589.110168,842.838562 590.014404,842.406189 
	C590.650330,844.559875 591.283997,846.304993 591.917603,848.050049 
	C591.936584,849.104492 591.955505,850.158936 591.695923,851.860901 
	C591.930969,854.347839 592.444580,856.187256 592.958130,858.026672 
	C592.998108,858.767090 593.038025,859.507446 592.902832,860.736450 
	C593.111877,861.510925 593.496094,861.796814 593.880371,862.082703 
	C592.230225,868.859436 595.623230,874.772949 597.130249,881.384644 
	C597.009705,885.585632 594.108154,886.793640 591.187622,887.335571 
	C583.592407,888.745178 575.932922,889.809937 568.296509,890.995911 
	C565.562195,891.420471 562.820496,891.797791 559.634216,892.261902 
	C558.971924,891.775330 557.814514,890.925049 556.304688,890.043823 
z"/>
<path fill="#FEB3AF" opacity="1.000000" stroke="none" 
	d="
M618.995117,902.399475 
	C620.497192,902.865112 622.059875,903.668396 623.811768,904.743408 
	C621.087524,907.002075 620.156494,904.685242 618.995117,902.399475 
z"/>
<path fill="#FF9089" opacity="1.000000" stroke="none" 
	d="
M907.000000,614.051208 
	C639.382080,614.050964 372.264221,614.033264 105.146400,614.191162 
	C100.401299,614.193970 96.857376,612.651978 95.816017,608.787964 
	C94.938187,605.530823 95.752365,601.278259 97.235535,598.135437 
	C98.066437,596.374695 101.774216,595.106079 104.194618,595.091553 
	C137.354050,594.892334 170.515030,594.946167 203.675644,594.946594 
	C460.628723,594.950134 717.581848,594.955627 974.534912,594.960022 
	C985.533142,594.960205 986.901062,596.447632 986.021973,607.442017 
	C985.675171,611.779541 984.239136,614.230713 978.984924,614.169983 
	C955.159302,613.894775 931.328796,614.050537 907.000000,614.051208 
z"/>
<path fill="#FF918A" opacity="1.000000" stroke="none" 
	d="
M568.976807,912.696777 
	C568.319275,912.262756 567.666077,911.465515 566.974976,910.346436 
	C567.618469,910.794312 568.299805,911.563965 568.976807,912.696777 
z"/>
<path fill="#FE9089" opacity="1.000000" stroke="none" 
	d="
M590.012207,841.997559 
	C589.110168,842.838562 587.788818,843.509888 587.369385,844.546204 
	C581.807983,858.288025 567.144348,863.229492 554.060059,855.702698 
	C553.376526,855.309448 552.509766,855.234680 551.060303,854.708130 
	C550.260742,852.425415 550.014954,850.446228 550.014038,848.466980 
	C549.989075,793.638916 549.989014,738.810791 549.984802,683.982727 
	C552.403564,683.682068 554.824463,683.109253 557.240784,683.127686 
	C567.914734,683.208862 578.587280,683.460205 589.639282,684.283020 
	C590.016174,737.276550 590.014160,789.637085 590.012207,841.997559 
z"/>
<path fill="#FEA8A4" opacity="1.000000" stroke="none" 
	d="
M549.586121,684.070801 
	C549.989014,738.810791 549.989075,793.638916 550.014038,848.466980 
	C550.014954,850.446228 550.260742,852.425415 550.681030,854.704468 
	C550.840637,857.485779 550.711426,859.967346 550.293213,862.723694 
	C549.337097,859.822754 548.095581,856.648254 548.088379,853.471008 
	C547.965088,798.535828 547.984192,743.600281 548.039368,688.664917 
	C548.040894,687.162476 548.788025,685.660889 549.586121,684.070801 
z"/>
<path fill="#FEA8A4" opacity="1.000000" stroke="none" 
	d="
M590.014404,842.406189 
	C590.014160,789.637085 590.016174,737.276550 590.024841,684.444641 
	C590.686707,685.870667 591.910706,687.767029 591.914368,689.665771 
	C592.016968,742.145203 591.995422,794.624878 591.956055,847.577271 
	C591.283997,846.304993 590.650330,844.559875 590.014404,842.406189 
z"/>
<path fill="#FEA8A4" opacity="1.000000" stroke="none" 
	d="
M592.983032,857.619507 
	C592.444580,856.187256 591.930969,854.347839 591.691101,852.256470 
	C592.312561,853.740417 592.660278,855.476440 592.983032,857.619507 
z"/>
<path fill="#FEA8A4" opacity="1.000000" stroke="none" 
	d="
M593.836182,861.848511 
	C593.496094,861.796814 593.111877,861.510925 592.916504,861.106995 
	C593.422729,861.100281 593.651550,861.308716 593.836182,861.848511 
z"/>
<path fill="#FDFBFB" opacity="1.000000" stroke="none" 
	d="
M656.000122,356.424316 
	C680.660950,356.421082 704.822510,356.516296 728.981934,356.331390 
	C733.727234,356.295074 735.037292,357.420288 734.892578,362.528076 
	C734.406860,379.676941 734.716980,396.847931 734.692322,414.010406 
	C734.679688,422.794952 733.352600,424.087036 724.515076,424.091492 
	C711.684814,424.097992 698.853149,423.986023 686.025208,424.158844 
	C682.188965,424.210480 680.734680,422.913452 679.617920,419.087067 
	C676.949341,409.944305 671.387817,402.502228 663.453369,397.103607 
	C654.955017,391.321381 645.568604,388.622162 635.203247,389.580627 
	C620.013123,390.985260 608.899719,398.680023 601.308350,411.621582 
	C599.586853,414.556305 598.889160,418.076111 597.356323,421.144775 
	C596.744202,422.370209 595.282532,423.523438 593.962158,423.950226 
	C592.450317,424.438812 590.665588,424.092957 588.999451,424.093079 
	C547.509460,424.095520 506.019318,424.047455 464.529724,424.175018 
	C460.604187,424.187103 458.864777,423.247498 457.567261,419.164276 
	C450.864655,398.071564 427.841919,384.893707 406.570251,390.446533 
	C394.588593,393.574219 384.522003,400.243439 379.062927,412.156036 
	C377.843994,414.815918 377.213623,417.848877 375.556519,420.170624 
	C374.315643,421.909241 371.953430,423.653229 369.929016,423.867249 
	C364.986267,424.389771 359.946198,424.141815 354.952148,423.985626 
	C350.083954,423.833405 346.891113,420.799683 346.845184,415.752289 
	C346.675446,397.091827 346.684418,378.428955 346.827759,359.768524 
	C346.836182,358.675110 348.427246,357.162567 349.629822,356.628052 
	C350.892578,356.066742 352.574554,356.422119 354.073303,356.422089 
	C454.548920,356.420013 555.024536,356.422577 656.000122,356.424316 
z"/>
<path fill="#FDFBFB" opacity="1.000000" stroke="none" 
	d="
M734.538696,286.000061 
	C734.542175,302.152252 734.417786,317.806122 734.630676,333.455414 
	C734.689819,337.800964 733.321838,339.369171 728.921814,339.282898 
	C717.603394,339.061005 706.276733,339.131378 694.955383,339.262604 
	C691.681885,339.300537 690.104431,338.535095 690.121765,334.824890 
	C690.283081,300.360107 690.300293,265.894623 690.352722,231.429337 
	C690.364136,223.901077 690.351929,223.908432 697.975220,223.915054 
	C707.133362,223.923019 716.291870,223.869965 725.449585,223.932571 
	C731.932983,223.976898 734.504578,226.545822 734.521729,233.048737 
	C734.567871,250.532410 734.537964,268.016266 734.538696,286.000061 
z"/>
<path fill="#FCF9F9" opacity="1.000000" stroke="none" 
	d="
M615.342651,443.375488 
	C609.951294,431.274780 613.078979,421.363373 621.920898,412.802002 
	C627.651245,407.253510 641.573364,404.657532 648.647522,408.262451 
	C657.949280,413.002594 663.920044,419.396881 664.315186,431.622528 
	C664.714722,443.984528 659.266052,452.896179 648.154846,456.817719 
	C635.698303,461.214142 622.128235,457.488647 615.342651,443.375488 
z"/>
</svg>