<svg version="1.1" id="Layer_1" xmlns="http://www.w3.org/2000/svg" xmlns:xlink="http://www.w3.org/1999/xlink" x="0px" y="0px"
	 width="100%" viewBox="0 0 225 225" enable-background="new 0 0 225 225" xml:space="preserve">
<path fill="#010101" opacity="1.000000" stroke="none" 
	d="
M1.000000,85.000000 
	C1.000000,56.666672 1.000000,28.833344 1.000000,1.000011 
	C75.999977,1.000007 150.999954,1.000007 225.999954,1.000004 
	C225.999969,75.999969 225.999969,150.999939 225.999985,225.999939 
	C151.000046,225.999954 76.000092,225.999954 1.000068,225.999969 
	C1.000000,179.166672 1.000000,132.333328 1.000000,85.000000 
M58.494232,155.831635 
	C62.600933,155.831635 66.707634,155.831635 71.112144,155.831635 
	C71.112144,157.991898 71.112137,159.627426 71.112144,161.262939 
	C71.112198,175.095352 71.119560,188.927765 71.107101,202.760178 
	C71.104042,206.155823 70.768982,210.130280 75.601295,210.031006 
	C80.432861,209.931717 79.869728,205.857254 79.883278,202.537460 
	C79.901642,198.037827 79.887856,193.538071 79.887856,189.038361 
	C79.887856,178.089081 79.887856,167.139816 79.887856,156.025940 
	C102.092766,156.025940 123.832878,156.025940 145.984909,156.025940 
	C145.984909,157.326813 145.984909,158.460785 145.984909,159.594742 
	C145.984970,174.593750 146.009766,189.592819 145.964264,204.591690 
	C145.955124,207.604904 146.634232,210.023148 150.166260,210.087616 
	C153.785034,210.153687 154.422562,207.540344 154.509964,204.652634 
	C154.555313,203.154068 154.520920,201.653061 154.520950,200.153168 
	C154.521194,185.531540 154.521088,170.909912 154.521088,155.831650 
	C156.504791,155.831650 158.133606,155.831665 159.762436,155.831665 
	C174.094818,155.831604 188.427200,155.836151 202.759583,155.828064 
	C206.119766,155.826172 210.075562,156.216736 209.996185,151.306076 
	C209.923264,146.794327 206.234863,147.051697 202.991959,147.057190 
	C191.659409,147.076401 180.326828,147.064606 168.994247,147.064590 
	C164.201538,147.064590 159.408844,147.064606 154.779205,147.064606 
	C154.779205,124.768707 154.779205,103.022041 154.779205,80.993210 
	C171.015732,80.993210 186.995911,80.955856 202.975632,81.023743 
	C206.296066,81.037842 209.363281,80.599442 209.268005,76.544876 
	C209.181488,72.862839 206.212173,72.298210 203.125687,72.304054 
	C190.293259,72.328346 177.460739,72.313515 164.628265,72.313095 
	C161.348129,72.312988 158.067978,72.313072 154.521088,72.313072 
	C154.521088,69.907951 154.521118,68.101837 154.521057,66.295723 
	C154.520630,51.630032 154.520660,36.964340 154.519379,22.298651 
	C154.519104,19.334332 153.696564,16.800877 150.205322,16.818293 
	C146.749176,16.835531 145.939774,19.232790 145.959320,22.293789 
	C146.026382,32.792664 145.984970,43.292229 145.984940,53.791531 
	C145.984924,59.916336 145.984940,66.041138 145.984940,72.040848 
	C123.713615,72.040848 101.966179,72.040848 79.886986,72.040848 
	C79.886986,55.468731 79.859810,39.166855 79.910461,22.865221 
	C79.920319,19.693920 79.245750,16.914024 75.578888,16.838917 
	C71.896072,16.763483 71.075645,19.474072 71.092934,22.684895 
	C71.147675,32.850590 71.112442,43.016766 71.112175,53.182755 
	C71.112007,59.465797 71.112144,65.748840 71.112144,72.313110 
	C68.945923,72.313110 67.309158,72.313095 65.672386,72.313103 
	C51.506660,72.313171 37.340931,72.306732 23.175215,72.318314 
	C19.991772,72.320915 16.810530,72.677185 16.932608,76.890968 
	C17.044432,80.750809 19.962528,81.049644 23.026279,81.013107 
	C28.858395,80.943565 34.691929,80.993179 40.524876,80.993210 
	C50.634228,80.993256 60.743580,80.993225 70.854652,80.993225 
	C70.854652,103.265907 70.854652,125.006340 70.854652,147.064651 
	C54.966515,147.064651 39.333843,147.087128 23.701330,147.046814 
	C20.336241,147.038132 16.878719,147.130829 16.945515,151.586899 
	C17.007429,155.717361 20.332478,155.848648 23.497257,155.841431 
	C34.829781,155.815582 46.162392,155.831512 58.494232,155.831635 
M95.924232,50.504616 
	C97.213326,51.795567 98.388435,53.230988 99.810730,54.353107 
	C106.958893,59.992653 117.029114,60.562340 125.059502,55.882442 
	C132.084259,51.788601 136.524719,43.199986 135.466248,35.753990 
	C134.154083,26.523432 127.824142,19.465616 118.895393,17.277719 
	C110.404922,15.197220 100.786331,18.568150 95.715080,25.401487 
	C90.045876,33.040546 89.959053,40.989265 95.924232,50.504616 
M121.920532,208.753952 
	C133.427460,202.919815 138.174683,192.764297 134.303268,182.264145 
	C130.487640,171.915314 119.174072,165.854950 108.578438,168.484055 
	C96.226173,171.549026 89.035286,182.880905 92.104477,194.444809 
	C95.286041,206.432114 108.246674,212.912796 121.920532,208.753952 
M181.762390,133.959579 
	C192.330231,136.023499 201.826736,132.118210 206.647476,123.726013 
	C211.057648,116.048561 209.999329,106.288643 204.038971,99.670135 
	C197.749786,92.686516 187.293732,90.418953 178.474411,94.126060 
	C170.631485,97.422752 165.110458,105.497139 165.163223,113.593391 
	C165.221817,122.583687 170.801453,129.729279 181.762390,133.959579 
M60.865520,35.825523 
	C60.528290,34.373116 60.347603,32.861935 59.828072,31.477962 
	C56.770061,23.331812 50.918015,18.303211 42.323780,17.085733 
	C32.761154,15.731070 24.869900,18.991566 19.749447,27.381153 
	C15.269195,34.721798 15.708117,42.302395 20.380705,49.430000 
	C25.656374,57.477547 36.000538,60.875160 45.461090,58.002529 
	C54.991413,55.108715 60.671268,47.267750 60.865520,35.825523 
M44.560844,200.943054 
	C45.500034,201.883514 46.468605,202.796677 47.372570,203.769867 
	C49.545952,206.109665 51.992809,207.334122 54.638309,204.725479 
	C57.236973,202.162979 55.601849,199.923599 53.576603,197.906509 
	C50.696205,195.037689 47.811275,192.173431 44.509254,188.890640 
	C47.796253,185.804916 50.726994,183.112564 53.587807,180.347855 
	C55.574486,178.427887 56.579250,176.186340 54.382607,173.840485 
	C52.007565,171.304108 49.608387,172.140823 47.525772,174.361893 
	C44.702312,177.373062 41.964874,180.464890 39.156635,183.559464 
	C35.524200,179.910004 32.571777,176.987000 29.670637,174.013977 
	C27.697361,171.991806 25.529009,170.953842 23.212809,173.229248 
	C20.798306,175.601212 21.527287,178.034210 23.770643,180.126923 
	C26.784615,182.938477 29.868563,185.675049 33.381268,188.859756 
	C29.765711,192.330460 26.905365,195.059296 24.064770,197.808533 
	C21.884319,199.918869 20.934450,202.271088 23.450356,204.692688 
	C25.769110,206.924515 27.996313,205.975967 29.966452,203.979980 
	C32.825375,201.083511 35.662594,198.165619 38.962597,194.793427 
	C40.947433,196.992249 42.498154,198.710144 44.560844,200.943054 
M195.425964,23.818615 
	C192.903320,26.579060 190.380692,29.339504 187.473938,32.520287 
	C183.858841,28.703382 181.168777,25.216932 177.797211,22.612801 
	C176.395645,21.530262 173.539780,22.330620 171.345245,22.274755 
	C171.550766,24.314594 171.026672,26.945139 172.105621,28.277851 
	C174.793182,31.597504 178.210403,34.326447 182.051956,37.973480 
	C178.602997,41.142971 175.207947,43.658901 172.680481,46.859871 
	C171.546371,48.296200 171.236038,51.669765 172.163437,53.164101 
	C173.808578,55.814926 176.514542,54.754456 178.473251,52.765690 
	C181.387817,49.806419 184.198486,46.744812 187.285370,43.481499 
	C190.428955,46.728733 193.216827,49.562027 195.950211,52.446934 
	C198.095810,54.711449 200.460587,56.358234 203.118057,53.491631 
	C205.694473,50.712460 204.057114,48.279072 201.729660,46.291283 
	C198.742035,43.739651 195.651505,41.308502 192.361969,38.627106 
	C196.354614,34.765396 198.966019,32.207531 201.614120,29.688246 
	C203.872208,27.540026 205.377457,25.170530 202.765015,22.422874 
	C200.278320,19.807444 197.985840,21.189911 195.425964,23.818615 
z"/>
<path fill="#F6F6F6" opacity="1.000000" stroke="none" 
	d="
M57.994602,155.831635 
	C46.162392,155.831512 34.829781,155.815582 23.497257,155.841431 
	C20.332478,155.848648 17.007429,155.717361 16.945515,151.586899 
	C16.878719,147.130829 20.336241,147.038132 23.701330,147.046814 
	C39.333843,147.087128 54.966515,147.064651 70.854652,147.064651 
	C70.854652,125.006340 70.854652,103.265907 70.854652,80.993225 
	C60.743580,80.993225 50.634228,80.993256 40.524876,80.993210 
	C34.691929,80.993179 28.858395,80.943565 23.026279,81.013107 
	C19.962528,81.049644 17.044432,80.750809 16.932608,76.890968 
	C16.810530,72.677185 19.991772,72.320915 23.175215,72.318314 
	C37.340931,72.306732 51.506660,72.313171 65.672386,72.313103 
	C67.309158,72.313095 68.945923,72.313110 71.112144,72.313110 
	C71.112144,65.748840 71.112007,59.465797 71.112175,53.182755 
	C71.112442,43.016766 71.147675,32.850590 71.092934,22.684895 
	C71.075645,19.474072 71.896072,16.763483 75.578888,16.838917 
	C79.245750,16.914024 79.920319,19.693920 79.910461,22.865221 
	C79.859810,39.166855 79.886986,55.468731 79.886986,72.040848 
	C101.966179,72.040848 123.713615,72.040848 145.984940,72.040848 
	C145.984940,66.041138 145.984924,59.916336 145.984940,53.791531 
	C145.984970,43.292229 146.026382,32.792664 145.959320,22.293789 
	C145.939774,19.232790 146.749176,16.835531 150.205322,16.818293 
	C153.696564,16.800877 154.519104,19.334332 154.519379,22.298651 
	C154.520660,36.964340 154.520630,51.630032 154.521057,66.295723 
	C154.521118,68.101837 154.521088,69.907951 154.521088,72.313072 
	C158.067978,72.313072 161.348129,72.312988 164.628265,72.313095 
	C177.460739,72.313515 190.293259,72.328346 203.125687,72.304054 
	C206.212173,72.298210 209.181488,72.862839 209.268005,76.544876 
	C209.363281,80.599442 206.296066,81.037842 202.975632,81.023743 
	C186.995911,80.955856 171.015732,80.993210 154.779205,80.993210 
	C154.779205,103.022041 154.779205,124.768707 154.779205,147.064606 
	C159.408844,147.064606 164.201538,147.064590 168.994247,147.064590 
	C180.326828,147.064606 191.659409,147.076401 202.991959,147.057190 
	C206.234863,147.051697 209.923264,146.794327 209.996185,151.306076 
	C210.075562,156.216736 206.119766,155.826172 202.759583,155.828064 
	C188.427200,155.836151 174.094818,155.831604 159.762436,155.831665 
	C158.133606,155.831665 156.504791,155.831650 154.521088,155.831650 
	C154.521088,170.909912 154.521194,185.531540 154.520950,200.153168 
	C154.520920,201.653061 154.555313,203.154068 154.509964,204.652634 
	C154.422562,207.540344 153.785034,210.153687 150.166260,210.087616 
	C146.634232,210.023148 145.955124,207.604904 145.964264,204.591690 
	C146.009766,189.592819 145.984970,174.593750 145.984909,159.594742 
	C145.984909,158.460785 145.984909,157.326813 145.984909,156.025940 
	C123.832878,156.025940 102.092766,156.025940 79.887856,156.025940 
	C79.887856,167.139816 79.887856,178.089081 79.887856,189.038361 
	C79.887856,193.538071 79.901642,198.037827 79.883278,202.537460 
	C79.869728,205.857254 80.432861,209.931717 75.601295,210.031006 
	C70.768982,210.130280 71.104042,206.155823 71.107101,202.760178 
	C71.119560,188.927765 71.112198,175.095352 71.112144,161.262939 
	C71.112137,159.627426 71.112144,157.991898 71.112144,155.831635 
	C66.707634,155.831635 62.600933,155.831635 57.994602,155.831635 
M100.500137,80.994942 
	C93.727318,80.994942 86.954506,80.994942 80.104309,80.994942 
	C80.104309,103.218834 80.104309,124.942795 80.104309,146.719269 
	C102.161659,146.719269 124.002586,146.719269 145.687820,146.719269 
	C145.687820,124.647652 145.687820,102.920700 145.687820,80.994942 
	C130.762192,80.994942 116.131149,80.994942 100.500137,80.994942 
z"/>
<path fill="#F8F8F8" opacity="1.000000" stroke="none" 
	d="
M95.685547,50.231541 
	C89.959053,40.989265 90.045876,33.040546 95.715080,25.401487 
	C100.786331,18.568150 110.404922,15.197220 118.895393,17.277719 
	C127.824142,19.465616 134.154083,26.523432 135.466248,35.753990 
	C136.524719,43.199986 132.084259,51.788601 125.059502,55.882442 
	C117.029114,60.562340 106.958893,59.992653 99.810730,54.353107 
	C98.388435,53.230988 97.213326,51.795567 95.685547,50.231541 
M121.504684,27.821077 
	C119.384209,26.991835 117.329697,25.773050 115.131821,25.400831 
	C105.652161,23.795420 97.523895,33.182213 100.761803,41.812733 
	C102.719719,47.031452 107.180168,50.138248 112.954292,50.305038 
	C119.005417,50.479832 123.919380,47.536037 126.043221,42.375187 
	C128.389587,36.673584 126.505356,32.090527 121.504684,27.821077 
z"/>
<path fill="#F8F8F8" opacity="1.000000" stroke="none" 
	d="
M121.528458,208.857773 
	C108.246674,212.912796 95.286041,206.432114 92.104477,194.444809 
	C89.035286,182.880905 96.226173,171.549026 108.578438,168.484055 
	C119.174072,165.854950 130.487640,171.915314 134.303268,182.264145 
	C138.174683,192.764297 133.427460,202.919815 121.528458,208.857773 
M107.042282,178.079391 
	C106.215912,178.631439 105.320076,179.103241 104.574554,179.748672 
	C100.019447,183.692307 98.738678,189.038589 101.084976,194.091278 
	C103.529335,199.355103 109.746445,202.559982 115.523026,201.534012 
	C121.943123,200.393738 126.481140,195.903183 126.998672,190.178375 
	C127.490196,184.741348 124.096016,179.020493 118.453247,177.610001 
	C115.128670,176.778961 111.369438,177.686783 107.042282,178.079391 
z"/>
<path fill="#F8F8F8" opacity="1.000000" stroke="none" 
	d="
M181.365112,133.896606 
	C170.801453,129.729279 165.221817,122.583687 165.163223,113.593391 
	C165.110458,105.497139 170.631485,97.422752 178.474411,94.126060 
	C187.293732,90.418953 197.749786,92.686516 204.038971,99.670135 
	C209.999329,106.288643 211.057648,116.048561 206.647476,123.726013 
	C201.826736,132.118210 192.330231,136.023499 181.365112,133.896606 
M182.687225,125.195984 
	C193.358643,129.107391 202.783676,119.457794 200.652237,111.079475 
	C199.093323,104.951569 194.014694,101.035744 187.583725,100.946648 
	C181.230423,100.858620 175.585464,104.906441 174.136780,110.589027 
	C172.681335,116.298119 175.409790,121.364754 182.687225,125.195984 
z"/>
<path fill="#F8F8F8" opacity="1.000000" stroke="none" 
	d="
M60.888420,36.249619 
	C60.671268,47.267750 54.991413,55.108715 45.461090,58.002529 
	C36.000538,60.875160 25.656374,57.477547 20.380705,49.430000 
	C15.708117,42.302395 15.269195,34.721798 19.749447,27.381153 
	C24.869900,18.991566 32.761154,15.731070 42.323780,17.085733 
	C50.918015,18.303211 56.770061,23.331812 59.828072,31.477962 
	C60.347603,32.861935 60.528290,34.373116 60.888420,36.249619 
M27.324085,31.064743 
	C24.352915,37.400486 24.884027,42.486980 28.937527,46.516769 
	C32.841415,50.397823 39.930172,51.488461 45.082981,49.000816 
	C50.112309,46.572784 52.848370,41.605236 52.062813,36.007008 
	C51.346157,30.899813 48.169033,27.659174 43.469624,26.101456 
	C37.379627,24.082800 32.078907,25.573933 27.324085,31.064743 
z"/>
<path fill="#F8F8F8" opacity="1.000000" stroke="none" 
	d="
M44.304855,200.685547 
	C42.498154,198.710144 40.947433,196.992249 38.962597,194.793427 
	C35.662594,198.165619 32.825375,201.083511 29.966452,203.979980 
	C27.996313,205.975967 25.769110,206.924515 23.450356,204.692688 
	C20.934450,202.271088 21.884319,199.918869 24.064770,197.808533 
	C26.905365,195.059296 29.765711,192.330460 33.381268,188.859756 
	C29.868563,185.675049 26.784615,182.938477 23.770643,180.126923 
	C21.527287,178.034210 20.798306,175.601212 23.212809,173.229248 
	C25.529009,170.953842 27.697361,171.991806 29.670637,174.013977 
	C32.571777,176.987000 35.524200,179.910004 39.156635,183.559464 
	C41.964874,180.464890 44.702312,177.373062 47.525772,174.361893 
	C49.608387,172.140823 52.007565,171.304108 54.382607,173.840485 
	C56.579250,176.186340 55.574486,178.427887 53.587807,180.347855 
	C50.726994,183.112564 47.796253,185.804916 44.509254,188.890640 
	C47.811275,192.173431 50.696205,195.037689 53.576603,197.906509 
	C55.601849,199.923599 57.236973,202.162979 54.638309,204.725479 
	C51.992809,207.334122 49.545952,206.109665 47.372570,203.769867 
	C46.468605,202.796677 45.500034,201.883514 44.304855,200.685547 
z"/>
<path fill="#F9F9F9" opacity="1.000000" stroke="none" 
	d="
M195.678162,23.552179 
	C197.985840,21.189911 200.278320,19.807444 202.765015,22.422874 
	C205.377457,25.170530 203.872208,27.540026 201.614120,29.688246 
	C198.966019,32.207531 196.354614,34.765396 192.361969,38.627106 
	C195.651505,41.308502 198.742035,43.739651 201.729660,46.291283 
	C204.057114,48.279072 205.694473,50.712460 203.118057,53.491631 
	C200.460587,56.358234 198.095810,54.711449 195.950211,52.446934 
	C193.216827,49.562027 190.428955,46.728733 187.285370,43.481499 
	C184.198486,46.744812 181.387817,49.806419 178.473251,52.765690 
	C176.514542,54.754456 173.808578,55.814926 172.163437,53.164101 
	C171.236038,51.669765 171.546371,48.296200 172.680481,46.859871 
	C175.207947,43.658901 178.602997,41.142971 182.051956,37.973480 
	C178.210403,34.326447 174.793182,31.597504 172.105621,28.277851 
	C171.026672,26.945139 171.550766,24.314594 171.345245,22.274755 
	C173.539780,22.330620 176.395645,21.530262 177.797211,22.612801 
	C181.168777,25.216932 183.858841,28.703382 187.473938,32.520287 
	C190.380692,29.339504 192.903320,26.579060 195.678162,23.552179 
z"/>
<path fill="#000000" opacity="1.000000" stroke="none" 
	d="
M101.000122,80.994942 
	C116.131149,80.994942 130.762192,80.994942 145.687820,80.994942 
	C145.687820,102.920700 145.687820,124.647652 145.687820,146.719269 
	C124.002586,146.719269 102.161659,146.719269 80.104309,146.719269 
	C80.104309,124.942795 80.104309,103.218834 80.104309,80.994942 
	C86.954506,80.994942 93.727318,80.994942 101.000122,80.994942 
M105.237259,115.685013 
	C103.003845,117.919815 100.317177,119.874695 98.701363,122.490929 
	C97.677780,124.148254 98.249535,126.790871 98.105804,128.991592 
	C100.306870,128.783279 103.074348,129.337173 104.592064,128.209290 
	C107.835274,125.799126 110.431419,122.518257 113.630287,119.248970 
	C116.818504,122.604797 119.543709,125.513786 122.315681,128.377518 
	C124.349442,130.478607 126.669655,131.738312 129.190872,129.281296 
	C131.702515,126.833641 130.616089,124.442833 128.460297,122.415985 
	C125.453514,119.589050 122.346344,116.868881 118.790161,113.658951 
	C122.451118,110.239784 125.721077,107.795845 128.122055,104.681885 
	C129.294342,103.161484 129.844757,99.741730 128.921494,98.327637 
	C127.124306,95.575027 124.293427,96.545387 122.179008,98.763206 
	C119.429771,101.646881 116.745781,104.592758 113.383842,108.211342 
	C109.889153,104.392891 107.123985,100.793266 103.720818,97.959961 
	C102.493599,96.938232 99.734367,97.756638 97.674263,97.735313 
	C97.736801,99.796677 97.034210,102.390488 98.021080,103.808624 
	C100.078369,106.764977 103.145439,108.999107 105.530258,111.760834 
	C106.124245,112.448708 105.700394,114.015488 105.237259,115.685013 
z"/>
<path fill="#040404" opacity="1.000000" stroke="none" 
	d="
M121.832642,28.011131 
	C126.505356,32.090527 128.389587,36.673584 126.043221,42.375187 
	C123.919380,47.536037 119.005417,50.479832 112.954292,50.305038 
	C107.180168,50.138248 102.719719,47.031452 100.761803,41.812733 
	C97.523895,33.182213 105.652161,23.795420 115.131821,25.400831 
	C117.329697,25.773050 119.384209,26.991835 121.832642,28.011131 
z"/>
<path fill="#040404" opacity="1.000000" stroke="none" 
	d="
M107.423988,177.945984 
	C111.369438,177.686783 115.128670,176.778961 118.453247,177.610001 
	C124.096016,179.020493 127.490196,184.741348 126.998672,190.178375 
	C126.481140,195.903183 121.943123,200.393738 115.523026,201.534012 
	C109.746445,202.559982 103.529335,199.355103 101.084976,194.091278 
	C98.738678,189.038589 100.019447,183.692307 104.574554,179.748672 
	C105.320076,179.103241 106.215912,178.631439 107.423988,177.945984 
z"/>
<path fill="#030303" opacity="1.000000" stroke="none" 
	d="
M182.297852,125.108353 
	C175.409790,121.364754 172.681335,116.298119 174.136780,110.589027 
	C175.585464,104.906441 181.230423,100.858620 187.583725,100.946648 
	C194.014694,101.035744 199.093323,104.951569 200.652237,111.079475 
	C202.783676,119.457794 193.358643,129.107391 182.297852,125.108353 
z"/>
<path fill="#030303" opacity="1.000000" stroke="none" 
	d="
M27.596075,30.799923 
	C32.078907,25.573933 37.379627,24.082800 43.469624,26.101456 
	C48.169033,27.659174 51.346157,30.899813 52.062813,36.007008 
	C52.848370,41.605236 50.112309,46.572784 45.082981,49.000816 
	C39.930172,51.488461 32.841415,50.397823 28.937527,46.516769 
	C24.884027,42.486980 24.352915,37.400486 27.596075,30.799923 
z"/>
<path fill="#EFEFEF" opacity="1.000000" stroke="none" 
	d="
M105.490814,115.431656 
	C105.700394,114.015488 106.124245,112.448708 105.530258,111.760834 
	C103.145439,108.999107 100.078369,106.764977 98.021080,103.808624 
	C97.034210,102.390488 97.736801,99.796677 97.674263,97.735313 
	C99.734367,97.756638 102.493599,96.938232 103.720818,97.959961 
	C107.123985,100.793266 109.889153,104.392891 113.383842,108.211342 
	C116.745781,104.592758 119.429771,101.646881 122.179008,98.763206 
	C124.293427,96.545387 127.124306,95.575027 128.921494,98.327637 
	C129.844757,99.741730 129.294342,103.161484 128.122055,104.681885 
	C125.721077,107.795845 122.451118,110.239784 118.790161,113.658951 
	C122.346344,116.868881 125.453514,119.589050 128.460297,122.415985 
	C130.616089,124.442833 131.702515,126.833641 129.190872,129.281296 
	C126.669655,131.738312 124.349442,130.478607 122.315681,128.377518 
	C119.543709,125.513786 116.818504,122.604797 113.630287,119.248970 
	C110.431419,122.518257 107.835274,125.799126 104.592064,128.209290 
	C103.074348,129.337173 100.306870,128.783279 98.105804,128.991592 
	C98.249535,126.790871 97.677780,124.148254 98.701363,122.490929 
	C100.317177,119.874695 103.003845,117.919815 105.490814,115.431656 
z"/>
</svg>