<svg version="1.1" id="Layer_1" xmlns="http://www.w3.org/2000/svg" xmlns:xlink="http://www.w3.org/1999/xlink" x="0px" y="0px"
	 width="100%" viewBox="0 0 1096 933" enable-background="new 0 0 1096 933" xml:space="preserve">
<path fill="#000001" opacity="1.000000" stroke="none" 
	d="
M646.000000,934.000000 
	C430.693115,934.000000 215.886215,934.000000 1.039664,934.000000 
	C1.039664,623.064697 1.039664,312.129456 1.039664,1.097082 
	C366.223602,1.097082 731.447266,1.097082 1096.835449,1.097082 
	C1096.835449,311.999939 1096.835449,622.999939 1096.835449,934.000000 
	C946.795959,934.000000 796.648010,934.000000 646.000000,934.000000 
M383.494324,166.501358 
	C386.691833,163.275818 389.889374,160.050278 392.408234,157.509338 
	C384.240967,149.425949 376.631256,141.894440 369.529327,134.865448 
	C361.521942,142.554153 353.042206,150.696411 343.958740,159.070267 
	C334.621307,168.304169 325.268036,177.522186 315.962616,186.788269 
	C314.482178,188.262466 313.179321,189.755371 310.852539,187.093353 
	C292.672516,169.130142 274.492523,151.166916 256.788788,133.674301 
	C249.175995,141.378433 241.617737,149.027405 234.003342,156.733185 
	C235.087006,158.106964 236.506302,159.906250 237.341431,162.080063 
	C234.258057,164.803818 231.174667,167.527588 227.578156,170.704636 
	C245.509735,188.524994 262.532837,205.442505 279.227142,222.957520 
	C276.811157,225.622849 274.395203,228.288193 271.352356,231.195145 
	C258.639526,244.101624 245.926682,257.008118 233.191742,269.937012 
	C234.597534,271.777649 235.981400,273.589539 236.843536,275.938660 
	C233.947784,278.818848 231.052032,281.699036 228.888107,283.851318 
	C236.824539,291.708740 244.434082,299.242493 253.301300,308.021393 
	C271.351013,289.622101 289.933136,270.680084 308.700378,251.549347 
	C327.519135,270.162445 346.289825,288.727966 364.770660,307.006866 
	C372.085175,299.590515 379.637939,291.932587 387.248199,284.216370 
	C386.243469,283.128998 384.892242,281.666626 383.890442,279.567871 
	C386.977539,276.374054 390.064667,273.180206 393.652435,269.468414 
	C378.721771,254.702393 364.143921,240.320663 349.617432,225.887207 
	C346.917603,223.204681 344.424805,220.313812 342.402710,217.038040 
	C357.376404,201.852966 372.350128,186.667892 387.987671,170.809601 
	C386.465149,169.605988 384.901215,168.369644 383.494324,166.501358 
M519.114380,135.643509 
	C507.913696,140.284058 498.037140,146.816681 489.411163,156.290268 
	C477.603821,168.714874 470.463043,183.526443 466.441895,200.664764 
	C460.981323,215.305298 459.512817,230.390503 462.214996,245.726242 
	C469.295807,285.912964 501.880157,313.205627 538.695496,317.662720 
	C573.739807,321.905396 611.189087,301.418915 626.688171,268.090454 
	C627.540833,266.256897 627.504089,264.009735 628.235352,261.342346 
	C629.201599,259.837158 630.428223,258.438477 631.094177,256.810425 
	C638.306091,239.178070 642.602295,221.036636 639.112915,201.899216 
	C634.265320,175.312332 620.694519,154.604584 596.519470,140.473389 
	C584.012268,133.119720 570.549072,129.157196 555.083191,128.868439 
	C542.875366,128.601379 531.049500,130.356552 519.114380,135.643509 
M865.510071,166.499512 
	C868.910095,163.591125 872.310120,160.682755 875.443787,158.002213 
	C866.726074,149.346527 859.100952,141.775589 851.786011,134.512665 
	C842.336487,143.665771 832.571289,153.124619 822.171509,162.852951 
	C814.531250,170.396469 806.937195,177.987869 799.209045,185.440247 
	C797.786987,186.811523 795.821350,187.619125 793.841125,188.096924 
	C787.325134,181.685165 780.809204,175.273392 774.032288,168.228180 
	C762.228882,156.456726 750.425537,144.685272 739.112366,133.402710 
	C731.174316,141.396912 723.623596,149.001038 716.034607,156.643753 
	C717.148560,158.096390 718.536682,159.906540 719.347351,162.100983 
	C716.261902,164.838806 713.176392,167.576630 709.494629,170.843567 
	C727.426941,188.594711 744.434875,205.430878 761.216553,222.874237 
	C760.475891,223.912598 759.735229,224.950958 758.370728,226.233353 
	C744.068726,240.798477 729.766724,255.363602 714.654297,270.754028 
	C716.180481,271.943329 717.999939,273.361206 719.344604,275.232758 
	C716.139832,278.123596 712.935059,281.014465 709.916504,283.737366 
	C718.196899,291.942261 725.835144,299.510895 734.162354,307.762207 
	C752.493713,289.123993 771.115356,270.190613 789.915161,251.076050 
	C809.244873,270.191071 828.094666,288.831482 846.482056,307.014648 
	C854.002869,299.391968 861.546204,291.746460 869.219849,283.968872 
	C868.337769,283.131256 867.012268,281.872650 865.896606,279.997162 
	C868.959351,276.616943 872.022156,273.236694 874.676086,270.307678 
	C859.964966,255.285583 845.588684,240.605362 830.942627,225.303009 
	C828.582031,222.697495 826.221497,220.091965 824.437500,217.019135 
	C839.411987,201.855759 854.386475,186.692398 869.454163,171.434662 
	C868.070862,169.986694 866.703247,168.555084 865.510071,166.499512 
M591.417908,606.713196 
	C576.392517,599.270447 560.563660,596.430603 543.012573,598.356934 
	C507.891052,602.040955 475.227020,628.096191 466.449432,669.644775 
	C460.977234,684.284546 459.657227,699.345764 462.185059,714.713928 
	C468.488464,753.036560 499.393829,781.660156 539.704224,786.645508 
	C575.693237,791.096436 613.355347,768.800964 627.911438,734.343750 
	C628.585693,732.747559 628.561096,730.856140 629.241821,728.446045 
	C631.814514,721.947388 635.012878,715.619690 636.843140,708.918213 
	C642.432678,688.451904 641.612305,668.317139 632.111023,648.226074 
	C627.862610,641.766663 623.614258,635.307251 619.148438,628.191162 
	C611.600891,619.236267 602.679993,612.053711 591.417908,606.713196 
M902.712891,354.115631 
	C902.755005,343.885986 896.767517,336.792358 887.576355,336.681854 
	C875.935242,336.541901 864.290161,336.755188 852.646790,336.764526 
	C827.696472,336.784546 802.746216,336.770172 777.795898,336.772156 
	C752.179688,336.774200 726.563477,336.779175 700.947266,336.782318 
	C693.047546,336.783264 685.147827,336.782471 677.064758,336.782471 
	C677.064758,323.954742 677.066162,311.976379 677.064453,299.998047 
	C677.060059,269.374908 677.043457,238.751785 677.052185,208.128662 
	C677.060059,180.666306 677.166748,153.203720 677.075867,125.741745 
	C677.047974,117.314911 670.038940,110.670586 661.608459,110.532089 
	C652.967651,110.390152 645.667725,117.085831 645.612122,125.709106 
	C645.502869,142.671249 645.688843,159.635086 645.708435,176.598282 
	C645.734192,198.884323 645.722595,221.170410 645.717163,243.456467 
	C645.711548,266.239227 645.692871,289.022003 645.682373,311.804779 
	C645.678528,320.046356 645.681763,328.287933 645.681763,336.456055 
	C580.047363,336.456055 515.125305,336.456055 449.962616,336.456055 
	C449.962616,311.288940 449.964050,286.510651 449.962280,261.732330 
	C449.959076,216.800766 449.939606,171.869202 449.961487,126.937637 
	C449.966003,117.684624 443.111267,110.509911 434.110840,110.526520 
	C424.932190,110.543457 417.998779,118.031761 418.290436,127.493279 
	C418.423340,131.805664 418.371277,136.124313 418.371338,140.440125 
	C418.371582,157.547623 418.344604,174.655121 418.355743,191.762604 
	C418.366974,209.031235 418.427582,226.299835 418.436707,243.568466 
	C418.445923,261.005157 418.415161,278.441833 418.408173,295.878510 
	C418.402802,309.298126 418.407104,322.717743 418.407104,336.722900 
	C415.461731,336.722900 413.007629,336.723602 410.553497,336.722778 
	C390.759277,336.716095 370.965088,336.699860 351.170868,336.704468 
	C325.887939,336.710388 300.604980,336.751801 275.322052,336.742767 
	C253.031982,336.734802 230.741211,336.563812 208.452225,336.702362 
	C200.017502,336.754761 193.519821,343.922089 193.531891,352.400635 
	C193.544281,361.102570 200.263412,368.048737 208.935928,368.171814 
	C214.926056,368.256836 220.918823,368.141968 226.910400,368.140778 
	C255.033142,368.135040 283.155884,368.144775 311.278625,368.135498 
	C339.235443,368.126251 367.192291,368.099884 395.149109,368.083405 
	C402.866852,368.078857 410.584595,368.082733 418.270233,368.082733 
	C418.270233,433.415131 418.270233,497.782379 418.270233,562.705811 
	C415.520660,562.705811 413.050964,562.706055 410.581268,562.705688 
	C377.452393,562.700623 344.323517,562.691284 311.194641,562.691467 
	C277.898651,562.691589 244.602417,562.776917 211.306839,562.661804 
	C200.855667,562.625671 193.440414,569.006226 193.532028,578.578125 
	C193.622284,588.009033 200.844360,594.309082 211.074921,594.233521 
	C228.226044,594.106812 245.378571,594.158508 262.530518,594.154541 
	C304.160614,594.144958 345.790710,594.146484 387.420807,594.143799 
	C397.541656,594.143188 407.662506,594.143738 418.088165,594.143738 
	C418.261780,596.976562 418.528351,599.265076 418.522461,601.552917 
	C418.471252,621.480042 418.302734,641.407043 418.303833,661.334045 
	C418.305054,683.917114 418.511139,706.500244 418.507355,729.083313 
	C418.503174,754.159668 418.301025,779.236084 418.314819,804.312378 
	C418.319702,813.172852 425.651550,820.082764 434.457703,819.929932 
	C443.038788,819.780945 449.862823,812.873474 449.950378,804.177002 
	C449.985565,800.683044 449.849792,797.187683 449.850555,793.692993 
	C449.856567,765.902405 449.886200,738.111877 449.889954,710.321289 
	C449.893738,682.364563 449.875305,654.407898 449.868317,626.451172 
	C449.865692,615.847900 449.867859,605.244629 449.867859,594.385010 
	C515.331421,594.385010 580.190735,594.385010 645.698303,594.385010 
	C645.698303,610.465576 645.707153,626.391968 645.696350,642.318420 
	C645.677368,670.091064 645.638977,697.863647 645.622314,725.636292 
	C645.606873,751.411865 645.693054,777.187927 645.560364,802.962830 
	C645.510864,812.573730 652.089172,819.919006 661.318542,819.932739 
	C670.526917,819.946350 677.178406,812.668152 677.129822,803.010010 
	C677.003357,777.879028 676.982666,752.747375 676.969604,727.616028 
	C676.950562,691.001404 676.975464,654.386780 676.981079,617.772156 
	C676.982239,610.023315 676.981201,602.274475 676.981201,594.169006 
	C680.266296,594.169006 682.740967,594.167419 685.215698,594.169250 
	C710.360413,594.188232 735.505127,594.219421 760.649841,594.224243 
	C802.280334,594.232239 843.910950,594.181946 885.541321,594.251587 
	C895.518616,594.268250 902.914795,587.586304 902.782104,578.244324 
	C902.651794,569.071045 895.356812,562.577332 885.635864,562.639160 
	C865.825867,562.765076 846.014771,562.750549 826.204163,562.758606 
	C784.252441,562.775696 742.300720,562.770264 700.348999,562.773804 
	C692.620300,562.774475 684.891663,562.773926 677.321655,562.773926 
	C677.321655,497.351990 677.321655,432.875610 677.321655,368.118988 
	C690.993042,368.118988 704.288818,368.117035 717.584656,368.119385 
	C745.374695,368.124268 773.164734,368.138062 800.954773,368.135834 
	C828.910522,368.133606 856.866760,368.027496 884.821838,368.153809 
	C894.606384,368.198029 900.029785,364.427368 902.712891,354.115631 
z"/>
<path fill="#FDFDFD" opacity="1.000000" stroke="none" 
	d="
M902.656006,354.516235 
	C900.029785,364.427368 894.606384,368.198029 884.821838,368.153809 
	C856.866760,368.027496 828.910522,368.133606 800.954773,368.135834 
	C773.164734,368.138062 745.374695,368.124268 717.584656,368.119385 
	C704.288818,368.117035 690.993042,368.118988 677.321655,368.118988 
	C677.321655,432.875610 677.321655,497.351990 677.321655,562.773926 
	C684.891663,562.773926 692.620300,562.774475 700.348999,562.773804 
	C742.300720,562.770264 784.252441,562.775696 826.204163,562.758606 
	C846.014771,562.750549 865.825867,562.765076 885.635864,562.639160 
	C895.356812,562.577332 902.651794,569.071045 902.782104,578.244324 
	C902.914795,587.586304 895.518616,594.268250 885.541321,594.251587 
	C843.910950,594.181946 802.280334,594.232239 760.649841,594.224243 
	C735.505127,594.219421 710.360413,594.188232 685.215698,594.169250 
	C682.740967,594.167419 680.266296,594.169006 676.981201,594.169006 
	C676.981201,602.274475 676.982239,610.023315 676.981079,617.772156 
	C676.975464,654.386780 676.950562,691.001404 676.969604,727.616028 
	C676.982666,752.747375 677.003357,777.879028 677.129822,803.010010 
	C677.178406,812.668152 670.526917,819.946350 661.318542,819.932739 
	C652.089172,819.919006 645.510864,812.573730 645.560364,802.962830 
	C645.693054,777.187927 645.606873,751.411865 645.622314,725.636292 
	C645.638977,697.863647 645.677368,670.091064 645.696350,642.318420 
	C645.707153,626.391968 645.698303,610.465576 645.698303,594.385010 
	C580.190735,594.385010 515.331421,594.385010 449.867859,594.385010 
	C449.867859,605.244629 449.865692,615.847900 449.868317,626.451172 
	C449.875305,654.407898 449.893738,682.364563 449.889954,710.321289 
	C449.886200,738.111877 449.856567,765.902405 449.850555,793.692993 
	C449.849792,797.187683 449.985565,800.683044 449.950378,804.177002 
	C449.862823,812.873474 443.038788,819.780945 434.457703,819.929932 
	C425.651550,820.082764 418.319702,813.172852 418.314819,804.312378 
	C418.301025,779.236084 418.503174,754.159668 418.507355,729.083313 
	C418.511139,706.500244 418.305054,683.917114 418.303833,661.334045 
	C418.302734,641.407043 418.471252,621.480042 418.522461,601.552917 
	C418.528351,599.265076 418.261780,596.976562 418.088165,594.143738 
	C407.662506,594.143738 397.541656,594.143188 387.420807,594.143799 
	C345.790710,594.146484 304.160614,594.144958 262.530518,594.154541 
	C245.378571,594.158508 228.226044,594.106812 211.074921,594.233521 
	C200.844360,594.309082 193.622284,588.009033 193.532028,578.578125 
	C193.440414,569.006226 200.855667,562.625671 211.306839,562.661804 
	C244.602417,562.776917 277.898651,562.691589 311.194641,562.691467 
	C344.323517,562.691284 377.452393,562.700623 410.581268,562.705688 
	C413.050964,562.706055 415.520660,562.705811 418.270233,562.705811 
	C418.270233,497.782379 418.270233,433.415131 418.270233,368.082733 
	C410.584595,368.082733 402.866852,368.078857 395.149109,368.083405 
	C367.192291,368.099884 339.235443,368.126251 311.278625,368.135498 
	C283.155884,368.144775 255.033142,368.135040 226.910400,368.140778 
	C220.918823,368.141968 214.926056,368.256836 208.935928,368.171814 
	C200.263412,368.048737 193.544281,361.102570 193.531891,352.400635 
	C193.519821,343.922089 200.017502,336.754761 208.452225,336.702362 
	C230.741211,336.563812 253.031982,336.734802 275.322052,336.742767 
	C300.604980,336.751801 325.887939,336.710388 351.170868,336.704468 
	C370.965088,336.699860 390.759277,336.716095 410.553497,336.722778 
	C413.007629,336.723602 415.461731,336.722900 418.407104,336.722900 
	C418.407104,322.717743 418.402802,309.298126 418.408173,295.878510 
	C418.415161,278.441833 418.445923,261.005157 418.436707,243.568466 
	C418.427582,226.299835 418.366974,209.031235 418.355743,191.762604 
	C418.344604,174.655121 418.371582,157.547623 418.371338,140.440125 
	C418.371277,136.124313 418.423340,131.805664 418.290436,127.493279 
	C417.998779,118.031761 424.932190,110.543457 434.110840,110.526520 
	C443.111267,110.509911 449.966003,117.684624 449.961487,126.937637 
	C449.939606,171.869202 449.959076,216.800766 449.962280,261.732330 
	C449.964050,286.510651 449.962616,311.288940 449.962616,336.456055 
	C515.125305,336.456055 580.047363,336.456055 645.681763,336.456055 
	C645.681763,328.287933 645.678528,320.046356 645.682373,311.804779 
	C645.692871,289.022003 645.711548,266.239227 645.717163,243.456467 
	C645.722595,221.170410 645.734192,198.884323 645.708435,176.598282 
	C645.688843,159.635086 645.502869,142.671249 645.612122,125.709106 
	C645.667725,117.085831 652.967651,110.390152 661.608459,110.532089 
	C670.038940,110.670586 677.047974,117.314911 677.075867,125.741745 
	C677.166748,153.203720 677.060059,180.666306 677.052185,208.128662 
	C677.043457,238.751785 677.060059,269.374908 677.064453,299.998047 
	C677.066162,311.976379 677.064758,323.954742 677.064758,336.782471 
	C685.147827,336.782471 693.047546,336.783264 700.947266,336.782318 
	C726.563477,336.779175 752.179688,336.774200 777.795898,336.772156 
	C802.746216,336.770172 827.696472,336.784546 852.646790,336.764526 
	C864.290161,336.755188 875.935242,336.541901 887.576355,336.681854 
	C896.767517,336.792358 902.755005,343.885986 902.656006,354.516235 
M449.917358,470.501465 
	C449.917358,501.066193 449.917358,531.630920 449.917358,562.361816 
	C515.369568,562.361816 580.464600,562.361816 645.556824,562.361816 
	C645.556824,497.477539 645.556824,433.026154 645.556824,368.372620 
	C580.233948,368.372620 515.156067,368.372620 449.947479,368.372620 
	C449.947479,402.331573 449.947479,435.916016 449.917358,470.501465 
z"/>
<path fill="#17C9FD" opacity="1.000000" stroke="none" 
	d="
M271.979248,230.953522 
	C274.395203,228.288193 276.811157,225.622849 279.668335,222.506302 
	C283.182678,219.121841 286.255859,216.188599 290.477631,212.159073 
	C288.359955,210.735275 286.623016,209.923141 285.342529,208.651398 
	C272.841827,196.235855 260.434174,183.726715 247.959854,171.284485 
	C244.686676,168.019745 241.274155,164.894714 237.925613,161.705536 
	C236.506302,159.906250 235.087006,158.106964 234.003342,156.733185 
	C241.617737,149.027405 249.175995,141.378433 256.788788,133.674301 
	C274.492523,151.166916 292.672516,169.130142 310.953949,187.836929 
	C311.984375,194.066391 312.627136,199.620911 313.921783,205.019104 
	C315.252808,210.568848 317.080170,216.014816 318.962402,221.411285 
	C320.062653,224.565720 320.898743,228.517899 323.232849,230.408310 
	C331.281403,236.926910 330.941193,245.902542 331.385986,254.506317 
	C325.053284,248.516327 319.015381,242.716248 311.534607,235.530136 
	C302.146790,245.619522 293.116302,255.324875 283.726013,264.985657 
	C281.803528,262.763855 280.228241,260.595520 278.681549,258.406982 
	C276.973785,255.990540 275.643280,253.176666 273.522369,251.211639 
	C269.727783,247.696014 269.112213,244.370193 271.056732,239.599457 
	C272.107849,237.020554 271.718628,233.854614 271.979248,230.953522 
z"/>
<path fill="#56A0FD" opacity="1.000000" stroke="none" 
	d="
M466.968811,669.175659 
	C475.227020,628.096191 507.891052,602.040955 543.478638,598.814087 
	C544.301147,600.526428 544.492615,601.859924 545.044250,603.022461 
	C546.916138,606.967102 547.957886,610.552673 543.815063,614.024475 
	C542.570923,615.067078 542.009460,617.624878 542.107483,619.435974 
	C542.391602,624.682190 540.567444,628.941650 537.642334,633.171143 
	C535.866455,635.738892 535.178894,639.059326 533.715942,642.227783 
	C531.430115,643.582520 529.332214,644.611633 527.447754,645.942810 
	C517.243591,653.150574 509.646118,662.135681 507.988525,675.032410 
	C507.980072,674.992371 508.058624,674.969299 507.884521,675.037842 
	C507.696198,675.423645 507.681976,675.740845 507.644958,676.325806 
	C507.359589,677.060669 507.097015,677.527893 506.448059,678.006836 
	C505.041748,679.409790 503.824463,680.702148 503.062988,682.222778 
	C502.430939,683.484924 502.676025,685.230286 501.944763,686.391296 
	C498.341034,692.112854 494.753174,697.867004 490.746826,703.305542 
	C487.300537,707.983826 483.022095,712.173340 486.657288,718.644043 
	C486.790192,718.880615 486.635345,719.289185 486.589844,719.614075 
	C485.897644,724.555786 485.201324,729.496948 484.450928,734.829407 
	C484.058746,734.867188 482.925262,734.976501 481.519592,734.888794 
	C477.752625,727.755127 473.707001,721.034851 470.879242,713.836182 
	C465.219269,699.427673 464.889618,684.361511 466.968811,669.175659 
z"/>
<path fill="#20BEFD" opacity="1.000000" stroke="none" 
	d="
M331.680756,254.696198 
	C330.941193,245.902542 331.281403,236.926910 323.232849,230.408310 
	C320.898743,228.517899 320.062653,224.565720 318.962402,221.411285 
	C317.080170,216.014816 315.252808,210.568848 313.921783,205.019104 
	C312.627136,199.620911 311.984375,194.066391 311.087830,188.134186 
	C313.179321,189.755371 314.482178,188.262466 315.962616,186.788269 
	C325.268036,177.522186 334.621307,168.304169 344.642120,159.018814 
	C351.463562,162.589630 351.887573,169.641052 354.898224,175.127228 
	C355.621216,176.444717 356.015869,178.708878 355.369049,179.877792 
	C352.697449,184.705933 355.174286,187.989685 357.960022,191.587708 
	C350.784851,198.772141 343.754730,205.669724 336.333130,212.951385 
	C338.620178,214.849594 340.228333,216.184341 341.836487,217.519089 
	C344.424805,220.313812 346.917603,223.204681 349.617432,225.887207 
	C364.143921,240.320663 378.721771,254.702393 393.652435,269.468414 
	C390.064667,273.180206 386.977539,276.374054 383.434448,279.994690 
	C378.573883,284.561981 374.169312,288.702515 370.699524,291.964325 
	C357.354706,279.218231 344.517731,266.957214 331.680756,254.696198 
z"/>
<path fill="#389AFC" opacity="1.000000" stroke="none" 
	d="
M466.953583,200.195450 
	C470.463043,183.526443 477.603821,168.714874 490.081696,156.156311 
	C491.583221,157.411087 493.399597,159.091537 493.088562,160.142197 
	C490.699371,168.212784 491.362885,175.343475 497.855682,181.404877 
	C502.498444,185.739120 506.243561,190.677124 507.150116,197.286591 
	C507.240875,197.948105 508.446716,198.456665 509.121765,199.432861 
	C508.737213,201.909744 508.365906,203.989990 507.985565,206.029480 
	C507.976532,205.988693 508.056030,205.963013 507.846771,206.060425 
	C507.531036,206.587067 507.424591,207.016296 507.262085,207.896347 
	C504.672058,218.739868 507.505981,228.349838 511.165344,237.993500 
	C510.618713,243.238266 513.004578,249.123520 505.546997,251.555725 
	C509.391571,255.881577 510.769470,259.583679 508.451630,264.709320 
	C506.101379,269.906677 506.639679,275.707794 509.054504,281.014893 
	C510.620728,284.457001 509.977081,287.363159 507.417297,290.094635 
	C489.610840,279.274933 477.650452,264.088043 470.706848,244.847794 
	C465.454498,230.293945 464.925842,215.355087 466.953583,200.195450 
z"/>
<path fill="#5077FD" opacity="1.000000" stroke="none" 
	d="
M597.001526,140.968002 
	C620.694519,154.604584 634.265320,175.312332 639.112915,201.899216 
	C642.602295,221.036636 638.306091,239.178070 631.094177,256.810425 
	C630.428223,258.438477 629.201599,259.837158 627.760010,261.794159 
	C625.225586,264.559967 623.166443,266.873993 620.904846,268.884460 
	C618.809021,264.664124 615.515991,260.808075 615.342712,256.816589 
	C615.066650,250.455917 611.700439,246.161285 608.949585,241.098389 
	C605.948730,235.575134 602.035217,229.733444 606.394348,222.774246 
	C608.157593,219.959229 603.308899,211.362061 599.518799,209.693207 
	C598.822571,206.728745 598.298035,204.092041 597.962646,201.124451 
	C600.715271,196.486893 604.185669,192.491211 602.510071,186.811920 
	C602.270630,186.000351 602.619873,184.841949 603.050903,184.032776 
	C606.841797,176.916565 605.291016,170.490387 600.875610,164.245407 
	C598.651794,161.100098 596.762695,157.698227 599.982788,155.424088 
	C598.876343,150.058929 597.938965,145.513474 597.001526,140.968002 
z"/>
<path fill="#7187FD" opacity="1.000000" stroke="none" 
	d="
M619.365845,628.847839 
	C623.614258,635.307251 627.862610,641.766663 631.776245,648.761597 
	C629.960876,655.108826 628.586975,660.950684 626.956970,666.720276 
	C626.080566,669.822449 625.516724,673.516174 623.470154,675.665588 
	C620.468872,678.817810 620.028687,682.050049 619.899841,685.984802 
	C619.744995,690.712036 619.942688,695.946716 617.986206,699.994141 
	C615.513977,705.108765 610.923096,709.191589 611.832214,715.656250 
	C611.904541,716.170105 611.384521,717.098083 610.909424,717.305237 
	C607.495667,718.793701 608.430908,721.843140 607.909912,724.545654 
	C606.725464,730.689270 605.985168,737.189575 603.312561,742.694336 
	C600.922180,747.617920 599.316895,751.963928 600.759644,757.438599 
	C590.232117,765.268188 578.523499,769.169739 565.951599,770.573181 
	C563.899719,766.496277 565.691528,763.604248 567.822205,760.714294 
	C569.276428,758.741760 571.214722,756.796997 571.749878,754.556396 
	C572.474243,751.523621 571.230530,747.811829 576.009399,747.053467 
	C576.299072,747.007507 576.301392,744.778503 576.334717,743.562439 
	C576.419861,740.462708 576.145752,737.318848 576.576416,734.271973 
	C577.067261,730.799194 578.165649,727.412231 579.219604,723.736328 
	C586.110718,718.556274 591.522705,712.575989 595.202393,704.693726 
	C601.005859,692.513367 600.792114,680.344116 597.195862,667.889587 
	C605.715820,658.428589 611.672974,647.925659 614.980530,635.872253 
	C615.680420,633.321716 617.865234,631.178650 619.365845,628.847839 
z"/>
<path fill="#DEDFE1" opacity="1.000000" stroke="none" 
	d="
M565.998901,770.952698 
	C578.523499,769.169739 590.232117,765.268188 601.108826,757.367554 
	C607.058533,752.415405 612.711670,748.049377 617.672974,743.003113 
	C621.822632,738.782349 625.163147,733.766174 628.862000,729.102234 
	C628.561096,730.856140 628.585693,732.747559 627.911438,734.343750 
	C613.355347,768.800964 575.693237,791.096436 539.704224,786.645508 
	C499.393829,781.660156 468.488464,753.036560 462.185059,714.713928 
	C459.657227,699.345764 460.977234,684.284546 466.709106,669.410217 
	C464.889618,684.361511 465.219269,699.427673 470.879242,713.836182 
	C473.707001,721.034851 477.752625,727.755127 481.678253,735.192505 
	C488.303009,741.863098 494.496887,748.032898 500.891174,754.482178 
	C509.326965,761.173584 518.291992,766.099915 528.912109,768.517639 
	C541.313416,772.237305 553.556641,773.263977 565.998901,770.952698 
z"/>
<path fill="#DEDFE1" opacity="1.000000" stroke="none" 
	d="
M621.107361,269.187988 
	C623.166443,266.873993 625.225586,264.559967 627.583008,262.100525 
	C627.504089,264.009735 627.540833,266.256897 626.688171,268.090454 
	C611.189087,301.418915 573.739807,321.905396 538.695496,317.662720 
	C501.880157,313.205627 469.295807,285.912964 462.214996,245.726242 
	C459.512817,230.390503 460.981323,215.305298 466.697754,200.430115 
	C464.925842,215.355087 465.454498,230.293945 470.706848,244.847794 
	C477.650452,264.088043 489.610840,279.274933 507.632202,290.368774 
	C516.102966,293.901520 524.021912,297.100189 532.243164,300.519653 
	C543.619873,303.266235 554.752441,304.189789 566.406982,302.000854 
	C575.208923,299.309113 583.603333,296.568817 592.327393,293.750275 
	C595.475525,291.996185 598.435791,290.516998 601.085876,288.607300 
	C608.697449,283.122101 616.685547,277.978607 621.107361,269.187988 
z"/>
<path fill="#7847FD" opacity="1.000000" stroke="none" 
	d="
M823.860901,217.486435 
	C826.221497,220.091965 828.582031,222.697495 830.672424,225.679657 
	C829.740417,226.517365 828.557983,226.917236 828.495544,227.448776 
	C827.673889,234.437790 827.039856,241.448578 826.282776,248.445709 
	C826.126160,249.893250 825.956604,251.471848 825.275208,252.703613 
	C823.672913,255.600220 821.757812,258.323792 819.655457,260.989929 
	C811.316162,252.865814 803.290710,244.869171 795.137207,236.744919 
	C793.277405,238.296707 791.791321,239.536667 790.224060,240.258514 
	C789.487000,235.176071 788.563293,230.629837 788.253052,226.042114 
	C787.961060,221.725311 786.554382,217.022415 790.837646,213.512939 
	C791.498962,212.971085 791.846313,211.786194 791.943787,210.857239 
	C792.718567,203.472763 793.398010,196.078293 794.106628,188.686890 
	C795.821350,187.619125 797.786987,186.811523 799.209045,185.440247 
	C806.937195,177.987869 814.531250,170.396469 822.664062,163.129456 
	C823.437805,166.159515 823.503662,168.955780 824.039551,171.658829 
	C825.821228,180.645569 827.153137,189.922485 836.102905,195.407303 
	C830.103271,201.234970 824.266479,206.762405 817.977966,212.717590 
	C820.607361,214.849030 822.234131,216.167725 823.860901,217.486435 
z"/>
<path fill="#DCDDDF" opacity="1.000000" stroke="none" 
	d="
M790.305176,240.776596 
	C791.791321,239.536667 793.277405,238.296707 795.137207,236.744919 
	C803.290710,244.869171 811.316162,252.865814 819.810791,261.277374 
	C830.663025,271.985443 841.046143,282.278595 851.631592,292.772339 
	C856.460083,288.595520 861.073364,284.604828 865.686768,280.614105 
	C867.012268,281.872650 868.337769,283.131256 869.219849,283.968872 
	C861.546204,291.746460 854.002869,299.391968 846.482056,307.014648 
	C828.094666,288.831482 809.244873,270.191071 789.915161,251.076050 
	C771.115356,270.190613 752.493713,289.123993 734.162354,307.762207 
	C725.835144,299.510895 718.196899,291.942261 709.916504,283.737366 
	C712.935059,281.014465 716.139832,278.123596 719.720642,275.214813 
	C723.169189,278.195770 726.270508,281.165863 729.308838,284.198975 
	C738.285706,293.160400 738.343018,293.236084 747.212952,284.212036 
	C751.686829,279.660400 755.866760,274.819763 760.474243,269.957886 
	C770.614380,260.129486 780.459778,250.453033 790.305176,240.776596 
z"/>
<path fill="#DCDDDF" opacity="1.000000" stroke="none" 
	d="
M331.385986,254.506302 
	C344.517731,266.957214 357.354706,279.218231 370.699524,291.964325 
	C374.169312,288.702515 378.573883,284.561981 383.259705,280.312866 
	C384.892242,281.666626 386.243469,283.128998 387.248199,284.216370 
	C379.637939,291.932587 372.085175,299.590515 364.770660,307.006866 
	C346.289825,288.727966 327.519135,270.162445 308.700378,251.549347 
	C289.933136,270.680084 271.351013,289.622101 253.301300,308.021393 
	C244.434082,299.242493 236.824539,291.708740 228.888107,283.851318 
	C231.052032,281.699036 233.947784,278.818848 237.406830,275.838165 
	C244.002533,281.507721 250.034927,287.277802 255.751114,292.745392 
	C265.490479,283.218994 274.788147,274.124603 284.085815,265.030212 
	C293.116302,255.324875 302.146790,245.619522 311.534607,235.530136 
	C319.015381,242.716248 325.053284,248.516327 331.385986,254.506302 
z"/>
<path fill="#7151FE" opacity="1.000000" stroke="none" 
	d="
M790.223999,240.258484 
	C780.459778,250.453033 770.614380,260.129486 760.184692,269.743774 
	C759.395569,265.765747 759.024475,261.849884 759.024048,257.933990 
	C759.023376,251.715912 758.267883,245.250320 759.723022,239.356400 
	C760.931641,234.461517 761.040344,230.359512 758.994568,225.989319 
	C759.735229,224.950958 760.475891,223.912598 761.622803,222.439758 
	C765.116821,219.122437 768.204529,216.239594 771.400940,213.255310 
	C767.572937,209.009064 764.177856,205.243103 760.946777,201.081345 
	C761.405884,199.080200 762.286926,197.311157 761.892334,195.898468 
	C760.379700,190.483856 762.640076,188.085388 767.652588,186.486191 
	C771.958374,185.112457 771.489563,181.020477 770.563232,177.624802 
	C769.956543,175.400864 768.337708,173.453018 767.172241,171.381500 
	C769.545898,170.541534 771.919556,169.701584 774.293213,168.861633 
	C780.809204,175.273392 787.325134,181.685165 793.973877,188.391907 
	C793.398010,196.078293 792.718567,203.472763 791.943787,210.857239 
	C791.846313,211.786194 791.498962,212.971085 790.837646,213.512939 
	C786.554382,217.022415 787.961060,221.725311 788.253052,226.042114 
	C788.563293,230.629837 789.487000,235.176071 790.223999,240.258484 
z"/>
<path fill="#467CFC" opacity="1.000000" stroke="none" 
	d="
M596.760498,140.720703 
	C597.938965,145.513474 598.876343,150.058929 599.982788,155.424088 
	C596.762695,157.698227 598.651794,161.100098 600.875610,164.245407 
	C605.291016,170.490387 606.841797,176.916565 603.050903,184.032776 
	C602.619873,184.841949 602.270630,186.000351 602.510071,186.811920 
	C604.185669,192.491211 600.715271,196.486893 597.716797,200.844360 
	C591.398254,184.986298 579.947571,175.155853 563.932495,169.944641 
	C563.787537,168.759674 563.896667,167.671555 563.410950,167.211426 
	C560.164307,164.136078 558.117737,160.936935 560.864929,156.408279 
	C561.271973,155.737259 561.016846,154.347504 560.593323,153.538879 
	C556.556580,145.831131 555.971436,137.503326 555.999023,129.049545 
	C570.549072,129.157196 584.012268,133.119720 596.760498,140.720703 
z"/>
<path fill="#6854FD" opacity="1.000000" stroke="none" 
	d="
M774.162720,168.544907 
	C771.919556,169.701584 769.545898,170.541534 767.172241,171.381500 
	C768.337708,173.453018 769.956543,175.400864 770.563232,177.624802 
	C771.489563,181.020477 771.958374,185.112457 767.652588,186.486191 
	C762.640076,188.085388 760.379700,190.483856 761.892334,195.898468 
	C762.286926,197.311157 761.405884,199.080200 760.637817,200.927383 
	C748.291687,189.255615 736.433594,177.326904 724.525146,165.448807 
	C723.134460,164.061691 721.465027,162.953964 719.924866,161.716705 
	C718.536682,159.906540 717.148560,158.096390 716.034607,156.643753 
	C723.623596,149.001038 731.174316,141.396912 739.112366,133.402710 
	C750.425537,144.685272 762.228882,156.456726 774.162720,168.544907 
z"/>
<path fill="#7581FC" opacity="1.000000" stroke="none" 
	d="
M629.051880,728.774170 
	C625.163147,733.766174 621.822632,738.782349 617.672974,743.003113 
	C612.711670,748.049377 607.058533,752.415405 601.355835,757.147095 
	C599.316895,751.963928 600.922180,747.617920 603.312561,742.694336 
	C605.985168,737.189575 606.725464,730.689270 607.909912,724.545654 
	C608.430908,721.843140 607.495667,718.793701 610.909424,717.305237 
	C611.384521,717.098083 611.904541,716.170105 611.832214,715.656250 
	C610.923096,709.191589 615.513977,705.108765 617.986206,699.994141 
	C619.942688,695.946716 619.744995,690.712036 619.899841,685.984802 
	C620.028687,682.050049 620.468872,678.817810 623.470154,675.665588 
	C625.516724,673.516174 626.080566,669.822449 626.956970,666.720276 
	C628.586975,660.950684 629.960876,655.108826 631.776489,649.126709 
	C641.612305,668.317139 642.432678,688.451904 636.843140,708.918213 
	C635.012878,715.619690 631.814514,721.947388 629.051880,728.774170 
z"/>
<path fill="#8547FC" opacity="1.000000" stroke="none" 
	d="
M865.791626,280.305664 
	C861.073364,284.604828 856.460083,288.595520 851.631592,292.772339 
	C841.046143,282.278595 830.663025,271.985443 820.124634,261.404846 
	C821.757812,258.323792 823.672913,255.600220 825.275208,252.703613 
	C825.956604,251.471848 826.126160,249.893250 826.282776,248.445709 
	C827.039856,241.448578 827.673889,234.437790 828.495544,227.448776 
	C828.557983,226.917236 829.740417,226.517365 830.807312,225.990723 
	C845.588684,240.605362 859.964966,255.285583 874.676086,270.307678 
	C872.022156,273.236694 868.959351,276.616943 865.791626,280.305664 
z"/>
<path fill="#6093FC" opacity="1.000000" stroke="none" 
	d="
M534.002441,642.041626 
	C535.178894,639.059326 535.866455,635.738892 537.642334,633.171143 
	C540.567444,628.941650 542.391602,624.682190 542.107483,619.435974 
	C542.009460,617.624878 542.570923,615.067078 543.815063,614.024475 
	C547.957886,610.552673 546.916138,606.967102 545.044250,603.022461 
	C544.492615,601.859924 544.301147,600.526428 543.918457,598.844360 
	C560.563660,596.430603 576.392517,599.270447 591.657349,607.295898 
	C590.294128,610.394775 588.521606,612.822815 587.153381,615.460571 
	C586.348206,617.013000 586.216248,618.907227 585.724182,620.631348 
	C585.227600,622.370850 584.818665,624.161316 584.082764,625.799866 
	C583.218079,627.725220 581.091492,629.559631 581.182922,631.348145 
	C581.442017,636.418274 580.557800,640.813782 576.513123,644.315552 
	C562.441223,636.954407 548.375610,636.476562 534.002441,642.041626 
z"/>
<path fill="#7C3CFD" opacity="1.000000" stroke="none" 
	d="
M836.265686,195.107086 
	C827.153137,189.922485 825.821228,180.645569 824.039551,171.658829 
	C823.503662,168.955780 823.437805,166.159515 822.981323,162.994705 
	C832.571289,153.124619 842.336487,143.665771 851.786011,134.512665 
	C859.100952,141.775589 866.726074,149.346527 875.443787,158.002213 
	C872.310120,160.682755 868.910095,163.591125 865.094482,166.923172 
	C855.207825,176.600250 845.736755,185.853668 836.265686,195.107086 
z"/>
<path fill="#6C5CFD" opacity="1.000000" stroke="none" 
	d="
M758.682617,226.111328 
	C761.040344,230.359512 760.931641,234.461517 759.723022,239.356400 
	C758.267883,245.250320 759.023376,251.715912 759.024048,257.933990 
	C759.024475,261.849884 759.395569,265.765747 759.890015,269.895721 
	C755.866760,274.819763 751.686829,279.660400 747.212952,284.212036 
	C738.343018,293.236084 738.285706,293.160400 729.308838,284.198975 
	C726.270508,281.165863 723.169189,278.195770 719.958008,274.987976 
	C717.999939,273.361206 716.180481,271.943329 714.654297,270.754028 
	C729.766724,255.363602 744.068726,240.798477 758.682617,226.111328 
z"/>
<path fill="#3A8FFB" opacity="1.000000" stroke="none" 
	d="
M509.135040,199.036224 
	C508.446716,198.456665 507.240875,197.948105 507.150116,197.286591 
	C506.243561,190.677124 502.498444,185.739120 497.855682,181.404877 
	C491.362885,175.343475 490.699371,168.212784 493.088562,160.142197 
	C493.399597,159.091537 491.583221,157.411087 490.385651,156.013672 
	C498.037140,146.816681 507.913696,140.284058 519.548584,135.989944 
	C520.195251,137.771606 521.060242,139.550964 520.514343,140.586319 
	C516.929993,147.384048 520.482849,152.292023 525.021545,156.327850 
	C530.518372,161.215652 532.424194,167.055435 531.734497,174.248352 
	C521.107666,180.000320 514.080627,188.572784 509.135040,199.036224 
z"/>
<path fill="#15D4FC" opacity="1.000000" stroke="none" 
	d="
M283.726013,264.985657 
	C274.788147,274.124603 265.490479,283.218994 255.751114,292.745392 
	C250.034927,287.277802 244.002533,281.507721 237.667694,275.569580 
	C235.981400,273.589539 234.597534,271.777649 233.191742,269.937012 
	C245.926682,257.008118 258.639526,244.101624 271.665771,231.074326 
	C271.718628,233.854614 272.107849,237.020554 271.056732,239.599457 
	C269.112213,244.370193 269.727783,247.696014 273.522369,251.211639 
	C275.643280,253.176666 276.973785,255.990540 278.681549,258.406982 
	C280.228241,260.595520 281.803528,262.763855 283.726013,264.985657 
z"/>
<path fill="#4186FD" opacity="1.000000" stroke="none" 
	d="
M532.002441,174.041931 
	C532.424194,167.055435 530.518372,161.215652 525.021545,156.327850 
	C520.482849,152.292023 516.929993,147.384048 520.514343,140.586319 
	C521.060242,139.550964 520.195251,137.771606 519.924988,135.927765 
	C531.049500,130.356552 542.875366,128.601379 555.541138,128.958984 
	C555.971436,137.503326 556.556580,145.831131 560.593323,153.538879 
	C561.016846,154.347504 561.271973,155.737259 560.864929,156.408279 
	C558.117737,160.936935 560.164307,164.136078 563.410950,167.211426 
	C563.896667,167.671555 563.787537,168.759674 563.502808,169.901398 
	C552.266663,167.949142 541.979492,169.727661 532.002441,174.041931 
z"/>
<path fill="#6A8BFB" opacity="1.000000" stroke="none" 
	d="
M576.863220,644.443787 
	C580.557800,640.813782 581.442017,636.418274 581.182922,631.348145 
	C581.091492,629.559631 583.218079,627.725220 584.082764,625.799866 
	C584.818665,624.161316 585.227600,622.370850 585.724182,620.631348 
	C586.216248,618.907227 586.348206,617.013000 587.153381,615.460571 
	C588.521606,612.822815 590.294128,610.394775 591.945557,607.513489 
	C602.679993,612.053711 611.600891,619.236267 619.257141,628.519531 
	C617.865234,631.178650 615.680420,633.321716 614.980530,635.872253 
	C611.672974,647.925659 605.715820,658.428589 596.942017,667.659485 
	C592.471924,657.667114 585.396240,650.440735 576.863220,644.443787 
z"/>
<path fill="#20B1FC" opacity="1.000000" stroke="none" 
	d="
M358.105042,191.300842 
	C355.174286,187.989685 352.697449,184.705933 355.369049,179.877792 
	C356.015869,178.708878 355.621216,176.444717 354.898224,175.127228 
	C351.887573,169.641052 351.463562,162.589630 344.943970,158.903015 
	C353.042206,150.696411 361.521942,142.554153 369.529327,134.865448 
	C376.631256,141.894440 384.240967,149.425949 392.408234,157.509338 
	C389.889374,160.050278 386.691833,163.275818 383.088684,166.928406 
	C374.490356,175.337250 366.297699,183.319046 358.105042,191.300842 
z"/>
<path fill="#DFE1E3" opacity="1.000000" stroke="none" 
	d="
M719.636108,161.908844 
	C721.465027,162.953964 723.134460,164.061691 724.525146,165.448807 
	C736.433594,177.326904 748.291687,189.255615 760.473816,201.323166 
	C764.177856,205.243103 767.572937,209.009064 771.400940,213.255310 
	C768.204529,216.239594 765.116821,219.122437 761.735962,222.136169 
	C744.434875,205.430878 727.426941,188.594711 709.494629,170.843567 
	C713.176392,167.576630 716.261902,164.838806 719.636108,161.908844 
z"/>
<path fill="#DFE1E3" opacity="1.000000" stroke="none" 
	d="
M237.633514,161.892792 
	C241.274155,164.894714 244.686676,168.019745 247.959854,171.284485 
	C260.434174,183.726715 272.841827,196.235855 285.342529,208.651398 
	C286.623016,209.923141 288.359955,210.735275 290.477631,212.159073 
	C286.255859,216.188599 283.182678,219.121841 279.832703,222.207550 
	C262.532837,205.442505 245.509735,188.524994 227.578156,170.704636 
	C231.174667,167.527588 234.258057,164.803818 237.633514,161.892792 
z"/>
<path fill="#D7DAE1" opacity="1.000000" stroke="none" 
	d="
M357.960022,191.587708 
	C366.297699,183.319046 374.490356,175.337250 383.010132,167.244385 
	C384.901215,168.369644 386.465149,169.605988 387.987671,170.809601 
	C372.350128,186.667892 357.376404,201.852966 342.119598,217.278564 
	C340.228333,216.184341 338.620178,214.849594 336.333130,212.951385 
	C343.754730,205.669724 350.784851,198.772141 357.960022,191.587708 
z"/>
<path fill="#D7DAE1" opacity="1.000000" stroke="none" 
	d="
M836.102905,195.407318 
	C845.736755,185.853668 855.207825,176.600250 865.007202,167.235168 
	C866.703247,168.555084 868.070862,169.986694 869.454163,171.434662 
	C854.386475,186.692398 839.411987,201.855759 824.149170,217.252777 
	C822.234131,216.167725 820.607361,214.849030 817.977966,212.717590 
	C824.266479,206.762405 830.103271,201.234970 836.102905,195.407318 
z"/>
<path fill="#030404" opacity="1.000000" stroke="none" 
	d="
M449.932434,470.000977 
	C449.947479,435.916016 449.947479,402.331573 449.947479,368.372620 
	C515.156067,368.372620 580.233948,368.372620 645.556824,368.372620 
	C645.556824,433.026154 645.556824,497.477539 645.556824,562.361816 
	C580.464600,562.361816 515.369568,562.361816 449.917358,562.361816 
	C449.917358,531.630920 449.917358,501.066193 449.932434,470.000977 
M583.458313,453.983459 
	C598.435547,438.822968 613.412781,423.662476 628.985229,407.899475 
	C627.371033,406.585266 625.826782,405.327972 624.486267,403.455994 
	C627.876465,400.532288 631.266663,397.608551 634.374878,394.928040 
	C625.670898,386.345490 618.013611,378.795013 610.656128,371.540192 
	C598.524292,383.395508 586.041626,395.593719 572.948975,408.031311 
	C567.844604,413.082977 562.789673,418.186340 557.598999,423.147705 
	C556.394409,424.299072 554.727234,424.966400 553.011047,425.226105 
	C545.053467,417.382385 537.095947,409.538666 528.909851,401.079895 
	C518.460266,390.713318 508.010773,380.346741 498.052826,370.467865 
	C490.213562,378.412445 482.670197,386.057098 475.079865,393.749359 
	C476.136017,395.118134 477.530945,396.926025 478.341766,399.106903 
	C475.251343,401.835083 472.160919,404.563263 468.549164,407.751678 
	C486.488464,425.546417 503.476196,442.397278 520.239441,459.875092 
	C519.156555,461.241669 518.073669,462.608246 516.366577,464.219727 
	C502.390778,478.414490 488.415009,492.609253 474.259796,506.986267 
	C475.597534,508.544739 477.092499,510.286407 478.200562,512.519836 
	C475.109497,515.433044 472.018433,518.346252 469.609131,520.616882 
	C477.800964,528.732239 485.410522,536.270813 494.258759,545.036438 
	C512.371582,526.583557 530.961975,507.644135 549.475586,488.782959 
	C558.833435,498.068695 568.162598,507.327301 577.493347,516.584351 
	C586.901306,525.918152 596.310852,535.250305 605.426819,544.292725 
	C613.079712,536.539246 620.634888,528.884766 628.330933,521.087646 
	C627.366150,520.173401 626.046021,518.922485 624.887146,517.031921 
	C627.942566,513.629578 630.997986,510.227203 633.584778,507.346710 
	C622.868408,496.286133 612.466248,485.549927 601.812134,474.207214 
	C595.498657,467.613220 589.185242,461.019226 583.458313,453.983459 
z"/>
<path fill="#010202" opacity="1.000000" stroke="none" 
	d="
M594.938599,704.928406 
	C591.522705,712.575989 586.110718,718.556274 578.870850,723.793457 
	C568.399841,730.383301 557.622559,732.732483 545.619263,731.117249 
	C543.520020,730.586670 541.773804,730.328613 540.090393,729.849731 
	C531.570679,727.426392 524.615967,722.407959 518.127380,716.194763 
	C508.978546,704.828918 504.464630,692.431274 506.834473,677.995117 
	C507.097015,677.527893 507.359589,677.060669 507.789948,676.069763 
	C507.991364,675.353821 508.024994,675.161560 508.058624,674.969299 
	C508.058624,674.969299 507.980072,674.992371 508.268311,674.840820 
	C524.434265,651.281494 554.752869,645.973877 576.559265,662.906738 
	C590.255310,673.541992 595.669312,687.921570 594.938599,704.928406 
z"/>
<path fill="#DEDFE1" opacity="1.000000" stroke="none" 
	d="
M595.202393,704.693726 
	C595.669312,687.921570 590.255310,673.541992 576.559265,662.906738 
	C554.752869,645.973877 524.434265,651.281494 508.276764,674.880859 
	C509.646118,662.135681 517.243591,653.150574 527.447754,645.942810 
	C529.332214,644.611633 531.430115,643.582520 533.715942,642.227783 
	C548.375610,636.476562 562.441223,636.954407 576.513123,644.315552 
	C585.396240,650.440735 592.471924,657.667114 596.627319,667.801208 
	C600.792114,680.344116 601.005859,692.513367 595.202393,704.693726 
z"/>
<path fill="#5D9DFD" opacity="1.000000" stroke="none" 
	d="
M506.448090,678.006836 
	C504.464630,692.431274 508.978546,704.828918 517.982422,716.543091 
	C511.957397,724.149658 509.898438,732.514954 508.939789,741.330627 
	C508.768494,742.905823 508.201721,744.614502 507.299835,745.897705 
	C505.269135,748.787170 502.913971,751.448547 500.690796,754.202698 
	C494.496887,748.032898 488.303009,741.863098 481.950439,735.389526 
	C482.925262,734.976501 484.058746,734.867188 484.450928,734.829407 
	C485.201324,729.496948 485.897644,724.555786 486.589844,719.614075 
	C486.635345,719.289185 486.790192,718.880615 486.657288,718.644043 
	C483.022095,712.173340 487.300537,707.983826 490.746826,703.305542 
	C494.753174,697.867004 498.341034,692.112854 501.944763,686.391296 
	C502.676025,685.230286 502.430939,683.484924 503.062988,682.222778 
	C503.824463,680.702148 505.041748,679.409790 506.448090,678.006836 
z"/>
<path fill="#DEDFE1" opacity="1.000000" stroke="none" 
	d="
M507.884521,675.037842 
	C508.024994,675.161560 507.991364,675.353821 507.812744,675.802002 
	C507.681976,675.740845 507.696198,675.423645 507.884521,675.037842 
z"/>
<path fill="#010202" opacity="1.000000" stroke="none" 
	d="
M511.499451,237.790726 
	C507.505981,228.349838 504.672058,218.739868 507.440308,207.779022 
	C507.801697,206.794922 507.928864,206.378967 508.056030,205.963013 
	C508.056030,205.963013 507.976532,205.988693 508.268341,205.842651 
	C524.759766,182.393097 554.673218,177.013290 576.316223,193.704865 
	C590.038635,204.287857 595.720947,218.620285 594.596313,235.930832 
	C591.459106,240.605560 588.641052,245.078827 585.474182,249.628967 
	C576.176270,258.388977 565.168152,262.099518 552.564697,262.895447 
	C547.764832,262.153900 543.400330,261.525665 538.783508,260.651398 
	C526.614258,256.341248 517.885132,248.466599 511.499451,237.790726 
z"/>
<path fill="#DEDFE1" opacity="1.000000" stroke="none" 
	d="
M594.915588,235.729370 
	C595.720947,218.620285 590.038635,204.287857 576.316223,193.704865 
	C554.673218,177.013290 524.759766,182.393097 508.277374,205.883438 
	C508.365906,203.989990 508.737213,201.909744 509.121765,199.432861 
	C514.080627,188.572784 521.107666,180.000320 531.734497,174.248352 
	C541.979492,169.727661 552.266663,167.949142 563.481689,170.288757 
	C579.947571,175.155853 591.398254,184.986298 597.527710,201.175262 
	C598.298035,204.092041 598.822571,206.728745 599.505005,210.150574 
	C600.195251,219.605179 599.262634,227.994156 594.915588,235.729370 
z"/>
<path fill="#3F96FC" opacity="1.000000" stroke="none" 
	d="
M511.165344,237.993500 
	C517.885132,248.466599 526.614258,256.341248 538.773071,261.097595 
	C539.283936,265.203247 540.295715,268.767029 539.642517,271.993774 
	C538.730835,276.497162 536.264526,280.663208 535.034851,285.130890 
	C533.668579,290.094696 532.944519,295.235260 531.940796,300.298859 
	C524.021912,297.100189 516.102966,293.901520 507.969116,290.428711 
	C509.977081,287.363159 510.620728,284.457001 509.054504,281.014893 
	C506.639679,275.707794 506.101379,269.906677 508.451630,264.709320 
	C510.769470,259.583679 509.391571,255.881577 505.546997,251.555725 
	C513.004578,249.123520 510.618713,243.238266 511.165344,237.993500 
z"/>
<path fill="#DEDFE1" opacity="1.000000" stroke="none" 
	d="
M507.846802,206.060425 
	C507.928864,206.378967 507.801697,206.794922 507.496338,207.328186 
	C507.424591,207.016296 507.531036,206.587067 507.846802,206.060425 
z"/>
<path fill="#4F7FFD" opacity="1.000000" stroke="none" 
	d="
M594.596313,235.930832 
	C599.262634,227.994156 600.195251,219.605179 599.676758,210.478348 
	C603.308899,211.362061 608.157593,219.959229 606.394348,222.774246 
	C602.035217,229.733444 605.948730,235.575134 608.949585,241.098389 
	C611.700439,246.161285 615.066650,250.455917 615.342712,256.816589 
	C615.515991,260.808075 618.809021,264.664124 620.904846,268.884460 
	C616.685547,277.978607 608.697449,283.122101 601.085876,288.607300 
	C598.435791,290.516998 595.475525,291.996185 592.328491,293.319153 
	C592.249634,289.527710 592.847656,286.071259 592.671692,282.654633 
	C592.367310,276.742706 591.324097,270.866455 591.073914,264.954773 
	C590.831238,259.221100 590.096497,253.831207 585.823059,249.552078 
	C588.641052,245.078827 591.459106,240.605560 594.596313,235.930832 
z"/>
<path fill="#6C90FB" opacity="1.000000" stroke="none" 
	d="
M546.001343,731.287964 
	C557.622559,732.732483 568.399841,730.383301 578.651245,724.045166 
	C578.165649,727.412231 577.067261,730.799194 576.576416,734.271973 
	C576.145752,737.318848 576.419861,740.462708 576.334717,743.562439 
	C576.301392,744.778503 576.299072,747.007507 576.009399,747.053467 
	C571.230530,747.811829 572.474243,751.523621 571.749878,754.556396 
	C571.214722,756.796997 569.276428,758.741760 567.822205,760.714294 
	C565.691528,763.604248 563.899719,766.496277 565.951599,770.573181 
	C553.556641,773.263977 541.313416,772.237305 529.253784,768.331299 
	C531.803589,763.662903 534.662476,759.586243 536.747803,755.146179 
	C539.971008,748.283447 537.990601,739.200989 545.720764,734.163025 
	C546.224854,733.834534 545.926453,732.274963 546.001343,731.287964 
z"/>
<path fill="#6598FC" opacity="1.000000" stroke="none" 
	d="
M545.619263,731.117249 
	C545.926453,732.274963 546.224854,733.834534 545.720764,734.163025 
	C537.990601,739.200989 539.971008,748.283447 536.747803,755.146179 
	C534.662476,759.586243 531.803589,763.662903 528.949707,768.088806 
	C518.291992,766.099915 509.326965,761.173584 500.891174,754.482178 
	C502.913971,751.448547 505.269135,748.787170 507.299835,745.897705 
	C508.201721,744.614502 508.768494,742.905823 508.939789,741.330627 
	C509.898438,732.514954 511.957397,724.149658 518.057556,716.861572 
	C524.615967,722.407959 531.570679,727.426392 540.090393,729.849731 
	C541.773804,730.328613 543.520020,730.586670 545.619263,731.117249 
z"/>
<path fill="#4B87FD" opacity="1.000000" stroke="none" 
	d="
M585.474182,249.628967 
	C590.096497,253.831207 590.831238,259.221100 591.073914,264.954773 
	C591.324097,270.866455 592.367310,276.742706 592.671692,282.654633 
	C592.847656,286.071259 592.249634,289.527710 591.998901,293.397400 
	C583.603333,296.568817 575.208923,299.309113 566.364746,301.643646 
	C564.756775,297.561554 561.762085,293.236938 562.787659,290.331512 
	C565.758240,281.916687 561.747498,276.325684 556.578369,271.459381 
	C553.773315,268.818756 552.677063,266.478363 553.000000,263.008759 
	C565.168152,262.099518 576.176270,258.388977 585.474182,249.628967 
z"/>
<path fill="#4691FE" opacity="1.000000" stroke="none" 
	d="
M552.564697,262.895447 
	C552.677063,266.478363 553.773315,268.818756 556.578369,271.459381 
	C561.747498,276.325684 565.758240,281.916687 562.787659,290.331512 
	C561.762085,293.236938 564.756775,297.561554 565.957275,301.595093 
	C554.752441,304.189789 543.619873,303.266235 532.243103,300.519653 
	C532.944519,295.235260 533.668579,290.094696 535.034851,285.130890 
	C536.264526,280.663208 538.730835,276.497162 539.642517,271.993774 
	C540.295715,268.767029 539.283936,265.203247 539.025391,261.343628 
	C543.400330,261.525665 547.764832,262.153900 552.564697,262.895447 
z"/>
<path fill="#DCDDDF" opacity="1.000000" stroke="none" 
	d="
M624.725952,517.671509 
	C626.046021,518.922485 627.366150,520.173401 628.330933,521.087646 
	C620.634888,528.884766 613.079712,536.539246 605.426819,544.292725 
	C596.310852,535.250305 586.901306,525.918152 577.493347,516.584351 
	C568.162598,507.327301 558.833435,498.068695 549.475586,488.782959 
	C530.961975,507.644135 512.371582,526.583557 494.258759,545.036438 
	C485.410522,536.270813 477.800964,528.732239 469.609131,520.616882 
	C472.018433,518.346252 475.109497,515.433044 478.710449,512.430115 
	C484.996216,518.252686 490.772095,524.164917 497.079895,530.621765 
	C503.114960,524.273926 508.682892,518.417480 514.511475,512.332153 
	C516.137390,510.656494 517.457336,509.163666 518.875244,507.770477 
	C527.616455,499.181091 536.379700,490.614166 545.428345,481.895813 
	C548.141174,478.869720 550.561401,475.987610 553.150574,472.904358 
	C557.505188,477.012604 560.701904,480.028503 564.076782,483.327423 
	C572.154724,491.411804 580.054688,499.213165 588.097656,507.316711 
	C594.661743,514.091431 601.176758,520.474548 607.456238,527.081482 
	C609.890625,529.642822 611.500061,529.453552 613.920898,527.041504 
	C617.289978,523.684692 621.102966,520.773499 624.725952,517.671509 
z"/>
<path fill="#4D9CFD" opacity="1.000000" stroke="none" 
	d="
M545.135681,482.039795 
	C536.379700,490.614166 527.616455,499.181091 518.875244,507.770477 
	C517.457336,509.163666 516.137390,510.656494 514.441650,511.882446 
	C514.740723,508.269897 515.339905,504.872223 516.011292,501.488861 
	C516.422791,499.415070 516.299194,496.777802 517.538269,495.411224 
	C521.266724,491.299225 521.001953,486.300446 519.324280,482.328552 
	C516.744568,476.221252 516.875122,470.195801 516.990784,463.974854 
	C518.073669,462.608246 519.156555,461.241669 520.642822,459.430481 
	C524.131958,456.093597 527.217773,453.201294 530.390625,450.227356 
	C524.880127,444.295441 519.840698,438.870728 514.870483,433.068909 
	C516.954773,429.370331 519.976929,426.254822 520.710022,422.671082 
	C521.488525,418.865143 521.745422,415.316803 524.814575,412.491638 
	C525.626343,411.744446 525.536682,410.078339 526.016541,408.897461 
	C527.001404,406.473969 528.091553,404.093292 529.138367,401.694977 
	C537.095947,409.538666 545.053467,417.382385 552.817932,425.753967 
	C551.749878,429.741821 550.804871,433.185913 550.015381,436.665314 
	C548.636658,442.741302 547.235962,448.816345 546.060364,454.933289 
	C544.593506,462.565948 543.180542,470.219025 542.171143,477.919250 
	C542.010803,479.142212 544.091248,480.658905 545.135681,482.039795 
z"/>
<path fill="#5787FC" opacity="1.000000" stroke="none" 
	d="
M573.558960,407.791962 
	C586.041626,395.593719 598.524292,383.395508 610.656128,371.540192 
	C618.013611,378.795013 625.670898,386.345490 634.374878,394.928040 
	C631.266663,397.608551 627.876465,400.532288 624.061279,403.886169 
	C622.197693,405.677002 620.733459,407.011810 619.324402,408.402496 
	C607.567932,420.005524 595.821594,431.618805 583.928223,442.867188 
	C582.852966,437.177399 582.424377,431.696625 580.863159,426.560120 
	C578.916504,420.155731 576.036133,414.035156 573.558960,407.791962 
z"/>
<path fill="#5293FC" opacity="1.000000" stroke="none" 
	d="
M573.254028,407.911652 
	C576.036133,414.035156 578.916504,420.155731 580.863159,426.560120 
	C582.424377,431.696625 582.852966,437.177399 583.780884,443.152100 
	C582.554626,446.673859 577.178711,447.105713 579.005859,452.220154 
	C578.036926,458.299530 577.277893,463.980438 572.008118,467.735962 
	C571.213562,468.302155 570.930664,470.168396 571.066040,471.358795 
	C571.730225,477.198730 567.985474,480.197266 563.898682,483.044373 
	C560.701904,480.028503 557.505188,477.012604 553.150574,472.904358 
	C550.561401,475.987610 548.141174,478.869720 545.428345,481.895813 
	C544.091248,480.658905 542.010803,479.142212 542.171143,477.919250 
	C543.180542,470.219025 544.593506,462.565948 546.060364,454.933289 
	C547.235962,448.816345 548.636658,442.741302 550.015381,436.665314 
	C550.804871,433.185913 551.749878,429.741821 552.948853,426.069153 
	C554.727234,424.966400 556.394409,424.299072 557.598999,423.147705 
	C562.789673,418.186340 567.844604,413.082977 573.254028,407.911652 
z"/>
<path fill="#42A2FC" opacity="1.000000" stroke="none" 
	d="
M529.024109,401.387451 
	C528.091553,404.093292 527.001404,406.473969 526.016541,408.897461 
	C525.536682,410.078339 525.626343,411.744446 524.814575,412.491638 
	C521.745422,415.316803 521.488525,418.865143 520.710022,422.671082 
	C519.976929,426.254822 516.954773,429.370331 514.584900,432.874207 
	C504.711273,423.546387 495.219879,414.008362 485.651978,404.547729 
	C483.549438,402.468719 481.175049,400.664612 478.925873,398.733887 
	C477.530945,396.926025 476.136017,395.118134 475.079865,393.749359 
	C482.670197,386.057098 490.213562,378.412445 498.052826,370.467865 
	C508.010773,380.346741 518.460266,390.713318 529.024109,401.387451 
z"/>
<path fill="#48A4FA" opacity="1.000000" stroke="none" 
	d="
M516.678711,464.097290 
	C516.875122,470.195801 516.744568,476.221252 519.324280,482.328552 
	C521.001953,486.300446 521.266724,491.299225 517.538269,495.411224 
	C516.299194,496.777802 516.422791,499.415070 516.011292,501.488861 
	C515.339905,504.872223 514.740723,508.269897 514.180969,512.111267 
	C508.682892,518.417480 503.114960,524.273926 497.079895,530.621765 
	C490.772095,524.164917 484.996216,518.252686 478.903931,512.184204 
	C477.092499,510.286407 475.597534,508.544739 474.259796,506.986267 
	C488.415009,492.609253 502.390778,478.414490 516.678711,464.097290 
z"/>
<path fill="#6086FC" opacity="1.000000" stroke="none" 
	d="
M624.806580,517.351746 
	C621.102966,520.773499 617.289978,523.684692 613.920898,527.041504 
	C611.500061,529.453552 609.890625,529.642822 607.456238,527.081482 
	C601.176758,520.474548 594.661743,514.091431 588.480896,507.306671 
	C594.663879,505.305389 595.541199,503.881256 594.722717,498.398865 
	C594.479797,496.771301 594.620422,494.727417 595.420898,493.365509 
	C598.824402,487.575592 601.681213,481.657257 602.064209,474.813690 
	C612.466248,485.549927 622.868408,496.286133 633.584778,507.346710 
	C630.997986,510.227203 627.942566,513.629578 624.806580,517.351746 
z"/>
<path fill="#598EFC" opacity="1.000000" stroke="none" 
	d="
M601.938171,474.510437 
	C601.681213,481.657257 598.824402,487.575592 595.420898,493.365509 
	C594.620422,494.727417 594.479797,496.771301 594.722717,498.398865 
	C595.541199,503.881256 594.663879,505.305389 588.337769,507.004456 
	C580.054688,499.213165 572.154724,491.411804 564.076782,483.327423 
	C567.985474,480.197266 571.730225,477.198730 571.066040,471.358795 
	C570.930664,470.168396 571.213562,468.302155 572.008118,467.735962 
	C577.277893,463.980438 578.036926,458.299530 579.298584,452.382874 
	C580.724060,452.898529 581.797913,453.661865 582.871826,454.425232 
	C589.185242,461.019226 595.498657,467.613220 601.938171,474.510437 
z"/>
<path fill="#DFE1E3" opacity="1.000000" stroke="none" 
	d="
M478.633820,398.920410 
	C481.175049,400.664612 483.549438,402.468719 485.651978,404.547729 
	C495.219879,414.008362 504.711273,423.546387 514.515747,433.251282 
	C519.840698,438.870728 524.880127,444.295441 530.390625,450.227356 
	C527.217773,453.201294 524.131958,456.093597 520.755005,459.117004 
	C503.476196,442.397278 486.488464,425.546417 468.549164,407.751678 
	C472.160919,404.563263 475.251343,401.835083 478.633820,398.920410 
z"/>
<path fill="#D7DAE1" opacity="1.000000" stroke="none" 
	d="
M583.165039,454.204346 
	C581.797913,453.661865 580.724060,452.898529 579.357483,451.972473 
	C577.178711,447.105713 582.554626,446.673859 583.924927,443.513916 
	C595.821594,431.618805 607.567932,420.005524 619.324402,408.402496 
	C620.733459,407.011810 622.197693,405.677002 623.959412,404.193481 
	C625.826782,405.327972 627.371033,406.585266 628.985229,407.899475 
	C613.412781,423.662476 598.435547,438.822968 583.165039,454.204346 
z"/>
</svg>