<svg version="1.1" id="Layer_1" xmlns="http://www.w3.org/2000/svg" xmlns:xlink="http://www.w3.org/1999/xlink" x="0px" y="0px"
	 width="100%" viewBox="0 0 250 200" enable-background="new 0 0 250 200" xml:space="preserve">
<path fill="#FFFFFF" opacity="1.000000" stroke="none" 
	d="
M137.000000,201.000000 
	C91.333336,201.000000 46.166672,201.000000 1.000006,201.000000 
	C1.000004,134.333344 1.000004,67.666679 1.000002,1.000015 
	C84.333321,1.000010 167.666641,1.000010 250.999969,1.000005 
	C250.999985,67.666649 250.999985,134.333298 251.000000,200.999969 
	C213.166672,201.000000 175.333328,201.000000 137.000000,201.000000 
M136.505966,141.683746 
	C136.347885,141.140762 136.189804,140.597778 136.807495,140.005341 
	C138.080048,139.712906 139.350021,139.182587 140.625610,139.168686 
	C146.555344,139.104065 151.502396,135.186142 153.763855,129.014252 
	C155.916809,127.369164 158.069763,125.724075 160.961929,123.514137 
	C160.961929,123.254189 160.961929,121.629227 161.737900,119.978218 
	C163.493393,117.738274 165.194611,115.452789 167.023102,113.274117 
	C168.278046,111.778809 169.595413,110.293663 171.092468,109.054825 
	C172.840118,107.608597 174.813690,106.435379 176.689240,105.143707 
	C174.743195,103.737175 172.807663,102.315636 170.842026,100.937035 
	C170.458054,100.667732 169.957230,100.565063 168.904266,100.142105 
	C169.153366,97.689529 169.362579,95.105927 169.690674,92.537506 
	C170.067184,89.590195 170.695831,86.665993 170.889816,83.710403 
	C170.943359,82.894592 169.838242,82.002731 169.264755,81.145767 
	C168.534134,81.654213 167.742096,82.094879 167.087875,82.687637 
	C166.197449,83.494385 165.412247,84.417259 163.590515,86.332802 
	C163.590515,83.805931 163.964020,82.622009 163.530228,82.044701 
	C160.593414,78.136292 157.941956,74.304993 160.784607,69.115280 
	C161.011978,68.700211 159.740356,66.745651 159.014832,66.650192 
	C155.703598,66.214523 152.338623,66.187393 148.576736,65.486038 
	C147.378326,64.994232 146.179901,64.502419 144.991501,63.219479 
	C144.764648,61.924610 144.415894,60.637520 144.332748,59.333488 
	C144.023819,54.488117 140.952255,51.748272 137.364014,54.395115 
	C133.115112,57.529293 129.287628,55.891392 125.217934,56.015526 
	C120.998749,56.144226 116.782906,56.382156 111.525673,56.619202 
	C116.872795,49.932259 124.256065,55.142616 130.584442,51.581722 
	C128.139069,50.870331 126.631706,49.990063 125.191437,50.088772 
	C118.717636,50.532467 112.271400,51.400139 105.795570,51.777779 
	C104.077843,51.877949 102.281044,50.807278 100.538391,50.221161 
	C99.588165,49.901562 98.675331,49.470741 97.745636,49.090084 
	C97.449776,49.434814 97.153923,49.779541 96.858063,50.124271 
	C97.627831,51.110603 98.538399,52.018250 99.141617,53.097656 
	C101.153419,56.697559 103.055046,60.359035 104.415962,64.589966 
	C101.321312,64.733681 98.211037,64.735428 95.137825,65.073830 
	C93.264381,65.280128 91.404961,65.885376 89.617729,66.529282 
	C87.695625,67.221779 85.865311,68.169060 83.971199,68.269386 
	C83.509758,67.240265 83.048325,66.211143 82.586891,65.182022 
	C82.006851,65.593483 81.426804,66.004944 80.846764,66.416405 
	C81.899559,67.275925 82.952362,68.135445 84.022354,69.807983 
	C84.871620,70.866676 85.507011,72.396461 86.609650,72.897079 
	C90.133400,74.496933 89.954475,76.064087 86.373596,77.732719 
	C82.058823,75.751938 81.677414,80.276474 81.687546,81.716805 
	C81.710052,84.915337 80.019211,85.211441 78.016327,84.900490 
	C76.033623,84.592682 74.193222,83.444138 72.250229,82.782318 
	C70.473793,82.177223 68.523956,81.047020 66.859177,81.338768 
	C61.478939,82.281647 56.180500,83.718681 50.889977,85.114731 
	C50.148071,85.310493 49.626431,86.340958 48.197159,87.046684 
	C46.166126,87.403160 44.135090,87.759644 42.104057,88.116119 
	C42.147381,88.434258 42.190704,88.752403 42.234028,89.070541 
	C44.487324,89.070541 46.740623,89.070541 49.010944,89.821793 
	C49.424446,92.612892 50.334652,94.802063 53.704102,95.226913 
	C54.553001,95.333954 55.206871,96.987747 55.074730,97.973740 
	C52.151245,98.507454 49.227760,99.041168 46.304276,99.574890 
	C46.340382,99.991592 46.376488,100.408295 46.412594,100.825005 
	C45.333248,99.866066 44.253902,98.907127 43.174557,97.948189 
	C42.755226,98.114891 42.335896,98.281601 41.916565,98.448303 
	C42.197170,100.519783 41.781490,103.842987 42.875774,104.451706 
	C48.375801,107.511162 53.173798,112.460815 60.703770,112.634399 
	C64.462593,112.804604 68.221420,112.974808 72.100571,113.858269 
	C73.836983,114.899071 75.456467,116.441940 77.333481,116.879097 
	C81.612015,117.875580 83.572029,120.821228 82.617737,124.884415 
	C81.975128,127.620491 82.082382,130.532684 81.854179,133.366089 
	C82.230125,133.388657 82.606071,133.411224 82.982018,133.433777 
	C84.331284,131.209854 85.680550,128.985916 87.093559,126.656929 
	C89.778854,129.128952 91.886497,131.069183 94.222046,133.440262 
	C94.427055,133.708694 94.691963,133.889282 95.282867,134.617020 
	C96.436455,135.858047 97.590034,137.099091 99.150360,138.777679 
	C96.799774,140.335144 94.650047,141.759506 92.500320,143.183868 
	C98.483109,144.504761 104.321846,144.838394 110.163155,144.892181 
	C111.098831,144.900787 112.046043,143.657623 113.742920,142.996292 
	C114.497520,142.997604 115.252113,142.998917 116.111984,143.681198 
	C117.742516,143.782791 119.373055,143.884369 121.706093,144.057938 
	C124.135887,143.701691 126.565674,143.345459 129.159363,143.758163 
	C131.878662,143.933777 134.597946,144.109375 137.317245,144.284988 
	C137.207474,143.527008 137.097687,142.769012 136.505966,141.683746 
z"/>
<path fill="#F8F7E7" opacity="1.000000" stroke="none" 
	d="
M144.981491,64.010605 
	C146.179901,64.502419 147.378326,64.994232 148.763123,66.058014 
	C148.640411,67.389717 148.331345,68.149437 147.651672,68.781021 
	C145.618454,68.361580 143.955826,68.070274 142.293213,67.778969 
	C142.335373,69.933846 142.958527,71.114105 143.843994,72.044785 
	C146.456100,74.790237 149.406433,77.243774 151.806091,80.156204 
	C161.353806,91.744034 160.944809,111.514023 151.068848,121.859848 
	C149.672546,119.248062 148.306931,117.027321 147.064423,114.496857 
	C148.335327,111.810982 148.010574,110.180161 144.659653,109.857803 
	C143.188400,109.440948 142.075058,109.066139 140.979614,108.498459 
	C140.997482,108.305595 141.156830,107.951492 141.500046,107.921051 
	C147.687881,104.824905 147.541611,99.462326 147.154480,93.649330 
	C147.363312,92.864563 147.582199,92.441727 148.045898,91.912010 
	C148.500244,91.161171 148.709778,90.517204 148.872650,89.696182 
	C148.767303,89.262520 148.621033,89.073662 148.374817,88.566994 
	C147.621384,87.612274 146.880341,87.043121 146.109161,86.277245 
	C145.669785,86.205849 145.260544,86.331169 144.401047,86.531403 
	C138.966187,86.563850 133.981567,86.521385 129.141022,86.143715 
	C135.380569,83.960144 141.476074,82.111786 149.081650,79.805511 
	C144.590698,76.851227 141.108887,74.725494 137.818176,72.336502 
	C135.724182,70.816284 133.913818,68.905373 132.376648,67.135269 
	C134.587524,67.535461 136.397995,67.970055 138.238983,68.393265 
	C138.269516,68.381882 138.334488,68.386429 138.442764,68.549210 
	C138.551041,68.711998 138.939941,68.752541 139.121338,68.889908 
	C139.622910,68.738174 139.943069,68.449081 140.529022,67.948410 
	C139.891678,66.805099 138.988525,65.873367 137.965302,64.620758 
	C136.900192,63.859970 135.955154,63.420059 134.961899,62.800720 
	C134.913666,62.621296 134.902481,62.249870 135.112213,61.942902 
	C138.541794,62.427490 141.761642,63.219048 144.981491,64.010605 
z"/>
<path fill="#FBFAF1" opacity="1.000000" stroke="none" 
	d="
M148.022263,68.909157 
	C148.331345,68.149437 148.640411,67.389717 148.971222,66.321716 
	C152.338623,66.187393 155.703598,66.214523 159.014832,66.650192 
	C159.740356,66.745651 161.011978,68.700211 160.784607,69.115280 
	C157.941956,74.304993 160.593414,78.136292 163.530228,82.044701 
	C163.964020,82.622009 163.590515,83.805931 163.590515,86.332802 
	C165.412247,84.417259 166.197449,83.494385 167.087875,82.687637 
	C167.742096,82.094879 168.534134,81.654213 169.264755,81.145767 
	C169.838242,82.002731 170.943359,82.894592 170.889816,83.710403 
	C170.695831,86.665993 170.067184,89.590195 169.690674,92.537506 
	C169.362579,95.105927 169.153366,97.689529 168.904266,100.142105 
	C169.957230,100.565063 170.458054,100.667732 170.842026,100.937035 
	C172.807663,102.315636 174.743195,103.737175 176.689240,105.143707 
	C174.813690,106.435379 172.840118,107.608597 171.092468,109.054825 
	C169.595413,110.293663 168.278046,111.778809 167.023102,113.274117 
	C165.194611,115.452789 163.493393,117.738274 161.097717,119.835144 
	C160.225845,119.372597 159.994171,119.053139 159.843750,118.395706 
	C160.611633,116.370132 161.298279,114.682518 162.273346,112.790039 
	C162.667664,111.663933 162.773529,110.742706 162.870331,109.613800 
	C162.861252,109.406128 162.971725,109.005333 163.249908,108.770073 
	C163.539093,105.989983 163.550095,103.445145 163.473846,100.486099 
	C163.363159,98.372734 163.339722,96.673592 163.529419,94.677414 
	C165.015030,88.665764 160.939972,85.087341 158.272949,80.647400 
	C158.139923,80.203751 158.095795,80.023651 157.984039,79.656952 
	C157.775146,79.234688 157.576889,79.065941 157.094696,78.703232 
	C153.919235,75.264618 150.970749,72.086884 148.022263,68.909157 
z"/>
<path fill="#F0FAFA" opacity="1.000000" stroke="none" 
	d="
M60.210270,112.024628 
	C53.173798,112.460815 48.375801,107.511162 42.875774,104.451706 
	C41.781490,103.842987 42.197170,100.519783 41.916565,98.448303 
	C42.335896,98.281601 42.755226,98.114891 43.174557,97.948189 
	C44.253902,98.907127 45.333248,99.866066 46.412594,100.825005 
	C46.376488,100.408295 46.340382,99.991592 46.304276,99.574890 
	C49.227760,99.041168 52.151245,98.507454 55.545212,97.981888 
	C56.015690,97.990028 56.081951,98.048279 56.335495,98.375450 
	C64.057732,98.572060 71.526413,98.441498 79.411118,98.319107 
	C81.208405,98.383774 82.589676,98.440269 83.956787,98.880524 
	C82.120094,99.851036 80.295166,100.430435 78.475708,101.026581 
	C76.636086,101.629326 74.801895,102.248650 72.546280,102.880234 
	C66.362076,102.899750 60.596893,102.899750 54.831715,102.899750 
	C54.836037,103.301781 54.840363,103.703812 54.844685,104.105843 
	C69.556992,104.105843 84.269302,104.105843 98.990662,104.436066 
	C99.007187,105.206665 99.014648,105.647057 98.575035,106.191010 
	C96.343483,106.379860 94.551079,106.386665 92.776093,106.565887 
	C88.362244,107.011543 83.956337,107.535782 79.534576,107.995438 
	C79.521912,107.962410 79.451347,107.967491 79.048584,107.976990 
	C70.780907,107.986488 62.916004,107.986488 55.051102,107.986488 
	C55.051403,108.334305 55.051704,108.682114 55.052006,109.029930 
	C61.364235,109.029930 67.676468,109.029930 73.997772,109.392090 
	C73.993629,110.476822 73.980408,111.199402 73.586563,111.768761 
	C68.874054,111.751907 64.542160,111.888268 60.210270,112.024628 
z"/>
<path fill="#FBFAF1" opacity="1.000000" stroke="none" 
	d="
M144.986496,63.615044 
	C141.761642,63.219048 138.541794,62.427490 134.744629,61.930523 
	C133.434647,62.186481 132.701950,62.147854 131.745117,61.872910 
	C130.677505,61.412090 129.834076,61.187592 128.735397,60.692162 
	C126.338837,60.529663 124.197517,60.638100 121.631676,60.816917 
	C119.488159,60.973526 117.769157,61.059753 115.902290,60.829758 
	C112.358452,58.340645 110.224785,59.445713 109.031662,63.073311 
	C108.995041,63.058327 109.073868,63.056484 108.857613,63.101501 
	C108.358795,63.269024 108.154205,63.470627 107.815399,63.862343 
	C107.603203,63.973362 107.132141,64.059998 106.777222,64.034103 
	C105.947830,64.004440 105.473358,64.000679 104.998894,63.996918 
	C103.055046,60.359035 101.153419,56.697559 99.141617,53.097656 
	C98.538399,52.018250 97.627831,51.110603 96.858063,50.124271 
	C97.153923,49.779541 97.449776,49.434814 97.745636,49.090084 
	C98.675331,49.470741 99.588165,49.901562 100.538391,50.221161 
	C102.281044,50.807278 104.077843,51.877949 105.795570,51.777779 
	C112.271400,51.400139 118.717636,50.532467 125.191437,50.088772 
	C126.631706,49.990063 128.139069,50.870331 130.584442,51.581722 
	C124.256065,55.142616 116.872795,49.932259 111.525673,56.619202 
	C116.782906,56.382156 120.998749,56.144226 125.217934,56.015526 
	C129.287628,55.891392 133.115112,57.529293 137.364014,54.395115 
	C140.952255,51.748272 144.023819,54.488117 144.332748,59.333488 
	C144.415894,60.637520 144.764648,61.924610 144.986496,63.615044 
z"/>
<path fill="#F5FCFD" opacity="1.000000" stroke="none" 
	d="
M55.983028,97.960381 
	C55.206871,96.987747 54.553001,95.333954 53.704102,95.226913 
	C50.334652,94.802063 49.424446,92.612892 49.470985,89.416695 
	C60.297695,89.007874 70.664360,89.004158 81.026001,89.318329 
	C81.009262,90.271828 80.997543,90.907425 80.594543,91.657555 
	C78.850784,91.869156 77.498329,91.966225 75.742615,92.050606 
	C70.775284,92.286736 66.211197,92.535568 61.647118,92.784401 
	C66.627220,94.071724 71.597778,94.691147 76.584381,94.874870 
	C78.037682,94.928421 79.536797,93.738625 81.477676,93.054031 
	C87.275894,92.985611 92.611359,92.981903 98.314606,93.058624 
	C99.080643,94.198830 99.478897,95.258614 99.562302,96.190804 
	C93.234612,96.042130 87.221375,95.984032 81.209480,96.049515 
	C80.503769,96.057190 79.805466,96.744995 78.714096,97.086205 
	C73.488663,97.058418 68.649414,96.954170 63.818459,97.108917 
	C61.232246,97.191765 58.660324,97.720665 56.081951,98.048279 
	C56.081951,98.048279 56.015690,97.990028 55.983028,97.960381 
z"/>
<path fill="#F9F4DD" opacity="1.000000" stroke="none" 
	d="
M104.707428,64.293442 
	C105.473358,64.000679 105.947830,64.004440 106.755539,64.398659 
	C106.389511,66.708542 105.690247,68.627975 104.907715,70.828224 
	C103.707886,71.395477 102.591324,71.681908 101.087479,71.929230 
	C99.026932,72.205452 97.353676,72.520767 95.393158,72.925606 
	C94.655685,73.644058 94.205482,74.272995 93.523430,75.047852 
	C93.095436,75.682877 92.899284,76.171982 92.720917,76.696640 
	C92.738701,76.732193 92.659721,76.741287 92.344635,76.822952 
	C90.649490,78.944336 89.269440,80.984047 87.551956,82.959778 
	C87.150932,81.270683 87.087364,79.645576 87.023788,78.020477 
	C89.954475,76.064087 90.133400,74.496933 86.609650,72.897079 
	C85.507011,72.396461 84.871620,70.866676 84.011177,69.403992 
	C84.000000,69.000000 83.994949,69.005165 83.994949,69.005165 
	C85.865311,68.169060 87.695625,67.221779 89.617729,66.529282 
	C91.404961,65.885376 93.264381,65.280128 95.137825,65.073830 
	C98.211037,64.735428 101.321312,64.733681 104.707428,64.293442 
z"/>
<path fill="#F5FCFD" opacity="1.000000" stroke="none" 
	d="
M86.698700,77.876602 
	C87.087364,79.645576 87.150932,81.270683 87.592682,82.958923 
	C87.970848,83.022072 87.962769,83.102211 87.967545,83.440140 
	C87.983185,84.454895 87.994041,85.131737 87.573242,85.864029 
	C81.147079,86.310410 75.152573,86.701332 68.805893,87.085373 
	C67.362175,87.254585 66.265999,87.605843 65.179855,87.577171 
	C59.786064,87.434799 54.394909,87.192284 49.002831,86.985046 
	C49.626431,86.340958 50.148071,85.310493 50.889977,85.114731 
	C56.180500,83.718681 61.478939,82.281647 66.859177,81.338768 
	C68.523956,81.047020 70.473793,82.177223 72.250229,82.782318 
	C74.193222,83.444138 76.033623,84.592682 78.016327,84.900490 
	C80.019211,85.211441 81.710052,84.915337 81.687546,81.716805 
	C81.677414,80.276474 82.058823,75.751938 86.698700,77.876602 
z"/>
<path fill="#F7F8F0" opacity="1.000000" stroke="none" 
	d="
M93.994141,133.009430 
	C91.886497,131.069183 89.778854,129.128952 87.093559,126.656929 
	C85.680550,128.985916 84.331284,131.209854 82.982018,133.433777 
	C82.606071,133.411224 82.230125,133.388657 81.854179,133.366089 
	C82.082382,130.532684 81.975128,127.620491 82.617737,124.884415 
	C83.572029,120.821228 81.612015,117.875580 77.333481,116.879097 
	C75.456467,116.441940 73.836983,114.899071 72.506561,113.454849 
	C77.613899,113.056114 82.315247,113.060806 86.967552,113.424393 
	C86.221436,115.901588 85.524361,118.019882 84.623634,120.757065 
	C86.269539,121.492020 87.976242,122.254128 89.881973,123.293747 
	C91.045700,124.775620 92.010399,125.979973 92.982468,127.563431 
	C93.324615,129.631500 93.659378,131.320465 93.994141,133.009430 
z"/>
<path fill="#F7F8F0" opacity="1.000000" stroke="none" 
	d="
M112.987930,142.993149 
	C112.046043,143.657623 111.098831,144.900787 110.163155,144.892181 
	C104.321846,144.838394 98.483109,144.504761 92.500320,143.183868 
	C94.650047,141.759506 96.799774,140.335144 99.150360,138.777679 
	C97.590034,137.099091 96.436455,135.858047 95.537567,134.219086 
	C96.320175,133.271423 96.848076,132.721664 97.562271,132.231979 
	C97.748558,132.292038 98.006645,132.586700 98.112274,132.904480 
	C98.793411,133.489197 99.368935,133.756134 99.970886,134.011017 
	C99.997322,133.998978 99.989082,134.056488 100.115341,134.276718 
	C100.536995,134.649323 100.832405,134.801682 101.348785,134.979996 
	C101.569763,135.005951 101.991333,135.148438 102.003525,135.524170 
	C102.189384,139.334320 104.741142,138.959488 107.012634,139.400055 
	C106.776932,143.358383 108.519394,143.370300 111.280792,142.105042 
	C112.019203,142.472794 112.503563,142.732971 112.987930,142.993149 
z"/>
<path fill="#C0D7E4" opacity="1.000000" stroke="none" 
	d="
M48.599991,87.015869 
	C54.394909,87.192284 59.786064,87.434799 65.179855,87.577171 
	C66.265999,87.605843 67.362175,87.254585 69.043571,87.421341 
	C76.121109,87.847603 82.609962,88.033951 89.095856,87.959984 
	C91.446198,87.933182 93.789436,87.283737 96.326805,86.958801 
	C96.517693,86.999191 96.899452,87.080078 96.825958,87.470139 
	C91.511986,88.240273 86.271500,88.620354 81.031021,89.000435 
	C70.664360,89.004158 60.297695,89.007874 49.462475,89.041069 
	C46.740623,89.070541 44.487324,89.070541 42.234028,89.070541 
	C42.190704,88.752403 42.147381,88.434258 42.104057,88.116119 
	C44.135090,87.759644 46.166126,87.403160 48.599991,87.015869 
z"/>
<path fill="#B7CED3" opacity="1.000000" stroke="none" 
	d="
M87.016602,113.065498 
	C82.315247,113.060806 77.613899,113.056114 72.446396,113.098221 
	C68.221420,112.974808 64.462593,112.804604 60.457020,112.329514 
	C64.542160,111.888268 68.874054,111.751907 73.924477,111.778503 
	C77.726494,111.962456 80.809982,111.983459 84.370270,112.006332 
	C91.549217,111.980278 98.251358,111.952354 104.960190,112.174728 
	C104.950958,112.591194 104.935036,112.757362 104.460968,112.934898 
	C99.997581,112.989853 95.992332,113.033432 91.573883,113.043564 
	C89.779312,113.028580 88.397957,113.047043 87.016602,113.065498 
z"/>
<path fill="#F9F4DD" opacity="1.000000" stroke="none" 
	d="
M153.063095,129.147736 
	C151.502396,135.186142 146.555344,139.104065 140.625610,139.168686 
	C139.350021,139.182587 138.080048,139.712906 136.305328,139.854111 
	C135.803146,139.702881 135.584427,139.346329 135.813507,139.214218 
	C136.444565,138.753815 136.846573,138.425507 137.549179,138.093750 
	C138.575912,137.769302 139.302032,137.448318 140.359222,137.010834 
	C144.720337,134.168518 148.750366,131.442703 152.847977,128.826630 
	C152.915558,128.936371 153.063095,129.147736 153.063095,129.147736 
z"/>
<path fill="#F8F7E7" opacity="1.000000" stroke="none" 
	d="
M113.365425,142.994720 
	C112.503563,142.732971 112.019203,142.472794 111.271164,141.780991 
	C110.991676,140.702118 110.975861,140.054840 111.347198,139.346283 
	C117.500694,139.889862 123.267036,140.494736 129.029877,141.414673 
	C129.016083,142.149567 129.005768,142.569382 128.995468,142.989212 
	C126.565674,143.345459 124.135887,143.701691 121.299614,143.682983 
	C119.264328,143.205444 117.635521,143.102844 116.006714,143.000229 
	C115.252113,142.998917 114.497520,142.997604 113.365425,142.994720 
z"/>
<path fill="#FAEBC6" opacity="1.000000" stroke="none" 
	d="
M159.762512,118.733673 
	C159.994171,119.053139 160.225845,119.372597 160.709717,119.848167 
	C160.961929,121.629227 160.961929,123.254189 160.961929,123.514137 
	C158.069763,125.724075 155.916809,127.369164 153.413483,129.080994 
	C153.063095,129.147736 152.915558,128.936371 152.963165,128.516464 
	C155.261337,124.975594 157.511932,121.854637 159.762512,118.733673 
z"/>
<path fill="#F0FAFA" opacity="1.000000" stroke="none" 
	d="
M129.077423,143.373688 
	C129.005768,142.569382 129.016083,142.149567 129.025116,141.381500 
	C129.023849,141.033264 129.088348,141.049286 129.475983,141.065735 
	C130.899155,141.080002 131.934708,141.077835 133.040283,141.409912 
	C134.402847,141.833115 135.695389,141.922073 136.987915,142.011032 
	C137.097687,142.769012 137.207474,143.527008 137.317245,144.284988 
	C134.597946,144.109375 131.878662,143.933777 129.077423,143.373688 
z"/>
<path fill="#F9F4DD" opacity="1.000000" stroke="none" 
	d="
M97.375984,132.171921 
	C96.848076,132.721664 96.320175,133.271423 95.404526,133.901581 
	C94.691963,133.889282 94.427055,133.708694 94.108093,133.224854 
	C93.659378,131.320465 93.324615,129.631500 93.302414,127.636948 
	C94.868645,128.944885 96.122314,130.558395 97.375984,132.171921 
z"/>
<path fill="#F9F4DD" opacity="1.000000" stroke="none" 
	d="
M84.002579,68.997482 
	C82.952362,68.135445 81.899559,67.275925 80.846764,66.416405 
	C81.426804,66.004944 82.006851,65.593483 82.586891,65.182022 
	C83.048325,66.211143 83.509758,67.240265 83.983078,68.637276 
	C83.994949,69.005165 84.000000,69.000000 84.002579,68.997482 
z"/>
<path fill="#F7F8F0" opacity="1.000000" stroke="none" 
	d="
M116.059349,143.340714 
	C117.635521,143.102844 119.264328,143.205444 120.948364,143.647003 
	C119.373055,143.884369 117.742516,143.782791 116.059349,143.340714 
z"/>
<path fill="#F8F7E7" opacity="1.000000" stroke="none" 
	d="
M136.746948,141.847382 
	C135.695389,141.922073 134.402847,141.833115 133.056274,141.177155 
	C133.002243,140.610168 133.010040,140.145355 133.314590,139.995789 
	C134.274231,139.679581 134.929337,139.512955 135.584427,139.346329 
	C135.584427,139.346329 135.803146,139.702881 135.917435,139.878845 
	C136.189804,140.597778 136.347885,141.140762 136.746948,141.847382 
z"/>
<path fill="#F7F8F0" opacity="1.000000" stroke="none" 
	d="
M91.987091,113.077019 
	C95.992332,113.033432 99.997581,112.989853 104.746223,113.064888 
	C106.257935,113.461311 107.026237,113.739120 108.055244,114.132278 
	C108.544807,114.543037 108.773666,114.838463 109.217178,115.366455 
	C110.311897,116.104805 111.191963,116.610573 111.972206,117.429886 
	C112.665977,119.605461 113.159180,121.726707 114.418846,123.186630 
	C114.849976,123.686302 118.332359,122.750221 118.462677,122.085976 
	C118.839645,120.164490 118.221283,118.047737 118.011314,115.796631 
	C118.028984,115.585625 118.065208,115.163681 118.022141,115.079849 
	C117.979073,114.996010 117.969460,114.807747 118.428658,114.905045 
	C123.588249,114.940613 128.288635,114.878868 133.328888,114.854034 
	C134.121429,114.864464 134.574127,114.837975 135.035858,115.040764 
	C135.044891,115.270042 135.197235,115.702103 134.878571,115.861313 
	C132.051376,118.005997 131.387009,120.567268 134.033875,122.479790 
	C135.191101,123.315964 138.584564,122.962494 139.350067,121.940948 
	C140.254532,120.733940 139.415421,118.220390 139.751144,116.205299 
	C141.233582,116.193718 142.297058,116.250076 142.365112,116.253677 
	C143.488403,118.277245 144.244202,119.638779 145.054321,121.138977 
	C145.194336,121.327148 145.280029,121.376633 145.365707,121.426125 
	C145.243805,121.283981 145.121902,121.141838 144.999390,120.590034 
	C145.006805,118.560204 145.014832,116.940041 145.331177,115.195114 
	C146.073425,114.982445 146.507370,114.894516 146.941299,114.806587 
	C148.306931,117.027321 149.672546,119.248062 150.959564,122.133087 
	C150.240112,123.528427 149.599243,124.259491 148.577332,124.991455 
	C145.432327,126.548431 142.043488,127.546379 140.043869,129.785141 
	C136.636307,133.600235 132.251968,134.240158 128.059097,133.986145 
	C121.041733,133.561020 113.144630,135.400269 107.785515,128.479187 
	C107.541916,128.164581 106.872589,128.145294 106.389076,128.055847 
	C98.004784,126.504997 95.120201,119.672424 91.987091,113.077019 
z"/>
<path fill="#FBFEFC" opacity="1.000000" stroke="none" 
	d="
M131.976257,67.169655 
	C133.913818,68.905373 135.724182,70.816284 137.818176,72.336502 
	C141.108887,74.725494 144.590698,76.851227 149.081650,79.805511 
	C141.476074,82.111786 135.380569,83.960144 128.676514,86.193085 
	C123.049828,86.457230 118.031700,86.336807 112.990395,85.890015 
	C112.493599,84.181412 112.019989,82.799194 111.502579,81.289131 
	C107.613342,85.138741 107.207687,85.065689 105.236900,80.387299 
	C105.044556,79.930702 105.001755,79.407883 104.789955,78.963234 
	C103.201859,75.629089 104.311272,73.559654 107.739021,72.946907 
	C110.075706,72.529198 112.397240,71.827354 114.609840,70.958054 
	C118.726692,69.340599 122.553185,66.654671 127.399849,68.515160 
	C127.986984,68.740547 129.136948,67.499748 130.290482,66.835144 
	C130.713501,66.628532 130.872101,66.525261 131.264221,66.612518 
	C131.657272,66.925240 131.816757,67.047447 131.976257,67.169655 
z"/>
<path fill="#1672B5" opacity="1.000000" stroke="none" 
	d="
M147.801086,92.018883 
	C147.582199,92.441727 147.363312,92.864563 146.973434,93.972031 
	C145.916077,97.429474 145.029694,100.202286 144.016815,103.370850 
	C142.685699,102.237953 141.820358,101.501465 140.813583,100.577377 
	C140.397476,100.173767 140.098434,100.132225 139.832947,100.234169 
	C139.890854,100.203163 139.843033,100.325508 139.720215,99.989510 
	C134.958893,98.441963 139.066559,95.664658 138.039536,93.066803 
	C135.372513,94.876175 132.535004,96.808464 131.390488,99.469040 
	C130.995697,100.386757 134.817322,103.118279 136.830215,105.251129 
	C136.977081,105.650520 137.006592,105.820030 136.735687,106.282913 
	C128.784393,106.389580 121.133507,106.202866 113.315323,105.698273 
	C112.745522,104.278419 112.343002,103.176453 111.956528,101.684647 
	C110.890526,97.743912 109.808479,94.193024 108.842834,90.206329 
	C110.180489,89.183983 111.395111,88.104973 112.624062,88.088387 
	C122.945663,87.949081 133.273010,87.885262 143.589325,88.154991 
	C144.853836,88.188057 146.063477,90.321014 147.422272,91.617134 
	C147.545990,91.753433 147.801086,92.018883 147.801086,92.018883 
z"/>
<path fill="#EA982F" opacity="1.000000" stroke="none" 
	d="
M135.026825,114.811485 
	C134.574127,114.837975 134.121429,114.864464 133.007782,114.602142 
	C127.554367,114.478134 122.761909,114.642937 117.969460,114.807739 
	C117.969460,114.807747 117.979073,114.996010 117.689911,114.995743 
	C116.945618,114.967865 116.490479,114.940254 115.950516,114.740417 
	C115.567871,114.656517 115.270050,114.744843 114.640884,114.859177 
	C113.868370,114.843147 113.427193,114.801117 112.749779,114.525276 
	C111.005310,113.864975 109.497086,113.438492 107.780243,112.707169 
	C105.022537,104.653725 102.473457,96.905121 99.958832,88.734619 
	C98.985313,85.880814 97.977333,83.448906 96.985458,81.008682 
	C97.001549,81.000366 96.981918,81.031059 96.969475,80.750168 
	C95.976883,80.652565 94.996742,80.835846 94.009392,81.011688 
	C94.002190,81.004257 94.015930,81.021271 93.727425,80.773285 
	C93.179184,79.263962 92.919456,78.002625 92.659721,76.741287 
	C92.659721,76.741287 92.738701,76.732193 93.045502,76.779770 
	C93.486633,76.185547 93.620956,75.543739 93.755280,74.901932 
	C94.205482,74.272995 94.655685,73.644058 95.747589,73.008286 
	C98.331497,74.930252 97.528412,79.410141 102.110405,79.233551 
	C102.279289,79.794571 102.312447,80.134079 102.257309,80.884171 
	C103.227348,83.892914 104.285690,86.491081 105.548737,89.430679 
	C106.111031,90.477287 106.468620,91.182465 106.825943,92.215210 
	C108.121201,96.374901 109.416733,100.207031 110.748093,104.401505 
	C111.185310,105.863998 111.586693,106.964165 112.036400,108.269035 
	C112.209335,108.738403 112.404701,108.931450 113.119919,109.105309 
	C115.066879,109.271858 116.564735,109.385979 118.272369,109.660675 
	C119.304031,109.705353 120.125923,109.589462 121.411743,109.399139 
	C127.016327,109.237236 132.156982,109.149757 137.666153,109.040070 
	C139.010345,108.909019 139.986038,108.800171 140.961731,108.691322 
	C142.075058,109.066139 143.188400,109.440948 144.678467,110.201050 
	C146.552155,115.872826 141.196884,112.837265 139.620209,114.831963 
	C138.853851,114.825073 138.416519,114.776695 137.954437,114.443481 
	C136.962051,114.376266 135.994431,114.593880 135.026825,114.811485 
z"/>
<path fill="#E2A048" opacity="1.000000" stroke="none" 
	d="
M148.958374,124.990555 
	C149.599243,124.259491 150.240112,123.528427 150.990250,122.524132 
	C160.944809,111.514023 161.353806,91.744034 151.806091,80.156204 
	C149.406433,77.243774 146.456100,74.790237 143.843994,72.044785 
	C142.958527,71.114105 142.335373,69.933846 142.293213,67.778969 
	C143.955826,68.070274 145.618454,68.361580 147.651672,68.781021 
	C150.970749,72.086884 153.919235,75.264618 157.107040,78.921242 
	C157.488007,79.696434 157.723114,79.844238 158.051651,79.843559 
	C158.095795,80.023651 158.139923,80.203751 158.140503,81.020721 
	C158.407227,83.403168 158.717514,85.148735 159.012665,87.342079 
	C159.496384,93.346336 159.995255,98.902809 160.494125,104.459290 
	C160.965988,104.416840 161.437866,104.374397 161.909729,104.331947 
	C161.647186,99.136208 161.384644,93.940468 161.377197,89.014145 
	C162.193619,91.180519 162.754959,93.077484 163.316299,94.974449 
	C163.339722,96.673592 163.363159,98.372734 163.332092,100.919807 
	C163.175659,104.180267 163.073685,106.592804 162.971725,109.005333 
	C162.971725,109.005333 162.861252,109.406128 162.643631,109.868546 
	C162.278992,111.218941 162.131973,112.106918 161.984924,112.994904 
	C161.298279,114.682518 160.611633,116.370132 159.843750,118.395714 
	C157.511932,121.854637 155.261337,124.975594 152.895569,128.406723 
	C148.750366,131.442703 144.720337,134.168518 140.348923,136.635269 
	C139.602051,135.537140 139.196579,134.698090 138.961731,133.560120 
	C142.407684,130.504333 145.683029,127.747444 148.958374,124.990555 
z"/>
<path fill="#E39938" opacity="1.000000" stroke="none" 
	d="
M132.376648,67.135269 
	C131.816757,67.047447 131.657272,66.925240 131.098175,66.285965 
	C124.843315,65.380981 118.988068,64.993073 113.132812,64.605171 
	C114.595154,63.732342 116.116119,63.136967 117.675819,63.007221 
	C122.432297,62.611557 127.203682,62.395306 131.969269,62.109226 
	C132.701950,62.147854 133.434647,62.186481 134.534912,62.237492 
	C134.902481,62.249870 134.913666,62.621296 135.012177,63.151600 
	C136.102249,64.101814 137.093826,64.521729 138.085388,64.941635 
	C138.988525,65.873367 139.891678,66.805099 140.163376,68.019150 
	C139.334610,68.451820 139.137283,68.602180 138.939941,68.752541 
	C138.939941,68.752541 138.551041,68.711998 138.556747,68.388702 
	C138.444458,68.178482 138.326462,68.291565 138.208466,68.404648 
	C136.397995,67.970055 134.587524,67.535461 132.376648,67.135269 
z"/>
<path fill="#DDF1F4" opacity="1.000000" stroke="none" 
	d="
M140.955002,100.764969 
	C141.820358,101.501465 142.685699,102.237953 144.016815,103.370850 
	C145.029694,100.202286 145.916077,97.429474 146.983490,94.333961 
	C147.541611,99.462326 147.687881,104.824905 141.389221,107.569420 
	C139.635498,106.828674 138.335800,106.409111 137.036102,105.989540 
	C137.006592,105.820030 136.977081,105.650520 136.842514,104.873489 
	C136.531021,102.937233 136.324554,101.608505 136.082657,100.051666 
	C137.660431,100.166565 138.751724,100.246033 139.843033,100.325508 
	C139.843033,100.325508 139.890854,100.203163 139.959381,100.436356 
	C140.027908,100.669540 140.480560,100.823090 140.480560,100.823090 
	C140.480560,100.823090 140.955002,100.764969 140.955002,100.764969 
z"/>
<path fill="#20628F" opacity="1.000000" stroke="none" 
	d="
M147.298538,91.480835 
	C146.063477,90.321014 144.853836,88.188057 143.589325,88.154991 
	C133.273010,87.885262 122.945663,87.949081 112.624062,88.088387 
	C111.395111,88.104973 110.180489,89.183983 108.632805,89.875656 
	C108.152100,88.973694 107.997818,87.966606 107.892998,86.961319 
	C107.942467,86.963120 107.945282,86.864166 108.234222,86.832687 
	C108.687492,86.698540 108.851822,86.595863 109.420609,86.545639 
	C110.887901,86.470863 111.950745,86.343628 113.013580,86.216393 
	C118.031700,86.336807 123.049828,86.457230 128.532455,86.528290 
	C133.981567,86.521385 138.966187,86.563850 144.721863,86.623108 
	C145.708389,86.584587 145.923843,86.529274 146.139297,86.473969 
	C146.880341,87.043121 147.621384,87.612274 148.222076,88.816719 
	C148.094543,89.646729 148.107361,89.841446 148.015778,90.297134 
	C147.707108,90.865685 147.502823,91.173256 147.298538,91.480835 
z"/>
<path fill="#3375A1" opacity="1.000000" stroke="none" 
	d="
M136.735687,106.282913 
	C138.335800,106.409111 139.635498,106.828674 141.046021,107.599869 
	C141.156830,107.951492 140.997482,108.305595 140.979614,108.498459 
	C139.986038,108.800171 139.010345,108.909019 137.393570,108.676498 
	C130.509888,108.196846 124.261002,108.174759 118.029121,107.838005 
	C116.485313,107.754578 114.996635,106.650864 113.482620,106.016159 
	C121.133507,106.202866 128.784393,106.389580 136.735687,106.282913 
z"/>
<path fill="#E0A656" opacity="1.000000" stroke="none" 
	d="
M139.949265,114.790474 
	C141.196884,112.837265 146.552155,115.872826 145.036392,110.243088 
	C148.010574,110.180161 148.335327,111.810982 147.064423,114.496857 
	C146.507370,114.894516 146.073425,114.982445 144.914246,115.099884 
	C142.775757,115.016418 141.362518,114.903450 139.949265,114.790474 
z"/>
<path fill="#E0A656" opacity="1.000000" stroke="none" 
	d="
M137.965302,64.620758 
	C137.093826,64.521729 136.102249,64.101814 135.060410,63.331024 
	C135.955154,63.420059 136.900192,63.859970 137.965302,64.620758 
z"/>
<path fill="#DDF1F4" opacity="1.000000" stroke="none" 
	d="
M147.422272,91.617134 
	C147.502823,91.173256 147.707108,90.865685 148.217346,90.265198 
	C148.523300,89.972298 148.919296,89.873238 148.919296,89.873238 
	C148.709778,90.517204 148.500244,91.161171 148.045898,91.912010 
	C147.801086,92.018883 147.545990,91.753433 147.422272,91.617134 
z"/>
<path fill="#B7CED3" opacity="1.000000" stroke="none" 
	d="
M146.109161,86.277237 
	C145.923843,86.529274 145.708389,86.584587 145.172119,86.548195 
	C145.260544,86.331169 145.669785,86.205849 146.109161,86.277237 
z"/>
<path fill="#E0A656" opacity="1.000000" stroke="none" 
	d="
M139.121338,68.889908 
	C139.137283,68.602180 139.334610,68.451820 139.897583,68.230728 
	C139.943069,68.449081 139.622910,68.738174 139.121338,68.889908 
z"/>
<path fill="#E0A656" opacity="1.000000" stroke="none" 
	d="
M138.238983,68.393265 
	C138.326462,68.291565 138.444458,68.178482 138.448471,68.225922 
	C138.334488,68.386429 138.269516,68.381882 138.238983,68.393265 
z"/>
<path fill="#B7CED3" opacity="1.000000" stroke="none" 
	d="
M148.872650,89.696182 
	C148.919296,89.873238 148.523300,89.972298 148.321747,90.004234 
	C148.107361,89.841446 148.094543,89.646729 148.234451,89.202278 
	C148.621033,89.073662 148.767303,89.262520 148.872650,89.696182 
z"/>
<path fill="#FAEBC6" opacity="1.000000" stroke="none" 
	d="
M163.529419,94.677414 
	C162.754959,93.077484 162.193619,91.180519 161.244415,88.762833 
	C160.246964,87.792847 159.637390,87.343575 159.027802,86.894302 
	C158.717514,85.148735 158.407227,83.403168 158.229401,81.284271 
	C160.939972,85.087341 165.015030,88.665764 163.529419,94.677414 
z"/>
<path fill="#FAEBC6" opacity="1.000000" stroke="none" 
	d="
M163.249908,108.770073 
	C163.073685,106.592804 163.175659,104.180267 163.419357,101.334030 
	C163.550095,103.445145 163.539093,105.989983 163.249908,108.770073 
z"/>
<path fill="#FAEBC6" opacity="1.000000" stroke="none" 
	d="
M162.273361,112.790039 
	C162.131973,112.106918 162.278992,111.218941 162.652710,110.076218 
	C162.773529,110.742706 162.667664,111.663933 162.273361,112.790039 
z"/>
<path fill="#FAEBC6" opacity="1.000000" stroke="none" 
	d="
M157.984039,79.656952 
	C157.723114,79.844238 157.488007,79.696434 157.334015,79.182129 
	C157.576889,79.065941 157.775146,79.234688 157.984039,79.656952 
z"/>
<path fill="#E5EFE8" opacity="1.000000" stroke="none" 
	d="
M99.924370,89.156509 
	C102.473457,96.905121 105.022537,104.653725 107.737762,112.959534 
	C107.867447,113.683464 107.830994,113.850197 107.794548,114.016937 
	C107.026237,113.739120 106.257935,113.461311 105.204361,113.053513 
	C104.935036,112.757362 104.950958,112.591194 104.996964,111.889603 
	C104.983490,110.973259 104.939926,110.592346 104.921272,109.896805 
	C104.887939,109.011932 104.829697,108.441689 104.771454,107.871437 
	C104.585083,107.864540 104.398720,107.857643 104.212349,107.850746 
	C104.142174,108.555305 104.072006,109.259865 103.573036,110.033203 
	C101.127205,110.160446 99.110168,110.218895 97.080154,109.947708 
	C97.064758,109.398148 97.062332,109.178223 97.427246,108.940353 
	C99.209068,108.739021 100.623558,108.555634 102.368912,108.192261 
	C101.473892,107.370659 100.248001,106.729050 99.022110,106.087440 
	C99.014648,105.647057 99.007187,105.206665 99.370277,104.391632 
	C100.453903,103.393768 101.166969,102.770569 101.880035,102.147369 
	C100.936325,101.740410 99.992622,101.333443 99.029434,100.614487 
	C99.018608,99.677528 99.027260,99.052559 99.316925,98.271149 
	C99.691010,97.515930 99.784081,96.917168 99.877151,96.318398 
	C99.478897,95.258614 99.080643,94.198830 98.210114,92.666901 
	C96.228882,91.799522 94.720512,91.075211 93.210838,91.072487 
	C89.136131,91.065140 85.060875,91.365044 80.985832,91.543030 
	C80.997543,90.907425 81.009262,90.271828 81.026001,89.318329 
	C86.271500,88.620354 91.511986,88.240273 97.188164,87.375778 
	C97.862656,86.821495 98.101456,86.751640 98.314682,86.744293 
	C98.289108,86.806801 98.170990,86.872307 98.137070,87.193970 
	C98.451958,88.000694 98.800781,88.485741 99.341873,89.023163 
	C99.534142,89.075539 99.924370,89.156509 99.924370,89.156509 
z"/>
<path fill="#CAEAF7" opacity="1.000000" stroke="none" 
	d="
M99.035904,98.427589 
	C99.027260,99.052559 99.018608,99.677528 98.672150,100.761208 
	C95.693062,101.775467 93.066940,102.701805 90.407402,102.810524 
	C84.602386,103.047821 78.780380,102.869331 72.965317,102.860718 
	C74.801895,102.248650 76.636086,101.629326 78.475708,101.026581 
	C80.295166,100.430435 82.120094,99.851036 84.414642,98.777481 
	C89.603081,98.336311 94.319496,98.381950 99.035904,98.427589 
z"/>
<path fill="#A6B9C5" opacity="1.000000" stroke="none" 
	d="
M72.546280,102.880234 
	C78.780380,102.869331 84.602386,103.047821 90.407402,102.810524 
	C93.066940,102.701805 95.693062,101.775467 98.691620,101.073196 
	C99.992622,101.333443 100.936325,101.740410 101.880035,102.147369 
	C101.166969,102.770569 100.453903,103.393768 99.361221,104.061409 
	C84.269302,104.105843 69.556992,104.105843 54.844685,104.105843 
	C54.840363,103.703812 54.836037,103.301781 54.831715,102.899750 
	C60.596893,102.899750 66.362076,102.899750 72.546280,102.880234 
z"/>
<path fill="#DDF1F4" opacity="1.000000" stroke="none" 
	d="
M97.059898,108.958298 
	C97.062332,109.178223 97.064758,109.398148 96.705994,110.109497 
	C92.194351,111.068771 88.043915,111.536613 83.893471,112.004456 
	C80.809982,111.983459 77.726494,111.962456 74.305099,111.931717 
	C73.980408,111.199402 73.993629,110.476822 74.398819,109.355881 
	C76.344307,108.627495 77.897827,108.297493 79.451347,107.967491 
	C79.451347,107.967491 79.521912,107.962410 79.889099,108.056488 
	C80.491432,108.195847 80.726585,108.241119 81.309189,108.501251 
	C86.791061,108.796829 91.925476,108.877563 97.059898,108.958298 
z"/>
<path fill="#A6B9C5" opacity="1.000000" stroke="none" 
	d="
M79.048584,107.976990 
	C77.897827,108.297493 76.344307,108.627495 74.389740,108.993713 
	C67.676468,109.029930 61.364235,109.029930 55.052006,109.029930 
	C55.051704,108.682114 55.051403,108.334305 55.051102,107.986488 
	C62.916004,107.986488 70.780907,107.986488 79.048584,107.976990 
z"/>
<path fill="#4A6E83" opacity="1.000000" stroke="none" 
	d="
M80.961739,108.286400 
	C80.726585,108.241119 80.491432,108.195847 79.901764,108.089516 
	C83.956337,107.535782 88.362244,107.011543 92.776093,106.565887 
	C94.551079,106.386665 96.343483,106.379860 98.575035,106.191010 
	C100.248001,106.729050 101.473892,107.370659 101.914276,108.068695 
	C94.406433,108.178886 87.684082,108.232643 80.961739,108.286400 
z"/>
<path fill="#A6B9C5" opacity="1.000000" stroke="none" 
	d="
M56.335495,98.375443 
	C58.660324,97.720665 61.232246,97.191765 63.818459,97.108917 
	C68.649414,96.954170 73.488663,97.058418 78.692154,97.385025 
	C79.038261,97.913742 79.016685,98.112335 78.995102,98.310936 
	C71.526413,98.441498 64.057732,98.572060 56.335495,98.375443 
z"/>
<path fill="#4A6E83" opacity="1.000000" stroke="none" 
	d="
M79.411118,98.319107 
	C79.016685,98.112335 79.038261,97.913742 79.081787,97.416328 
	C79.805466,96.744995 80.503769,96.057190 81.209480,96.049515 
	C87.221375,95.984032 93.234612,96.042130 99.562302,96.190804 
	C99.784081,96.917168 99.691010,97.515930 99.316925,98.271149 
	C94.319496,98.381950 89.603081,98.336311 84.428810,98.393715 
	C82.589676,98.440269 81.208405,98.383774 79.411118,98.319107 
z"/>
<path fill="#E0A656" opacity="1.000000" stroke="none" 
	d="
M131.745117,61.872910 
	C127.203682,62.395306 122.432297,62.611557 117.675819,63.007221 
	C116.116119,63.136967 114.595154,63.732342 113.132812,64.605171 
	C118.988068,64.993073 124.843315,65.380981 130.864624,66.095444 
	C130.872101,66.525261 130.713501,66.628532 129.973526,66.569458 
	C120.734306,64.698273 112.760910,67.023270 104.990974,70.547401 
	C105.690247,68.627975 106.389511,66.708542 107.110458,64.424561 
	C107.132141,64.059998 107.603203,63.973362 108.047165,63.855358 
	C108.814705,63.621193 109.008949,63.394234 109.073868,63.056484 
	C109.073868,63.056484 108.995041,63.058327 109.409836,63.071205 
	C111.899803,62.438049 113.974983,61.792015 116.050156,61.145981 
	C117.769157,61.059753 119.488159,60.973526 122.056091,60.903976 
	C124.933563,60.934799 126.962097,60.948944 128.990631,60.963093 
	C129.834076,61.187592 130.677505,61.412090 131.745117,61.872910 
z"/>
<path fill="#F9F4DD" opacity="1.000000" stroke="none" 
	d="
M115.902290,60.829762 
	C113.974983,61.792015 111.899803,62.438049 109.446457,63.086189 
	C110.224785,59.445713 112.358452,58.340645 115.902290,60.829762 
z"/>
<path fill="#F9F4DD" opacity="1.000000" stroke="none" 
	d="
M128.735397,60.692162 
	C126.962097,60.948944 124.933563,60.934799 122.480606,60.833595 
	C124.197517,60.638100 126.338837,60.529663 128.735397,60.692162 
z"/>
<path fill="#F9F4DD" opacity="1.000000" stroke="none" 
	d="
M108.857613,63.101501 
	C109.008949,63.394234 108.814705,63.621193 108.259354,63.744339 
	C108.154205,63.470627 108.358795,63.269024 108.857613,63.101501 
z"/>
<path fill="#E5EFE8" opacity="1.000000" stroke="none" 
	d="
M81.014908,93.118744 
	C79.536797,93.738625 78.037682,94.928421 76.584381,94.874870 
	C71.597778,94.691147 66.627220,94.071724 61.647118,92.784401 
	C66.211197,92.535568 70.775284,92.286736 75.927979,92.372963 
	C78.016029,92.844925 79.515465,92.981834 81.014908,93.118744 
z"/>
<path fill="#4A6E83" opacity="1.000000" stroke="none" 
	d="
M81.477676,93.054031 
	C79.515465,92.981834 78.016029,92.844925 76.331223,92.385658 
	C77.498329,91.966225 78.850784,91.869156 80.594543,91.657555 
	C85.060875,91.365044 89.136131,91.065140 93.210838,91.072487 
	C94.720512,91.075211 96.228882,91.799522 97.842331,92.586472 
	C92.611359,92.981903 87.275894,92.985611 81.477676,93.054031 
z"/>
<path fill="#F8F7E7" opacity="1.000000" stroke="none" 
	d="
M104.907715,70.828224 
	C112.760910,67.023270 120.734306,64.698273 129.709106,66.672791 
	C129.136948,67.499748 127.986984,68.740547 127.399849,68.515160 
	C122.553185,66.654671 118.726692,69.340599 114.609840,70.958054 
	C112.397240,71.827354 110.075706,72.529198 107.739021,72.946907 
	C104.311272,73.559654 103.201859,75.629089 104.789955,78.963234 
	C105.001755,79.407883 105.044556,79.930702 105.236900,80.387299 
	C107.207687,85.065689 107.613342,85.138741 111.502579,81.289131 
	C112.019989,82.799194 112.493599,84.181412 112.990395,85.890015 
	C111.950745,86.343628 110.887901,86.470863 109.278519,86.413475 
	C108.469742,86.440628 108.207512,86.652397 107.945282,86.864166 
	C107.945282,86.864166 107.942467,86.963120 107.582016,87.244469 
	C107.089783,88.979759 106.957993,90.433693 106.826210,91.887634 
	C106.468620,91.182465 106.111031,90.477287 105.608215,89.083450 
	C104.423866,85.754387 103.384735,83.113991 102.345604,80.473587 
	C102.312447,80.134079 102.279289,79.794571 102.077629,78.834435 
	C101.764336,76.131981 101.619545,74.050163 101.474762,71.968338 
	C102.591324,71.681908 103.707886,71.395477 104.907715,70.828224 
z"/>
<path fill="#DEA250" opacity="1.000000" stroke="none" 
	d="
M101.087471,71.929230 
	C101.619545,74.050163 101.764336,76.131981 101.941902,78.612923 
	C97.528412,79.410141 98.331497,74.930252 96.034851,72.918762 
	C97.353676,72.520767 99.026932,72.205452 101.087471,71.929230 
z"/>
<path fill="#DEA250" opacity="1.000000" stroke="none" 
	d="
M92.344635,76.822952 
	C92.919456,78.002625 93.179184,79.263962 93.611382,81.135864 
	C91.843483,82.198357 89.903130,82.650284 87.962769,83.102211 
	C87.962769,83.102211 87.970848,83.022072 87.930122,83.022919 
	C89.269440,80.984047 90.649490,78.944336 92.344635,76.822952 
z"/>
<path fill="#DEA250" opacity="1.000000" stroke="none" 
	d="
M93.523422,75.047852 
	C93.620956,75.543739 93.486633,76.185547 93.027725,76.744217 
	C92.899284,76.171982 93.095436,75.682877 93.523422,75.047852 
z"/>
<path fill="#F9F4DD" opacity="1.000000" stroke="none" 
	d="
M87.967545,83.440140 
	C89.903130,82.650284 91.843483,82.198357 93.899887,81.383850 
	C94.015930,81.021271 94.002190,81.004257 94.380669,80.987610 
	C95.500069,80.990990 96.240997,81.011024 96.981918,81.031059 
	C96.981918,81.031059 97.001549,81.000366 97.037140,81.374023 
	C97.495232,83.392380 97.917740,85.037086 98.340248,86.681786 
	C98.101456,86.751640 97.862656,86.821495 97.261658,86.985718 
	C96.899452,87.080078 96.517693,86.999191 96.128342,86.644905 
	C93.160965,86.129936 90.582932,85.969254 88.004898,85.808571 
	C87.994041,85.131737 87.983185,84.454895 87.967545,83.440140 
z"/>
<path fill="#4A6E83" opacity="1.000000" stroke="none" 
	d="
M87.573242,85.864029 
	C90.582932,85.969254 93.160965,86.129936 95.937454,86.604507 
	C93.789436,87.283737 91.446198,87.933182 89.095856,87.959984 
	C82.609962,88.033951 76.121109,87.847603 69.395744,87.428223 
	C75.152573,86.701332 81.147079,86.310410 87.573242,85.864029 
z"/>
<path fill="#F8F7E7" opacity="1.000000" stroke="none" 
	d="
M148.577316,124.991447 
	C145.683029,127.747444 142.407684,130.504333 138.575424,133.585373 
	C135.009354,134.959320 132.000229,136.009125 128.533447,136.998550 
	C123.022156,136.429016 117.747940,136.665054 112.962875,135.248627 
	C104.214607,132.658997 97.298058,127.217979 92.636002,119.128639 
	C91.502289,117.161491 90.235519,114.531502 86.627510,116.981216 
	C87.663017,119.026527 88.672981,121.021378 89.682938,123.016228 
	C87.976242,122.254128 86.269539,121.492020 84.623634,120.757065 
	C85.524361,118.019882 86.221436,115.901588 86.967552,113.424393 
	C88.397957,113.047043 89.779312,113.028580 91.573883,113.043564 
	C95.120201,119.672424 98.004784,126.504997 106.389076,128.055847 
	C106.872589,128.145294 107.541916,128.164581 107.785515,128.479187 
	C113.144630,135.400269 121.041733,133.561020 128.059097,133.986145 
	C132.251968,134.240158 136.636307,133.600235 140.043869,129.785141 
	C142.043488,127.546379 145.432327,126.548431 148.577316,124.991447 
z"/>
<path fill="#E39938" opacity="1.000000" stroke="none" 
	d="
M89.881973,123.293747 
	C88.672981,121.021378 87.663017,119.026527 86.627510,116.981216 
	C90.235519,114.531502 91.502289,117.161491 92.636002,119.128639 
	C97.298058,127.217979 104.214607,132.658997 112.962875,135.248627 
	C117.747940,136.665054 123.022156,136.429016 128.535797,137.403336 
	C129.036194,138.676971 129.076584,139.485428 129.107056,140.482315 
	C129.097137,140.670731 129.088348,141.049286 129.088348,141.049286 
	C129.088348,141.049286 129.023849,141.033264 129.028610,141.066437 
	C123.267036,140.494736 117.500694,139.889862 111.027214,139.229630 
	C109.869225,139.120071 109.418381,139.065872 108.785812,138.729919 
	C106.399826,137.348282 104.195580,136.248367 101.991333,135.148438 
	C101.991333,135.148438 101.569763,135.005951 101.219048,134.759949 
	C100.575249,134.361465 100.282166,134.208984 99.989082,134.056488 
	C99.989082,134.056488 99.997322,133.998978 99.832535,133.724854 
	C99.114044,133.162720 98.560341,132.874710 98.006645,132.586700 
	C98.006645,132.586700 97.748558,132.292038 97.562271,132.231979 
	C96.122314,130.558395 94.868645,128.944885 93.295029,127.257843 
	C92.010399,125.979973 91.045700,124.775620 89.881973,123.293747 
z"/>
<path fill="#F8F7E7" opacity="1.000000" stroke="none" 
	d="
M102.003525,135.524170 
	C104.195580,136.248367 106.399826,137.348282 108.461044,138.738922 
	C107.885010,139.027557 107.452003,139.025482 107.018997,139.023407 
	C104.741142,138.959488 102.189384,139.334320 102.003525,135.524170 
z"/>
<path fill="#FFFFFF" opacity="1.000000" stroke="none" 
	d="
M107.012634,139.400055 
	C107.452003,139.025482 107.885010,139.027557 108.642776,139.020645 
	C109.418381,139.065872 109.869225,139.120071 110.640060,139.290924 
	C110.975861,140.054840 110.991676,140.702118 111.017120,141.673431 
	C108.519394,143.370300 106.776932,143.358383 107.012634,139.400055 
z"/>
<path fill="#F9F4DD" opacity="1.000000" stroke="none" 
	d="
M98.112274,132.904480 
	C98.560341,132.874710 99.114044,133.162720 99.806091,133.736908 
	C99.368935,133.756134 98.793411,133.489197 98.112274,132.904480 
z"/>
<path fill="#F9F4DD" opacity="1.000000" stroke="none" 
	d="
M100.115341,134.276718 
	C100.282166,134.208984 100.575249,134.361465 100.998077,134.734009 
	C100.832405,134.801682 100.536995,134.649323 100.115341,134.276718 
z"/>
<path fill="#4A6E83" opacity="1.000000" stroke="none" 
	d="
M84.370270,112.006332 
	C88.043915,111.536613 92.194351,111.068771 96.718964,110.439133 
	C99.110168,110.218895 101.127205,110.160446 103.793282,110.107201 
	C104.442322,110.112411 104.896370,110.211433 104.896362,110.211433 
	C104.939926,110.592346 104.983490,110.973259 104.990280,111.639297 
	C98.251358,111.952354 91.549217,111.980278 84.370270,112.006332 
z"/>
<path fill="#EA982F" opacity="1.000000" stroke="none" 
	d="
M129.116974,140.293900 
	C129.076584,139.485428 129.036194,138.676971 128.993439,137.463715 
	C132.000229,136.009125 135.009354,134.959320 138.404800,133.884277 
	C139.196579,134.698090 139.602051,135.537140 140.017853,136.751770 
	C139.302032,137.448318 138.575912,137.769302 137.119568,138.061035 
	C134.593857,138.679123 132.798340,139.326477 130.700256,140.083466 
	C129.970779,140.226700 129.543884,140.260300 129.116974,140.293900 
z"/>
<path fill="#E39938" opacity="1.000000" stroke="none" 
	d="
M131.002838,139.973846 
	C132.798340,139.326477 134.593857,138.679123 136.818970,138.064484 
	C136.846573,138.425507 136.444565,138.753815 135.813507,139.214218 
	C134.929337,139.512955 134.274231,139.679581 132.981552,139.946014 
	C131.896927,140.021820 131.449875,139.997833 131.002838,139.973846 
z"/>
<path fill="#F9F4DD" opacity="1.000000" stroke="none" 
	d="
M130.700256,140.083466 
	C131.449875,139.997833 131.896927,140.021820 132.677002,140.095581 
	C133.010040,140.145355 133.002243,140.610168 132.986252,140.842926 
	C131.934708,141.077835 130.899155,141.080002 129.475983,141.065735 
	C129.088348,141.049286 129.097137,140.670731 129.107056,140.482315 
	C129.543884,140.260300 129.970779,140.226700 130.700256,140.083466 
z"/>
<path fill="#3375A1" opacity="1.000000" stroke="none" 
	d="
M139.332169,116.273232 
	C139.415421,118.220390 140.254532,120.733940 139.350067,121.940948 
	C138.584564,122.962494 135.191101,123.315964 134.033875,122.479790 
	C131.387009,120.567268 132.051376,118.005997 135.188492,115.901199 
	C136.441071,115.745804 137.065033,115.709732 137.961426,115.780167 
	C138.599945,116.015541 138.966049,116.144386 139.332169,116.273232 
z"/>
<path fill="#3375A1" opacity="1.000000" stroke="none" 
	d="
M117.993645,116.007645 
	C118.221283,118.047737 118.839645,120.164490 118.462677,122.085976 
	C118.332359,122.750221 114.849976,123.686302 114.418846,123.186630 
	C113.159180,121.726707 112.665977,119.605461 112.321754,117.255814 
	C114.511971,116.514679 116.252808,116.261162 117.993645,116.007645 
z"/>
<path fill="#E0A656" opacity="1.000000" stroke="none" 
	d="
M118.428658,114.905045 
	C122.761909,114.642937 127.554367,114.478134 132.667923,114.565231 
	C128.288635,114.878868 123.588249,114.940613 118.428658,114.905045 
z"/>
<path fill="#F8F7E7" opacity="1.000000" stroke="none" 
	d="
M139.751144,116.205299 
	C138.966049,116.144386 138.599945,116.015541 138.075562,115.556046 
	C137.937927,115.059715 137.958557,114.894020 137.979202,114.728317 
	C138.416519,114.776695 138.853851,114.825073 139.620209,114.831963 
	C141.362518,114.903450 142.775757,115.016418 144.605927,115.224632 
	C145.014832,116.940041 145.006805,118.560204 144.999390,120.590187 
	C145.000000,121.000000 145.000000,121.000305 145.000000,121.000305 
	C144.244202,119.638779 143.488403,118.277245 142.365112,116.253677 
	C142.297058,116.250076 141.233582,116.193718 139.751144,116.205299 
z"/>
<path fill="#E5EFE8" opacity="1.000000" stroke="none" 
	d="
M118.011314,115.796631 
	C116.252808,116.261162 114.511971,116.514679 112.421585,116.942276 
	C111.191963,116.610573 110.311897,116.104805 109.618683,115.342560 
	C110.865707,114.977089 111.925858,114.868088 112.986015,114.759087 
	C113.427193,114.801117 113.868370,114.843147 114.899185,114.982162 
	C115.670990,115.023643 115.853165,114.968147 116.035339,114.912643 
	C116.490479,114.940254 116.945618,114.967865 117.732986,115.079575 
	C118.065208,115.163681 118.028984,115.585625 118.011314,115.796631 
z"/>
<path fill="#E0A656" opacity="1.000000" stroke="none" 
	d="
M137.954437,114.443481 
	C137.958557,114.894020 137.937927,115.059715 137.803146,115.449532 
	C137.065033,115.709732 136.441071,115.745804 135.507172,115.741989 
	C135.197235,115.702103 135.044891,115.270042 135.035858,115.040764 
	C135.994431,114.593880 136.962051,114.376266 137.954437,114.443481 
z"/>
<path fill="#E0A656" opacity="1.000000" stroke="none" 
	d="
M112.749779,114.525276 
	C111.925858,114.868088 110.865707,114.977089 109.404037,115.109985 
	C108.773666,114.838463 108.544807,114.543037 108.055244,114.132278 
	C107.830994,113.850197 107.867447,113.683464 107.946373,113.264374 
	C109.497086,113.438492 111.005310,113.864975 112.749779,114.525276 
z"/>
<path fill="#F8F7E7" opacity="1.000000" stroke="none" 
	d="
M145.000000,120.999847 
	C145.121902,121.141838 145.243805,121.283981 145.365707,121.426125 
	C145.280029,121.376633 145.194336,121.327148 145.054321,121.138977 
	C145.000000,121.000305 145.000000,121.000000 145.000000,120.999847 
z"/>
<path fill="#3375A1" opacity="1.000000" stroke="none" 
	d="
M139.720215,99.989510 
	C138.751724,100.246033 137.660431,100.166565 136.082657,100.051666 
	C136.324554,101.608505 136.531021,102.937233 136.725174,104.643608 
	C134.817322,103.118279 130.995697,100.386757 131.390488,99.469040 
	C132.535004,96.808464 135.372513,94.876175 138.039536,93.066803 
	C139.066559,95.664658 134.958893,98.441963 139.720215,99.989510 
z"/>
<path fill="#B7CED3" opacity="1.000000" stroke="none" 
	d="
M106.825943,92.215210 
	C106.957993,90.433693 107.089783,88.979759 107.532547,87.242661 
	C107.997818,87.966606 108.152100,88.973694 108.516418,90.311462 
	C109.808479,94.193024 110.890526,97.743912 111.686859,101.828781 
	C111.171524,102.921555 110.941887,103.480354 110.712265,104.039162 
	C109.416733,100.207031 108.121201,96.374901 106.825943,92.215210 
z"/>
<path fill="#F0FAFA" opacity="1.000000" stroke="none" 
	d="
M110.748093,104.401505 
	C110.941887,103.480354 111.171524,102.921555 111.670822,102.218613 
	C112.343002,103.176453 112.745522,104.278419 113.315323,105.698273 
	C114.996635,106.650864 116.485313,107.754578 118.029121,107.838005 
	C124.261002,108.174759 130.509888,108.196846 137.025070,108.698700 
	C132.156982,109.149757 127.016327,109.237236 121.060669,109.273026 
	C119.517975,109.314255 118.790291,109.407181 118.062599,109.500107 
	C116.564735,109.385979 115.066879,109.271858 113.103561,108.886383 
	C112.516006,108.319908 112.299332,108.136337 111.988083,108.064323 
	C111.586693,106.964165 111.185310,105.863998 110.748093,104.401505 
z"/>
<path fill="#3375A1" opacity="1.000000" stroke="none" 
	d="
M140.813583,100.577377 
	C140.955002,100.764969 140.480560,100.823090 140.480560,100.823090 
	C140.480560,100.823090 140.027908,100.669540 139.901489,100.467361 
	C140.098434,100.132225 140.397476,100.173767 140.813583,100.577377 
z"/>
<path fill="#DEA250" opacity="1.000000" stroke="none" 
	d="
M102.257309,80.884171 
	C103.384735,83.113991 104.423866,85.754387 105.403519,88.742020 
	C104.285690,86.491081 103.227348,83.892914 102.257309,80.884171 
z"/>
<path fill="#DEA250" opacity="1.000000" stroke="none" 
	d="
M98.314682,86.744293 
	C97.917740,85.037086 97.495232,83.392380 97.021042,81.382339 
	C97.977333,83.448906 98.985313,85.880814 99.958832,88.734619 
	C99.924370,89.156509 99.534142,89.075539 99.322433,88.713226 
	C98.797485,87.858047 98.484238,87.365173 98.170990,86.872307 
	C98.170990,86.872307 98.289108,86.806801 98.314682,86.744293 
z"/>
<path fill="#DEA250" opacity="1.000000" stroke="none" 
	d="
M96.969475,80.750168 
	C96.240997,81.011024 95.500069,80.990990 94.387871,80.995041 
	C94.996742,80.835846 95.976883,80.652565 96.969475,80.750168 
z"/>
<path fill="#E0A656" opacity="1.000000" stroke="none" 
	d="
M118.272369,109.660675 
	C118.790291,109.407181 119.517975,109.314255 120.596741,109.347450 
	C120.125923,109.589462 119.304031,109.705353 118.272369,109.660675 
z"/>
<path fill="#E0A656" opacity="1.000000" stroke="none" 
	d="
M112.036400,108.269035 
	C112.299332,108.136337 112.516006,108.319908 112.654465,108.833954 
	C112.404701,108.931450 112.209335,108.738403 112.036400,108.269035 
z"/>
<path fill="#E0A656" opacity="1.000000" stroke="none" 
	d="
M115.950516,114.740417 
	C115.853165,114.968147 115.670990,115.023643 115.230522,114.956161 
	C115.270050,114.744843 115.567871,114.656517 115.950516,114.740417 
z"/>
<path fill="#EA982F" opacity="1.000000" stroke="none" 
	d="
M159.012665,87.342079 
	C159.637390,87.343575 160.246964,87.792847 160.989319,88.493423 
	C161.384644,93.940468 161.647186,99.136208 161.909729,104.331947 
	C161.437866,104.374397 160.965988,104.416840 160.494125,104.459290 
	C159.995255,98.902809 159.496384,93.346336 159.012665,87.342079 
z"/>
<path fill="#B7CED3" opacity="1.000000" stroke="none" 
	d="
M108.234222,86.832687 
	C108.207512,86.652397 108.469742,86.440628 108.874062,86.361023 
	C108.851822,86.595863 108.687492,86.698540 108.234222,86.832687 
z"/>
<path fill="#A6B9C5" opacity="1.000000" stroke="none" 
	d="
M81.309189,108.501251 
	C87.684082,108.232643 94.406433,108.178886 101.583405,108.248688 
	C100.623558,108.555634 99.209068,108.739021 97.427246,108.940353 
	C91.925476,108.877563 86.791061,108.796829 81.309189,108.501251 
z"/>
<path fill="#DDF1F4" opacity="1.000000" stroke="none" 
	d="
M104.921280,109.896805 
	C104.896370,110.211433 104.442322,110.112411 104.222076,110.038422 
	C104.072006,109.259865 104.142174,108.555305 104.212349,107.850746 
	C104.398720,107.857643 104.585083,107.864540 104.771454,107.871437 
	C104.829697,108.441689 104.887939,109.011932 104.921280,109.896805 
z"/>
<path fill="#F9F4DD" opacity="1.000000" stroke="none" 
	d="
M98.137070,87.193970 
	C98.484238,87.365173 98.797485,87.858047 99.130157,88.660858 
	C98.800781,88.485741 98.451958,88.000694 98.137070,87.193970 
z"/>
</svg>