<svg version="1.1" id="Layer_1" xmlns="http://www.w3.org/2000/svg" xmlns:xlink="http://www.w3.org/1999/xlink" x="0px" y="0px"
	 width="100%" viewBox="0 0 225 225" enable-background="new 0 0 225 225" xml:space="preserve">
<path fill="#FC5D6C" opacity="1.000000" stroke="none" 
	d="
M145.000000,1.000000 
	C171.966690,1.000000 198.933395,1.000000 225.939026,1.000000 
	C225.939026,76.000008 225.939026,151.000015 225.939026,226.000000 
	C209.897812,226.000000 193.917557,226.000000 177.468643,225.535461 
	C176.817902,220.783997 177.973419,215.794113 176.168655,212.359955 
	C172.669769,205.702194 173.133316,198.962433 172.965225,192.065857 
	C172.917877,190.122849 173.145691,187.570007 172.061050,186.361832 
	C167.807556,181.623886 168.086472,176.282516 168.689850,170.607742 
	C168.845047,169.147995 167.601547,167.539536 167.000549,165.624390 
	C167.000214,164.499405 166.999908,163.749420 167.231979,162.921814 
	C167.308762,162.230286 167.153168,161.616364 166.991241,160.631805 
	C168.907623,149.337021 165.121979,138.603271 166.189194,127.517433 
	C170.526093,124.834137 174.573074,122.350731 179.012589,119.849686 
	C180.018524,118.713387 180.631927,117.594727 181.321274,116.496689 
	C181.397232,116.517319 181.348923,116.667130 181.664948,116.509407 
	C182.288467,115.513466 182.595947,114.675247 182.940033,113.600342 
	C182.976654,113.363663 183.261795,112.978783 183.553772,112.814667 
	C184.188873,111.618256 184.532013,110.585968 184.854858,109.396545 
	C184.834579,109.239418 185.038071,108.996513 185.383240,108.919540 
	C186.557587,108.354233 188.034424,107.955444 188.116226,107.363785 
	C188.980576,101.111801 189.716492,94.814148 187.078201,88.764069 
	C186.893143,88.339745 185.939438,88.250610 185.191040,87.715202 
	C184.911591,87.007881 184.784286,86.590981 184.792938,85.979263 
	C184.472229,85.273102 184.015533,84.761749 183.620743,84.241241 
	C183.682648,84.232086 183.691681,84.356911 183.663712,84.026810 
	C183.004166,83.194748 182.372604,82.692795 181.801559,82.153122 
	C181.862091,82.115395 181.934494,82.238297 181.777924,82.018692 
	C181.365402,81.548225 181.109451,81.297363 180.876373,81.099533 
	C180.899261,81.152580 180.792831,81.197540 180.726410,80.845955 
	C175.791718,75.452171 167.232193,75.723778 162.930634,81.147362 
	C162.867020,81.239792 162.666687,81.138626 162.308777,81.200958 
	C161.424164,81.723236 160.897446,82.183174 160.449341,82.697922 
	C160.527924,82.752724 160.440002,82.922981 160.107727,82.721268 
	C158.494385,81.797050 157.213303,81.074547 156.148422,80.473984 
	C156.443466,78.065689 156.796280,75.961342 156.942413,73.842743 
	C157.334198,68.163338 157.702576,62.480656 157.949875,56.793602 
	C158.084106,53.706322 158.544617,50.442711 157.744873,47.568344 
	C157.153244,45.442043 153.865448,44.023415 153.379547,41.919781 
	C152.574295,38.433487 153.648468,34.514385 152.850143,31.024876 
	C151.812927,26.491358 149.752686,22.186504 148.065247,17.809254 
	C147.113983,15.341696 145.550110,13.006549 145.123627,10.467080 
	C144.607040,7.391224 145.000412,4.162547 145.000000,1.000000 
z"/>
<path fill="#FB5274" opacity="1.000000" stroke="none" 
	d="
M73.000000,226.000000 
	C63.312439,226.000000 53.624878,226.000000 43.387161,225.611908 
	C42.604504,223.422134 42.083824,221.603577 42.188282,219.821655 
	C42.700626,211.081848 43.338707,202.348648 44.015553,193.619553 
	C44.376446,188.965210 42.754539,186.135208 37.916771,184.836151 
	C36.342770,184.413498 34.121498,181.476685 34.376770,180.091705 
	C35.136127,175.971741 36.555691,171.826126 38.526939,168.121338 
	C40.246655,164.889343 40.296532,162.551361 36.837193,161.345688 
	C31.915949,159.630493 32.710979,156.757828 34.190922,153.080978 
	C34.911240,151.291367 35.586262,148.390137 34.686684,147.242935 
	C31.761597,143.512695 31.647373,139.715805 32.607010,135.466873 
	C33.560677,131.244385 31.695086,129.117554 27.406574,129.009857 
	C26.077114,128.976471 24.392334,129.353119 23.494184,128.693039 
	C21.515739,127.239037 18.774385,125.427666 18.458445,123.428093 
	C17.961990,120.286057 18.236094,114.678772 19.886189,113.945374 
	C27.160398,110.712288 26.882410,104.284988 27.936234,98.429214 
	C29.482603,89.836494 26.203365,81.814964 24.486916,73.598724 
	C23.704165,69.851891 23.765265,66.159111 19.596415,63.930931 
	C18.517763,63.354412 18.536999,60.070621 18.652145,58.064861 
	C18.830494,54.958126 20.031328,51.859951 19.904034,48.795307 
	C19.536741,39.952682 20.789227,31.193293 17.558767,22.257435 
	C15.233165,15.824527 16.394205,8.131141 16.000000,1.000000 
	C25.020895,1.000000 34.041790,1.000000 43.531342,1.466074 
	C44.635578,7.841399 41.620682,14.661739 48.469933,19.071247 
	C49.174126,19.524601 48.968132,21.580530 48.976635,22.894176 
	C49.021858,29.883451 48.904530,36.875473 49.072643,43.861031 
	C49.113014,45.538574 49.929230,47.232388 50.557934,48.853043 
	C51.634167,51.627319 53.769821,54.331909 53.823174,57.097351 
	C53.979767,65.214264 53.330948,73.346718 52.653091,81.551941 
	C51.839535,81.645416 51.370441,81.660049 50.710686,81.582016 
	C50.031933,81.676208 49.543846,81.863083 49.045280,82.056458 
	C49.034798,82.062958 49.010979,82.069382 48.639240,82.047012 
	C46.532139,81.892021 44.796780,81.759407 41.850414,81.534248 
	C43.144253,83.392479 43.805187,84.341728 44.449020,85.281242 
	C44.431919,85.271507 44.401573,85.296570 44.037918,85.366806 
	C43.199924,86.220879 42.725578,87.004715 42.248482,88.144806 
	C36.441650,103.196114 42.331768,119.098335 57.123039,128.611603 
	C58.121387,129.584167 59.002934,130.296799 59.251217,130.497513 
	C58.408859,132.510132 57.838566,133.872742 57.268272,135.235336 
	C58.548916,135.569855 59.848278,136.240891 61.106430,136.170914 
	C63.991707,136.010468 65.481621,136.815247 65.456779,140.023071 
	C65.395302,147.963394 65.455513,155.908142 65.709457,163.843353 
	C65.743851,164.918304 67.171188,165.948654 68.082832,167.354584 
	C69.457024,169.791275 70.701942,171.873016 71.733147,174.272079 
	C69.484375,181.201050 68.658394,187.657547 72.118233,194.241974 
	C72.978333,195.878830 72.000748,198.557648 71.662811,200.725571 
	C71.345474,202.761398 69.685181,205.461700 70.467728,206.648651 
	C74.532532,212.814026 72.446526,219.539627 73.000000,226.000000 
z"/>
<path fill="#FC4E74" opacity="1.000000" stroke="none" 
	d="
M15.527336,1.000000 
	C16.394205,8.131141 15.233165,15.824527 17.558767,22.257435 
	C20.789227,31.193293 19.536741,39.952682 19.904034,48.795307 
	C20.031328,51.859951 18.830494,54.958126 18.652145,58.064861 
	C18.536999,60.070621 18.517763,63.354412 19.596415,63.930931 
	C23.765265,66.159111 23.704165,69.851891 24.486916,73.598724 
	C26.203365,81.814964 29.482603,89.836494 27.936234,98.429214 
	C26.882410,104.284988 27.160398,110.712288 19.886189,113.945374 
	C18.236094,114.678772 17.961990,120.286057 18.458445,123.428093 
	C18.774385,125.427666 21.515739,127.239037 23.494184,128.693039 
	C24.392334,129.353119 26.077114,128.976471 27.406574,129.009857 
	C31.695086,129.117554 33.560677,131.244385 32.607010,135.466873 
	C31.647373,139.715805 31.761597,143.512695 34.686684,147.242935 
	C35.586262,148.390137 34.911240,151.291367 34.190922,153.080978 
	C32.710979,156.757828 31.915949,159.630493 36.837193,161.345688 
	C40.296532,162.551361 40.246655,164.889343 38.526939,168.121338 
	C36.555691,171.826126 35.136127,175.971741 34.376770,180.091705 
	C34.121498,181.476685 36.342770,184.413498 37.916771,184.836151 
	C42.754539,186.135208 44.376446,188.965210 44.015553,193.619553 
	C43.338707,202.348648 42.700626,211.081848 42.188282,219.821655 
	C42.083824,221.603577 42.604504,223.422134 42.918503,225.611908 
	C29.022144,226.000000 15.044289,226.000000 1.038444,226.000000 
	C1.038444,151.000000 1.038444,76.000000 1.038444,1.000000 
	C5.736149,1.000000 10.395411,1.000000 15.527336,1.000000 
z"/>
<path fill="#FB596F" opacity="1.000000" stroke="none" 
	d="
M144.531342,1.000000 
	C145.000412,4.162547 144.607040,7.391224 145.123627,10.467080 
	C145.550110,13.006549 147.113983,15.341696 148.065247,17.809254 
	C149.752686,22.186504 151.812927,26.491358 152.850143,31.024876 
	C153.648468,34.514385 152.574295,38.433487 153.379547,41.919781 
	C153.865448,44.023415 157.153244,45.442043 157.744873,47.568344 
	C158.544617,50.442711 158.084106,53.706322 157.949875,56.793602 
	C157.702576,62.480656 157.334198,68.163338 156.942413,73.842743 
	C156.796280,75.961342 156.443466,78.065689 156.148422,80.473984 
	C157.213303,81.074547 158.494385,81.797050 159.934097,82.976273 
	C153.162323,88.618431 150.018906,96.057335 148.621063,104.157173 
	C146.503555,116.427170 151.912766,128.987778 165.899277,127.717316 
	C165.121979,138.603271 168.907623,149.337021 166.849075,160.810944 
	C166.808701,161.906937 166.904144,162.453171 166.999603,162.999420 
	C166.999908,163.749420 167.000214,164.499405 166.778961,165.810059 
	C166.023834,166.579605 165.490265,166.788513 164.907227,166.566360 
	C164.151184,162.065460 164.250504,157.630432 162.600082,153.988312 
	C155.017181,137.254486 144.898972,122.415634 128.841919,112.095192 
	C127.089340,108.976822 117.944572,106.708694 115.281624,108.378731 
	C115.071953,108.510231 115.078560,108.986610 114.670311,109.427353 
	C113.906494,109.560730 113.457024,109.569458 112.805809,109.354225 
	C111.118301,106.801369 109.595596,105.965050 106.983795,108.027481 
	C106.103546,108.722580 103.862663,108.235321 102.563942,107.616364 
	C101.974007,107.335220 101.591133,105.006432 102.092186,104.308395 
	C105.622162,99.390678 102.116364,95.845772 100.001068,92.001038 
	C100.000000,92.000000 99.997910,91.997887 100.110458,91.713058 
	C104.560280,87.768723 109.298828,84.323402 107.652847,77.350960 
	C107.636795,77.223167 107.856392,77.088524 108.067215,76.783363 
	C108.474953,75.772026 108.671860,75.065849 108.683426,74.362656 
	C108.498077,74.365646 108.485992,73.995102 108.806404,73.922119 
	C109.079391,72.899086 109.031967,71.949043 108.914925,70.562515 
	C109.040474,58.646839 105.165321,48.805988 96.998901,40.280575 
	C96.747879,37.219467 97.949059,33.636398 93.769112,33.168537 
	C89.720024,32.715324 89.000542,30.254906 89.005402,26.943336 
	C89.018074,18.295578 89.003624,9.647781 89.000000,1.000000 
	C107.354225,1.000000 125.708458,1.000000 144.531342,1.000000 
M138.652664,36.182293 
	C132.573303,36.638748 128.060959,39.819149 124.463669,44.478535 
	C117.394844,53.634399 115.506302,64.211006 117.883484,75.129974 
	C119.333321,81.789413 123.068695,87.993790 130.587357,89.848679 
	C137.938843,91.662308 143.640884,88.247887 148.070709,82.736633 
	C156.047195,72.812927 158.152924,61.446350 154.524521,49.386837 
	C152.364944,42.209198 147.773682,36.835575 138.652664,36.182293 
M156.318390,83.908112 
	C156.112152,83.944794 155.905930,83.981476 155.699692,84.018143 
	C155.902893,84.067238 156.106110,84.116333 156.318390,83.908112 
z"/>
<path fill="#F95570" opacity="1.000000" stroke="none" 
	d="
M88.531342,1.000000 
	C89.003624,9.647781 89.018074,18.295578 89.005402,26.943336 
	C89.000542,30.254906 89.720024,32.715324 93.769112,33.168537 
	C97.949059,33.636398 96.747879,37.219467 96.675270,40.167496 
	C95.190475,39.827480 94.091080,39.018368 92.859871,38.576836 
	C84.797516,35.685535 78.246025,35.938641 73.327980,44.435291 
	C65.661987,57.679447 71.190605,80.190315 84.305763,88.044174 
	C91.989189,92.645302 100.911430,90.261436 105.268646,82.403053 
	C106.152893,80.808281 106.873077,79.122551 107.668900,77.478752 
	C109.298828,84.323402 104.560280,87.768723 99.668159,91.713875 
	C95.967422,91.999512 92.821541,91.999512 89.675659,91.999512 
	C89.639412,92.283699 89.603172,92.567886 89.566925,92.852066 
	C92.877548,94.205643 96.188164,95.559227 100.002136,97.118599 
	C100.002136,94.897041 100.002136,93.449554 100.002136,92.002075 
	C102.116364,95.845772 105.622162,99.390678 102.092186,104.308395 
	C101.591133,105.006432 101.974007,107.335220 102.563942,107.616364 
	C103.862663,108.235321 106.103546,108.722580 106.983795,108.027481 
	C109.595596,105.965050 111.118301,106.801369 112.406509,109.488899 
	C108.491173,110.704361 104.635414,111.183250 101.078873,112.481720 
	C83.230835,118.997940 67.004807,145.873535 67.953552,166.999664 
	C67.171188,165.948654 65.743851,164.918304 65.709457,163.843353 
	C65.455513,155.908142 65.395302,147.963394 65.456779,140.023071 
	C65.481621,136.815247 63.991707,136.010468 61.106430,136.170914 
	C59.848278,136.240891 58.548916,135.569855 57.268272,135.235336 
	C57.838566,133.872742 58.408859,132.510132 59.251217,130.497513 
	C59.002934,130.296799 58.121387,129.584167 57.485901,128.683472 
	C68.128288,131.454880 74.737610,128.398605 77.710052,119.513237 
	C82.604645,104.882072 70.260826,81.430748 52.997562,81.473091 
	C53.330948,73.346718 53.979767,65.214264 53.823174,57.097351 
	C53.769821,54.331909 51.634167,51.627319 50.557934,48.853043 
	C49.929230,47.232388 49.113014,45.538574 49.072643,43.861031 
	C48.904530,36.875473 49.021858,29.883451 48.976635,22.894176 
	C48.968132,21.580530 49.174126,19.524601 48.469933,19.071247 
	C41.620682,14.661739 44.635578,7.841399 44.000000,1.466074 
	C58.687561,1.000000 73.375122,1.000000 88.531342,1.000000 
z"/>
<path fill="#FD586E" opacity="1.000000" stroke="none" 
	d="
M164.956696,166.997421 
	C165.490265,166.788513 166.023834,166.579605 166.778992,166.185043 
	C167.601547,167.539536 168.845047,169.147995 168.689850,170.607742 
	C168.086472,176.282516 167.807556,181.623886 172.061050,186.361832 
	C173.145691,187.570007 172.917877,190.122849 172.965225,192.065857 
	C173.133316,198.962433 172.669769,205.702194 176.168655,212.359955 
	C177.973419,215.794113 176.817902,220.783997 176.999985,225.535461 
	C158.312439,226.000000 139.624878,226.000000 120.468719,225.534042 
	C119.495979,218.681396 122.091019,211.570908 115.631981,206.554962 
	C115.213211,206.229767 115.158348,205.328918 115.087578,204.679153 
	C114.373383,198.121429 113.691200,191.560242 113.246567,184.726318 
	C113.988846,183.067566 114.812920,181.707138 114.919098,180.292831 
	C115.245041,175.950958 117.161629,174.237427 121.488274,175.608917 
	C122.382622,175.892410 123.386719,175.829681 124.340233,175.926514 
	C124.446266,175.371582 124.552299,174.816650 124.658333,174.261719 
	C121.427834,173.652634 118.197334,173.043533 115.910988,172.612457 
	C118.357262,171.934906 121.681847,171.014084 125.385429,170.079041 
	C131.344193,172.161835 136.898682,174.329376 142.509186,176.340698 
	C153.047577,180.118637 161.019714,176.763885 164.956696,166.997421 
z"/>
<path fill="#FB546F" opacity="1.000000" stroke="none" 
	d="
M125.006432,170.093262 
	C121.681847,171.014084 118.357262,171.934906 115.910988,172.612457 
	C118.197334,173.043533 121.427834,173.652634 124.658333,174.261719 
	C124.552299,174.816650 124.446266,175.371582 124.340233,175.926514 
	C123.386719,175.829681 122.382622,175.892410 121.488274,175.608917 
	C117.161629,174.237427 115.245041,175.950958 114.919098,180.292831 
	C114.812920,181.707138 113.988846,183.067566 113.040237,184.391449 
	C111.173904,177.072922 111.173904,177.072922 102.602890,176.125076 
	C103.054070,178.662369 103.909348,181.320206 103.912308,183.978973 
	C103.917091,188.268753 103.050705,192.562988 103.103752,196.848511 
	C103.224075,206.567886 103.680328,216.283096 104.000000,226.000000 
	C93.979103,226.000000 83.958214,226.000000 73.468658,226.000000 
	C72.446526,219.539627 74.532532,212.814026 70.467728,206.648651 
	C69.685181,205.461700 71.345474,202.761398 71.662811,200.725571 
	C72.000748,198.557648 72.978333,195.878830 72.118233,194.241974 
	C68.658394,187.657547 69.484375,181.201050 72.083153,174.398651 
	C79.651810,178.415222 86.930397,178.337662 94.127899,175.055008 
	C104.008026,170.548843 114.260178,168.925522 125.006432,170.093262 
z"/>
<path fill="#FD546E" opacity="1.000000" stroke="none" 
	d="
M104.466858,226.000000 
	C103.680328,216.283096 103.224075,206.567886 103.103752,196.848511 
	C103.050705,192.562988 103.917091,188.268753 103.912308,183.978973 
	C103.909348,181.320206 103.054070,178.662369 102.602890,176.125076 
	C111.173904,177.072922 111.173904,177.072922 112.793686,184.665146 
	C113.691200,191.560242 114.373383,198.121429 115.087578,204.679153 
	C115.158348,205.328918 115.213211,206.229767 115.631981,206.554962 
	C122.091019,211.570908 119.495979,218.681396 120.000061,225.534042 
	C114.977905,226.000000 109.955818,226.000000 104.466858,226.000000 
z"/>
<path fill="#FDFBFB" opacity="1.000000" stroke="none" 
	d="
M166.189194,127.517433 
	C151.912766,128.987778 146.503555,116.427170 148.621063,104.157173 
	C150.018906,96.057335 153.162323,88.618431 160.266357,83.177986 
	C160.440002,82.922981 160.527924,82.752724 160.805878,82.636147 
	C161.611450,82.059258 162.139069,81.598938 162.666687,81.138626 
	C162.666687,81.138626 162.867020,81.239792 163.315338,81.089760 
	C169.486053,77.987114 175.162140,78.093697 180.792831,81.197540 
	C180.792831,81.197540 180.899261,81.152580 180.927353,81.395134 
	C181.281799,81.837891 181.608139,82.038094 181.934494,82.238297 
	C181.934494,82.238297 181.862091,82.115395 181.908066,82.435028 
	C182.533249,83.288742 183.112473,83.822830 183.691681,84.356911 
	C183.691681,84.356911 183.682648,84.232086 183.664642,84.525337 
	C183.983398,85.270416 184.320190,85.722244 184.656967,86.174072 
	C184.784286,86.590981 184.911591,87.007881 185.257843,88.085175 
	C188.018921,95.554115 186.829071,102.281830 185.038071,108.996513 
	C185.038071,108.996513 184.834579,109.239418 184.624283,109.628220 
	C184.029922,111.004272 183.645859,111.991531 183.261795,112.978783 
	C183.261795,112.978783 182.976654,113.363663 182.669968,113.797966 
	C182.025162,115.043892 181.687042,115.855507 181.348923,116.667130 
	C181.348923,116.667130 181.397232,116.517319 181.061783,116.648376 
	C180.024231,117.808731 179.322144,118.838020 178.620056,119.867310 
	C174.573074,122.350731 170.526093,124.834137 166.189194,127.517433 
z"/>
<path fill="#FB596F" opacity="1.000000" stroke="none" 
	d="
M185.383240,108.919540 
	C186.829071,102.281830 188.018921,95.554115 185.409973,88.375587 
	C185.939438,88.250610 186.893143,88.339745 187.078201,88.764069 
	C189.716492,94.814148 188.980576,101.111801 188.116226,107.363785 
	C188.034424,107.955444 186.557587,108.354233 185.383240,108.919540 
z"/>
<path fill="#FB596F" opacity="1.000000" stroke="none" 
	d="
M180.726410,80.845955 
	C175.162140,78.093697 169.486053,77.987114 163.378967,80.997330 
	C167.232193,75.723778 175.791718,75.452171 180.726410,80.845955 
z"/>
<path fill="#FB596F" opacity="1.000000" stroke="none" 
	d="
M179.012589,119.849670 
	C179.322144,118.838020 180.024231,117.808731 180.985825,116.627754 
	C180.631927,117.594727 180.018524,118.713387 179.012589,119.849670 
z"/>
<path fill="#FD586E" opacity="1.000000" stroke="none" 
	d="
M167.231964,162.921814 
	C166.904144,162.453171 166.808701,161.906937 166.855408,161.181564 
	C167.153168,161.616364 167.308762,162.230286 167.231964,162.921814 
z"/>
<path fill="#FB596F" opacity="1.000000" stroke="none" 
	d="
M183.553772,112.814667 
	C183.645859,111.991531 184.029922,111.004272 184.644562,109.785355 
	C184.532013,110.585968 184.188873,111.618256 183.553772,112.814667 
z"/>
<path fill="#FB596F" opacity="1.000000" stroke="none" 
	d="
M183.663712,84.026810 
	C183.112473,83.822830 182.533249,83.288742 181.847534,82.472748 
	C182.372604,82.692795 183.004166,83.194748 183.663712,84.026810 
z"/>
<path fill="#FB596F" opacity="1.000000" stroke="none" 
	d="
M181.664948,116.509407 
	C181.687042,115.855507 182.025162,115.043892 182.633362,114.034653 
	C182.595947,114.675247 182.288467,115.513466 181.664948,116.509407 
z"/>
<path fill="#FB596F" opacity="1.000000" stroke="none" 
	d="
M184.792938,85.979263 
	C184.320190,85.722244 183.983398,85.270416 183.602722,84.534485 
	C184.015533,84.761749 184.472229,85.273102 184.792938,85.979263 
z"/>
<path fill="#FB596F" opacity="1.000000" stroke="none" 
	d="
M162.308777,81.200958 
	C162.139069,81.598938 161.611450,82.059258 160.727295,82.581345 
	C160.897446,82.183174 161.424164,81.723236 162.308777,81.200958 
z"/>
<path fill="#FB596F" opacity="1.000000" stroke="none" 
	d="
M181.777924,82.018692 
	C181.608139,82.038094 181.281799,81.837891 180.904480,81.342087 
	C181.109451,81.297363 181.365402,81.548225 181.777924,82.018692 
z"/>
<path fill="#FEFDFD" opacity="1.000000" stroke="none" 
	d="
M125.385429,170.079041 
	C114.260178,168.925522 104.008026,170.548843 94.127899,175.055008 
	C86.930397,178.337662 79.651810,178.415222 72.296867,174.081345 
	C70.701942,171.873016 69.457024,169.791275 68.082832,167.354584 
	C67.004807,145.873535 83.230835,118.997940 101.078873,112.481720 
	C104.635414,111.183250 108.491173,110.704361 112.608246,109.712860 
	C113.457024,109.569458 113.906494,109.560730 115.097580,109.548752 
	C120.177269,110.526199 124.515358,111.506889 128.853439,112.487579 
	C144.898972,122.415634 155.017181,137.254486 162.600082,153.988312 
	C164.250504,157.630432 164.151184,162.065460 164.907227,166.566360 
	C161.019714,176.763885 153.047577,180.118637 142.509186,176.340698 
	C136.898682,174.329376 131.344193,172.161835 125.385429,170.079041 
z"/>
<path fill="#FDFBFC" opacity="1.000000" stroke="none" 
	d="
M52.653091,81.551941 
	C70.260826,81.430748 82.604645,104.882072 77.710052,119.513237 
	C74.737610,128.398605 68.128288,131.454880 57.369095,128.423523 
	C42.331768,119.098335 36.441650,103.196114 42.540932,87.973679 
	C43.357944,86.729736 43.879761,86.013153 44.401573,85.296570 
	C44.401573,85.296570 44.431919,85.271507 44.734119,85.166183 
	C46.361206,84.063698 47.686092,83.066536 49.010979,82.069382 
	C49.010979,82.069382 49.034798,82.062958 49.365307,82.064751 
	C50.097660,81.935921 50.499504,81.805305 50.901352,81.674690 
	C51.370441,81.660049 51.839535,81.645416 52.653091,81.551941 
z"/>
<path fill="#F95570" opacity="1.000000" stroke="none" 
	d="
M48.639240,82.047012 
	C47.686092,83.066536 46.361206,84.063698 44.751221,85.175919 
	C43.805187,84.341728 43.144253,83.392479 41.850414,81.534248 
	C44.796780,81.759407 46.532139,81.892021 48.639240,82.047012 
z"/>
<path fill="#F95570" opacity="1.000000" stroke="none" 
	d="
M44.037922,85.366806 
	C43.879761,86.013153 43.357944,86.729736 42.543686,87.617432 
	C42.725578,87.004715 43.199924,86.220879 44.037922,85.366806 
z"/>
<path fill="#F95570" opacity="1.000000" stroke="none" 
	d="
M50.710686,81.582016 
	C50.499504,81.805305 50.097660,81.935921 49.375786,82.058250 
	C49.543846,81.863083 50.031933,81.676208 50.710686,81.582016 
z"/>
<path fill="#FDFCFC" opacity="1.000000" stroke="none" 
	d="
M139.061752,36.185944 
	C147.773682,36.835575 152.364944,42.209198 154.524521,49.386837 
	C158.152924,61.446350 156.047195,72.812927 148.070709,82.736633 
	C143.640884,88.247887 137.938843,91.662308 130.587357,89.848679 
	C123.068695,87.993790 119.333321,81.789413 117.883484,75.129974 
	C115.506302,64.211006 117.394844,53.634399 124.463669,44.478535 
	C128.060959,39.819149 132.573303,36.638748 139.061752,36.185944 
z"/>
<path fill="#FEFCFC" opacity="1.000000" stroke="none" 
	d="
M107.652847,77.350960 
	C106.873077,79.122551 106.152893,80.808281 105.268646,82.403053 
	C100.911430,90.261436 91.989189,92.645302 84.305763,88.044174 
	C71.190605,80.190315 65.661987,57.679447 73.327980,44.435291 
	C78.246025,35.938641 84.797516,35.685535 92.859871,38.576836 
	C94.091080,39.018368 95.190475,39.827480 96.674461,40.579662 
	C105.165321,48.805988 109.040474,58.646839 108.813995,70.929604 
	C108.683784,72.487144 108.584892,73.241127 108.485992,73.995102 
	C108.485992,73.995102 108.498077,74.365646 108.377975,74.599304 
	C108.124039,75.584824 107.990211,76.336670 107.856384,77.088524 
	C107.856392,77.088524 107.636795,77.223167 107.652847,77.350960 
z"/>
<path fill="#F95570" opacity="1.000000" stroke="none" 
	d="
M128.841919,112.095200 
	C124.515358,111.506889 120.177269,110.526199 115.411919,109.424118 
	C115.078560,108.986610 115.071953,108.510231 115.281624,108.378731 
	C117.944572,106.708694 127.089340,108.976822 128.841919,112.095200 
z"/>
<path fill="#F95570" opacity="1.000000" stroke="none" 
	d="
M108.806412,73.922119 
	C108.584892,73.241127 108.683784,72.487144 108.883614,71.366081 
	C109.031967,71.949043 109.079391,72.899086 108.806412,73.922119 
z"/>
<path fill="#FC5D6C" opacity="1.000000" stroke="none" 
	d="
M156.313843,84.036766 
	C156.106110,84.116333 155.902893,84.067238 155.699692,84.018143 
	C155.905930,83.981476 156.112152,83.944794 156.313843,84.036766 
z"/>
<path fill="#F95570" opacity="1.000000" stroke="none" 
	d="
M108.067215,76.783363 
	C107.990211,76.336670 108.124039,75.584824 108.563324,74.596321 
	C108.671860,75.065849 108.474953,75.772026 108.067215,76.783363 
z"/>
<path fill="#FB596F" opacity="1.000000" stroke="none" 
	d="
M100.001068,92.001038 
	C100.002136,93.449554 100.002136,94.897041 100.002136,97.118599 
	C96.188164,95.559227 92.877548,94.205643 89.566925,92.852066 
	C89.603172,92.567886 89.639412,92.283699 89.675659,91.999512 
	C92.821541,91.999512 95.967422,91.999512 99.555603,91.998703 
	C99.997910,91.997887 100.000000,92.000000 100.001068,92.001038 
z"/>
</svg>